<svg xmlns="http://www.w3.org/2000/svg" width="16" height="17" fill="none" viewBox="0 0 16 17"><path fill="#fff" fill-rule="evenodd" d="M14.075.475a1.32 1.32 0 0 1 1.675 1.27v3.53a.63.63 0 0 1 0 .039v6.156a2.809 2.809 0 1 1-1.5-2.485v-2.73L5.86 8.35v5.395a2.81 2.81 0 0 1-2.8 3.005 2.809 2.809 0 1 1 1.302-5.297V4.266A1.322 1.322 0 0 1 5.324 3L14.075.475ZM4.361 13.808a1.309 1.309 0 1 0 .004.213.759.759 0 0 1-.004-.08v-.133Zm1.5-7.003 8.389-2.097V1.986l-8.39 2.42v2.4Zm7.08 3.356a1.31 1.31 0 1 0 0 2.619 1.31 1.31 0 0 0 0-2.619Z" clip-rule="evenodd"/></svg>