<svg width="25" height="24" viewBox="0 0 25 24" fill="none" xmlns="http://www.w3.org/2000/svg">
<g id="Icon">
<g id="Vector">
<path d="M18.95 19.3C19.1754 19.3 19.3916 19.2104 19.551 19.051C19.7104 18.8916 19.8 18.6754 19.8 18.45L19.8 6.55C19.8 6.32457 19.7104 6.10837 19.551 5.94896C19.3916 5.78955 19.1754 5.7 18.95 5.7L15.55 5.7C15.0806 5.7 14.7 5.31944 14.7 4.85C14.7 4.38056 15.0806 4 15.55 4L18.95 4C19.6263 4 20.2749 4.26866 20.7531 4.74688C21.2313 5.2251 21.5 5.8737 21.5 6.55V18.45C21.5 19.1263 21.2313 19.7749 20.7531 20.2531C20.2749 20.7313 19.6263 21 18.95 21H15.55C15.0805 21 14.7 20.6194 14.7 20.15C14.7 19.6806 15.0805 19.3 15.55 19.3H18.95Z" fill="white"/>
<path d="M10.201 17.351C9.86908 17.683 9.33089 17.683 8.99894 17.351L4.75159 13.1037C4.74259 13.0948 4.73378 13.0856 4.72518 13.0763C4.65848 13.0041 4.60659 12.9231 4.56952 12.8373C4.52477 12.7339 4.49997 12.6198 4.49997 12.5C4.49997 12.38 4.52485 12.2657 4.56973 12.1622C4.60644 12.0773 4.65765 11.9972 4.72334 11.9257C4.73256 11.9156 4.74203 11.9058 4.75172 11.8962L8.99894 7.64895C9.33089 7.31701 9.86908 7.31701 10.201 7.64895C10.533 7.9809 10.533 8.51909 10.201 8.85104L7.40206 11.65L15.55 11.65C16.0194 11.65 16.4 12.0306 16.4 12.5C16.4 12.9694 16.0194 13.35 15.55 13.35H7.40206L10.201 16.149C10.533 16.4809 10.533 17.0191 10.201 17.351Z" fill="white"/>
</g>
</g>
</svg>
