<svg width="64" height="64" viewBox="0 0 64 64" fill="none" xmlns="http://www.w3.org/2000/svg">
<g id="Coloured Icons/Password-1">
<path id="Vector" d="M58.6667 49.3335H5.33333V56.0002C5.33333 57.4735 6.52666 58.6668 7.99999 58.6668H56C57.4733 58.6668 58.6667 57.4735 58.6667 56.0002V49.3335Z" fill="#C48C00"/>
<path id="Vector_2" d="M14.6667 17.3333V21.3333H20V17.3333C20 10.7053 25.372 5.33333 32 5.33333C38.628 5.33333 44 10.7053 44 17.3333V21.3333H49.3333V17.3333C49.3333 7.76 41.5733 0 32 0C22.4267 0 14.6667 7.76 14.6667 17.3333Z" fill="url(#paint0_linear_8435_162316)"/>
<path id="Vector_3" d="M58.6667 30.6668H5.33333V24.0002C5.33333 22.5268 6.52666 21.3335 7.99999 21.3335H56C57.4733 21.3335 58.6667 22.5268 58.6667 24.0002V30.6668Z" fill="#FAD500"/>
<path id="Vector_4" d="M58.6667 30.6665H5.33333V39.9998H58.6667V30.6665Z" fill="#EDBE00"/>
<path id="Vector_5" d="M58.6667 40H5.33333V49.3333H58.6667V40Z" fill="#E3A600"/>
<path id="Vector_6" d="M48 42.6668C49.4728 42.6668 50.6667 41.4729 50.6667 40.0002C50.6667 38.5274 49.4728 37.3335 48 37.3335C46.5272 37.3335 45.3333 38.5274 45.3333 40.0002C45.3333 41.4729 46.5272 42.6668 48 42.6668Z" fill="#3B3B3B"/>
<path id="Vector_7" d="M37.3333 42.6668C38.8061 42.6668 40 41.4729 40 40.0002C40 38.5274 38.8061 37.3335 37.3333 37.3335C35.8606 37.3335 34.6667 38.5274 34.6667 40.0002C34.6667 41.4729 35.8606 42.6668 37.3333 42.6668Z" fill="#3B3B3B"/>
<path id="Vector_8" d="M26.6667 42.6668C28.1394 42.6668 29.3333 41.4729 29.3333 40.0002C29.3333 38.5274 28.1394 37.3335 26.6667 37.3335C25.1939 37.3335 24 38.5274 24 40.0002C24 41.4729 25.1939 42.6668 26.6667 42.6668Z" fill="#3B3B3B"/>
<path id="Vector_9" d="M16 42.6668C17.4728 42.6668 18.6667 41.4729 18.6667 40.0002C18.6667 38.5274 17.4728 37.3335 16 37.3335C14.5272 37.3335 13.3333 38.5274 13.3333 40.0002C13.3333 41.4729 14.5272 42.6668 16 42.6668Z" fill="#3B3B3B"/>
</g>
<defs>
<linearGradient id="paint0_linear_8435_162316" x1="32" y1="20.8627" x2="32" y2="-0.394666" gradientUnits="userSpaceOnUse">
<stop stop-color="#92A3B0"/>
<stop offset="0.015" stop-color="#A3B5C4"/>
<stop offset="0.032" stop-color="#AEC2D1"/>
<stop offset="0.046" stop-color="#B2C6D6"/>
</linearGradient>
</defs>
</svg>
