<svg width="25" height="28" viewBox="0 0 25 28" fill="none" xmlns="http://www.w3.org/2000/svg">
<path fill-rule="evenodd" clip-rule="evenodd" d="M8.33329 7.33317C8.33329 5.12403 10.1241 3.33317 12.3333 3.33317C14.5424 3.33317 16.3333 5.12403 16.3333 7.33317C16.3333 9.54231 14.5424 11.3332 12.3333 11.3332C10.1241 11.3332 8.33329 9.54231 8.33329 7.33317ZM12.3333 0.666504C8.65139 0.666504 5.66662 3.65127 5.66662 7.33317C5.66662 11.0151 8.65139 13.9998 12.3333 13.9998C16.0152 13.9998 19 11.0151 19 7.33317C19 3.65127 16.0152 0.666504 12.3333 0.666504ZM7.00001 16.6666C5.2319 16.6666 3.53621 17.369 2.28596 18.6192C1.03572 19.8695 0.333344 21.5652 0.333344 23.3333V26C0.333344 26.7363 0.930297 27.3333 1.66668 27.3333C2.40306 27.3333 3.00001 26.7363 3.00001 26V23.3333C3.00001 22.2724 3.42144 21.255 4.17158 20.5049C4.92173 19.7547 5.93915 19.3333 7.00001 19.3333H17.6667C18.7275 19.3333 19.745 19.7547 20.4951 20.5049C21.2453 21.255 21.6667 22.2724 21.6667 23.3333V26C21.6667 26.7363 22.2636 27.3333 23 27.3333C23.7364 27.3333 24.3333 26.7363 24.3333 26V23.3333C24.3333 21.5652 23.631 19.8695 22.3807 18.6192C21.1305 17.369 19.4348 16.6666 17.6667 16.6666H7.00001Z" fill="white"/>
</svg>
