<svg width="24" height="24" viewBox="0 0 24 24" fill="none" xmlns="http://www.w3.org/2000/svg">
<path fill-rule="evenodd" clip-rule="evenodd" d="M7.47452 7.47452C8.67475 6.27428 10.3026 5.6 12 5.6C13.6974 5.6 15.3253 6.27428 16.5255 7.47452C17.7257 8.67475 18.4 10.3026 18.4 12V12.8H16.8C16.1635 12.8 15.553 13.0528 15.1029 13.5029C14.6529 13.953 14.4 14.5635 14.4 15.2V17.6C14.4 18.2365 14.6529 18.847 15.1029 19.297C15.553 19.7471 16.1635 20 16.8 20H17.6C18.2365 20 18.847 19.7471 19.2971 19.297C19.7471 18.847 20 18.2365 20 17.6V16.8V13.6V12C20 9.87827 19.1571 7.84344 17.6569 6.34315C16.1566 4.84285 14.1217 4 12 4C9.87827 4 7.84344 4.84285 6.34315 6.34315C4.84285 7.84344 4 9.87827 4 12V13.6V16.8V17.6C4 18.2365 4.25286 18.847 4.70294 19.297C5.15303 19.7471 5.76348 20 6.4 20H7.2C7.83652 20 8.44697 19.7471 8.89706 19.297C9.34714 18.847 9.6 18.2365 9.6 17.6V15.2C9.6 14.5635 9.34714 13.953 8.89706 13.5029C8.44697 13.0528 7.83652 12.8 7.2 12.8H5.6V12C5.6 10.3026 6.27428 8.67475 7.47452 7.47452ZM5.6 14.4V16.8V17.6C5.6 17.8122 5.68429 18.0156 5.83431 18.1657C5.98434 18.3157 6.18783 18.4 6.4 18.4H7.2C7.41217 18.4 7.61566 18.3157 7.76569 18.1657C7.91571 18.0156 8 17.8122 8 17.6V15.2C8 14.9878 7.91571 14.7843 7.76569 14.6343C7.61566 14.4843 7.41217 14.4 7.2 14.4H5.6ZM18.4 14.4H16.8C16.5878 14.4 16.3843 14.4843 16.2343 14.6343C16.0843 14.7843 16 14.9878 16 15.2V17.6C16 17.8122 16.0843 18.0156 16.2343 18.1657C16.3843 18.3157 16.5878 18.4 16.8 18.4H17.6C17.8122 18.4 18.0157 18.3157 18.1657 18.1657C18.3157 18.0156 18.4 17.8122 18.4 17.6V16.8V14.4Z" fill="white"/>
</svg>
