<svg width="24" height="24" viewBox="0 0 24 24" fill="none" xmlns="http://www.w3.org/2000/svg">
<g id="Icon">
<g id="Vector">
<path d="M12 7.90915C12.4519 7.90915 12.8182 8.27547 12.8182 8.72734V11.1819H15.2727C15.7246 11.1819 16.0909 11.5482 16.0909 12C16.0909 12.4519 15.7246 12.8182 15.2727 12.8182H12.8182V15.2728C12.8182 15.7247 12.4519 16.091 12 16.091C11.5481 16.091 11.1818 15.7247 11.1818 15.2728V12.8182H8.72728C8.27541 12.8182 7.9091 12.4519 7.9091 12C7.9091 11.5482 8.27541 11.1819 8.72728 11.1819H11.1818V8.72734C11.1818 8.27547 11.5481 7.90915 12 7.90915Z" fill="#C5C6D0"/>
<path fill-rule="evenodd" clip-rule="evenodd" d="M3 12C3 7.02944 7.02944 3 12 3C16.9706 3 21 7.02944 21 12C21 16.9706 16.9706 21 12 21C7.02944 21 3 16.9706 3 12ZM12 4.63636C7.93318 4.63636 4.63636 7.93318 4.63636 12C4.63636 16.0668 7.93318 19.3636 12 19.3636C16.0668 19.3636 19.3636 16.0668 19.3636 12C19.3636 7.93318 16.0668 4.63636 12 4.63636Z" fill="#C5C6D0"/>
</g>
</g>
</svg>
