<svg width="46" height="38" viewBox="0 0 46 38" fill="none" xmlns="http://www.w3.org/2000/svg">
<path fill-rule="evenodd" clip-rule="evenodd" d="M10.9334 9.66667C10.9334 6.57387 13.4406 4.06667 16.5334 4.06667C19.6262 4.06667 22.1334 6.57387 22.1334 9.66667C22.1334 12.7595 19.6262 15.2667 16.5334 15.2667C13.4406 15.2667 10.9334 12.7595 10.9334 9.66667ZM16.5334 0.333332C11.3788 0.333332 7.20008 4.51201 7.20008 9.66667C7.20008 14.8213 11.3788 19 16.5334 19C21.6881 19 25.8667 14.8213 25.8667 9.66667C25.8667 4.51201 21.6881 0.333332 16.5334 0.333332ZM10 22.7333C7.52464 22.7333 5.15067 23.7166 3.40034 25.467C1.65 27.2173 0.666666 29.5913 0.666666 32.0666V35.8C0.666666 36.8309 1.5024 37.6666 2.53333 37.6666C3.56426 37.6666 4.4 36.8309 4.4 35.8V32.0666C4.4 30.5814 4.99 29.157 6.0402 28.1068C7.0904 27.0566 8.51479 26.4666 10 26.4666H23.0667C24.5519 26.4666 25.9763 27.0566 27.0265 28.1068C28.0767 29.157 28.6667 30.5814 28.6667 32.0666V35.8C28.6667 36.8309 29.5024 37.6666 30.5333 37.6666C31.5643 37.6666 32.4 36.8309 32.4 35.8V32.0666C32.4 29.5913 31.4167 27.2173 29.6663 25.467C27.916 23.7166 25.542 22.7333 23.0667 22.7333H10ZM37.9999 9.66667C39.0308 9.66667 39.8666 10.5024 39.8666 11.5333V15.2667H43.6001C44.631 15.2667 45.4667 16.1024 45.4667 17.1334C45.4667 18.1643 44.631 19 43.6001 19H39.8666V22.7333C39.8666 23.7643 39.0308 24.6 37.9999 24.6C36.969 24.6 36.1332 23.7643 36.1332 22.7333V19H32.4001C31.3691 19 30.5334 18.1643 30.5334 17.1334C30.5334 16.1024 31.3691 15.2667 32.4001 15.2667H36.1332V11.5333C36.1332 10.5024 36.969 9.66667 37.9999 9.66667Z" fill="#EFF0FA"/>
</svg>
