<svg xmlns="http://www.w3.org/2000/svg" width="24" height="24" fill="none" viewBox="0 0 24 24"><g fill="#C74E5B"><path d="M12 8.798c.434 0 .786.352.786.786v3.145a.786.786 0 0 1-1.572 0V9.584c0-.434.352-.786.786-.786Zm0 6.289a.786.786 0 0 0 0 1.572h.008a.786.786 0 0 0 0-1.572H12Z"/><path fill-rule="evenodd" d="M10.843 4.303a2.359 2.359 0 0 1 3.174.832l.002.004 6.659 11.116.006.011a2.359 2.359 0 0 1-2.017 3.538H5.333a2.358 2.358 0 0 1-2.017-3.538l.006-.01 6.66-11.117.674.404-.673-.408c.21-.346.507-.633.86-.832Zm.486 1.646L4.675 17.057a.786.786 0 0 0 .671 1.175h13.308a.786.786 0 0 0 .67-1.175L12.673 5.951v-.002a.786.786 0 0 0-1.343 0Z" clip-rule="evenodd"/></g></svg>