<svg width="20" height="20" viewBox="0 0 20 20" fill="none" xmlns="http://www.w3.org/2000/svg">
<g id="Icon/Left">
<g id="Vector">
<path d="M7.27273 9.31817C6.89617 9.31817 6.59091 9.62343 6.59091 9.99999C6.59091 10.3765 6.89617 10.6818 7.27273 10.6818H12.7273C13.1038 10.6818 13.4091 10.3765 13.4091 9.99999C13.4091 9.62343 13.1038 9.31817 12.7273 9.31817H7.27273Z" fill="#C74E5B"/>
<path fill-rule="evenodd" clip-rule="evenodd" d="M10 2.5C5.85786 2.5 2.5 5.85786 2.5 10C2.5 14.1421 5.85786 17.5 10 17.5C14.1421 17.5 17.5 14.1421 17.5 10C17.5 5.85786 14.1421 2.5 10 2.5ZM3.86364 10C3.86364 6.61098 6.61098 3.86364 10 3.86364C13.389 3.86364 16.1364 6.61098 16.1364 10C16.1364 13.389 13.389 16.1364 10 16.1364C6.61098 16.1364 3.86364 13.389 3.86364 10Z" fill="#C74E5B"/>
</g>
</g>
</svg>
