<svg xmlns="http://www.w3.org/2000/svg" width="24" height="24" fill="none" viewBox="0 0 24 24"><g fill="#EFF0FA"><path fill-rule="evenodd" d="M9.596 3.062a.818.818 0 0 1 .892.178l4.09 4.09c.32.32.32.838 0 1.158L11.066 12l3.512 3.512c.32.32.32.838 0 1.157l-4.09 4.091a.818.818 0 0 1-1.397-.578v-6.207L6.397 16.67a.818.818 0 1 1-1.157-1.157L8.752 12 5.24 8.488A.818.818 0 1 1 6.397 7.33l2.694 2.694V3.818c0-.33.2-.63.505-.756Zm1.131 10.913 2.116 2.116-2.116 2.115v-4.23Zm0-3.95V5.793l2.116 2.116-2.116 2.116Z" clip-rule="evenodd"/><path d="M16.555 9.106a.818.818 0 0 1 1.157 0 4.09 4.09 0 0 1 0 5.788.818.818 0 1 1-1.157-1.158 2.457 2.457 0 0 0 0-3.473.818.818 0 0 1 0-1.157Zm-1.737 2.076a.818.818 0 1 0 0 1.636h.008a.818.818 0 1 0 0-1.636h-.008Z"/></g></svg>