<svg xmlns="http://www.w3.org/2000/svg" width="20" height="12" fill="none" viewBox="0 0 20 12"><path fill="#fff" d="M.375 11.5V.5h2.428c.532 0 .982.077 1.352.232.38.154.69.36.928.618.24.257.408.556.505.896.109.33.163.674.163 1.035v.402c0 .298-.027.55-.081.757a1.632 1.632 0 0 1-.212.54c-.185.289-.467.536-.847.742.39.175.679.432.863.772.185.34.277.804.277 1.39v.619c0 .968-.25 1.71-.75 2.224-.488.515-1.275.773-2.361.773H.375Zm1.662-5.098v3.522h.717c.336 0 .597-.046.782-.139a.984.984 0 0 0 .44-.386c.097-.165.157-.36.179-.587.021-.227.032-.474.032-.742 0-.278-.016-.52-.049-.726a1.28 1.28 0 0 0-.195-.525.887.887 0 0 0-.44-.31c-.185-.071-.429-.107-.733-.107h-.733Zm0-4.419v3.028h.75c.553 0 .922-.129 1.107-.386.196-.268.293-.654.293-1.159 0-.494-.108-.865-.326-1.112-.206-.247-.586-.37-1.14-.37h-.684Zm6.937 0v3.43h.945c.293 0 .526-.036.7-.108a.993.993 0 0 0 .407-.34c.087-.144.147-.32.18-.525a5.02 5.02 0 0 0 .049-.742c0-.278-.017-.52-.05-.726a1.425 1.425 0 0 0-.195-.556c-.206-.289-.597-.433-1.173-.433h-.863ZM7.312 11.5V.5h2.672c1.955 0 2.932 1.076 2.932 3.229 0 .649-.108 1.2-.326 1.653-.206.453-.575.819-1.107 1.097l1.792 5.021h-1.76L9.967 6.803h-.993V11.5H7.312Zm6.937 0V.5h2.427c.532 0 .983.077 1.352.232.38.154.69.36.929.618.239.257.407.556.505.896.109.33.163.674.163 1.035v.402c0 .298-.027.55-.081.757a1.63 1.63 0 0 1-.212.54c-.185.289-.467.536-.847.742.39.175.678.432.863.772.185.34.277.804.277 1.39v.619c0 .968-.25 1.71-.75 2.224-.488.515-1.276.773-2.362.773H14.25Zm1.661-5.098v3.522h.717c.337 0 .598-.046.782-.139a.984.984 0 0 0 .44-.386c.098-.165.158-.36.18-.587.021-.227.032-.474.032-.742 0-.278-.016-.52-.049-.726a1.28 1.28 0 0 0-.195-.525.887.887 0 0 0-.44-.31c-.185-.071-.43-.107-.733-.107h-.734Zm0-4.419v3.028h.75c.554 0 .923-.129 1.108-.386.195-.268.293-.654.293-1.159 0-.494-.109-.865-.326-1.112-.206-.247-.586-.37-1.14-.37h-.685Z"/></svg>