<svg xmlns="http://www.w3.org/2000/svg" width="24" height="24" fill="none" viewBox="0 0 24 24"><path fill="#fff" fill-rule="evenodd" d="M9.825 4.094a.889.889 0 0 1 1.192.398l.65 1.298a4.51 4.51 0 0 1 .666 0l.65-1.298a.889.889 0 0 1 1.59.795l-.502 1.002a4.465 4.465 0 0 1 1.807 1.761l1.851-1.234a.889.889 0 1 1 .986 1.48L16.426 9.82c.012.132.018.266.018.401V12h2.667a.889.889 0 0 1 0 1.778h-2.667v1.778c0 .135-.006.269-.018.4l2.29 1.527a.889.889 0 0 1-.987 1.479l-1.85-1.234A4.443 4.443 0 0 1 11.998 20a4.443 4.443 0 0 1-3.877-2.272L6.27 18.962a.889.889 0 0 1-.986-1.48l2.288-1.525a4.5 4.5 0 0 1-.017-.401v-1.778H4.889a.889.889 0 0 1 0-1.778h2.667v-1.778c0-.135.006-.269.017-.4L5.285 8.294a.889.889 0 1 1 .986-1.479L8.12 8.05a4.465 4.465 0 0 1 1.807-1.76l-.5-1.003a.889.889 0 0 1 .397-1.193ZM12 7.556a2.667 2.667 0 0 0-2.667 2.666v5.334a2.667 2.667 0 1 0 5.333 0v-5.334A2.667 2.667 0 0 0 12 7.556Z" clip-rule="evenodd"/></svg>