<svg xmlns="http://www.w3.org/2000/svg" width="32" height="32" fill="none" viewBox="0 0 32 32"><path fill="#fff" fill-rule="evenodd" d="M24 5.333H9.333A6.667 6.667 0 0 0 2.667 12v8a6.667 6.667 0 0 0 6.666 6.667H24A6.667 6.667 0 0 0 30.666 20v-8A6.667 6.667 0 0 0 24 5.333M9.442 20.073q1.02.593 2.442.593 1.192 0 2.077-.411a3.47 3.47 0 0 0 1.397-1.154q.513-.741.594-1.7h-2.14a1.96 1.96 0 0 1-.364.83 1.76 1.76 0 0 1-.662.523 2.1 2.1 0 0 1-.884.176q-.699 0-1.218-.353-.513-.358-.797-1.018-.285-.665-.285-1.589 0-.912.285-1.565.29-.653.81-1a2.1 2.1 0 0 1 1.205-.353q.81 0 1.292.44.489.436.619 1.09h2.139q-.075-.977-.606-1.707a3.46 3.46 0 0 0-1.428-1.136q-.89-.406-2.047-.406-1.39 0-2.41.595a4.03 4.03 0 0 0-1.571 1.647q-.557 1.054-.557 2.43 0 1.372.544 2.425a4.05 4.05 0 0 0 1.564 1.642m10.048 0q1.02.593 2.442.593 1.193 0 2.077-.411a3.47 3.47 0 0 0 1.397-1.154q.514-.741.594-1.7h-2.14a1.96 1.96 0 0 1-.364.83 1.76 1.76 0 0 1-.662.523 2.1 2.1 0 0 1-.884.176q-.697 0-1.218-.353-.513-.358-.797-1.018-.285-.665-.285-1.589 0-.912.285-1.565.29-.653.81-1a2.1 2.1 0 0 1 1.205-.353q.81 0 1.293.44.487.436.618 1.09H26q-.075-.977-.606-1.707a3.46 3.46 0 0 0-1.428-1.136q-.89-.406-2.047-.406-1.39 0-2.41.595a4.03 4.03 0 0 0-1.571 1.647q-.557 1.054-.557 2.43 0 1.372.544 2.425a4.05 4.05 0 0 0 1.565 1.642" clip-rule="evenodd"/></svg>