<svg xmlns="http://www.w3.org/2000/svg" width="26" height="20" fill="none" viewBox="0 0 26 20"><path fill="#fff" fill-rule="evenodd" d="M6.032.667h13.27c3.33 0 6.031 2.7 6.031 6.031v7.239c0 3.33-2.7 6.031-6.031 6.031H6.032A6.03 6.03 0 0 1 0 13.937V6.698C0 3.368 2.7.667 6.032.667M1.81 6.698a4.22 4.22 0 0 1 4.222-4.222h13.27a4.22 4.22 0 0 1 4.222 4.222v7.239a4.22 4.22 0 0 1-4.222 4.222H6.032a4.22 4.22 0 0 1-4.222-4.222z" clip-rule="evenodd"/><path fill="#fff" d="M8.34 14.54q-1.288 0-2.21-.538a3.66 3.66 0 0 1-1.416-1.486q-.492-.953-.492-2.193 0-1.245.504-2.2a3.65 3.65 0 0 1 1.42-1.49q.924-.538 2.182-.538 1.046 0 1.852.368.81.361 1.292 1.027.48.66.548 1.544h-1.936a1.74 1.74 0 0 0-.559-.985q-.435-.4-1.17-.4-.62 0-1.09.32-.47.315-.733.906-.257.591-.257 1.416 0 .835.257 1.437.258.597.722.922.47.32 1.102.319.447 0 .8-.16.358-.165.598-.474t.33-.75h1.936a3.1 3.1 0 0 1-.537 1.538 3.14 3.14 0 0 1-1.264 1.044q-.8.372-1.88.373m9.091 0q-1.286 0-2.21-.538a3.66 3.66 0 0 1-1.414-1.486q-.493-.953-.493-2.193 0-1.245.504-2.2a3.65 3.65 0 0 1 1.42-1.49q.924-.538 2.182-.538 1.046 0 1.852.368.81.361 1.292 1.027.48.66.548 1.544h-1.935a1.74 1.74 0 0 0-.56-.985q-.435-.4-1.169-.4-.62 0-1.09.32-.47.315-.733.906-.258.591-.258 1.416 0 .835.258 1.437.257.597.721.922.47.32 1.102.319.448 0 .8-.16.358-.165.599-.474.24-.309.33-.75h1.935a3.1 3.1 0 0 1-.537 1.538 3.14 3.14 0 0 1-1.264 1.044q-.8.372-1.88.373"/></svg>