<svg width="16" height="13" viewBox="0 0 16 13" fill="none" xmlns="http://www.w3.org/2000/svg">
<path fill-rule="evenodd" clip-rule="evenodd" d="M12.0635 0.166626H3.76984C1.68782 0.166626 0 1.85444 0 3.93647V8.46028C0 10.5423 1.68782 12.2301 3.76984 12.2301H12.0635C14.1455 12.2301 15.8333 10.5423 15.8333 8.46028V3.93647C15.8333 1.85444 14.1455 0.166626 12.0635 0.166626ZM3.83084 8.50114C4.21541 8.7252 4.67573 8.83724 5.21179 8.83724C5.66162 8.83724 6.05318 8.75959 6.38648 8.6043C6.71977 8.44678 6.98314 8.22937 7.17659 7.95206C7.37004 7.67253 7.48192 7.35196 7.51222 6.99035H6.30257C6.26528 7.17448 6.19652 7.33089 6.0963 7.45956C5.99608 7.58823 5.87139 7.68695 5.72222 7.75573C5.57539 7.82228 5.40874 7.85556 5.22228 7.85556C4.95891 7.85556 4.72933 7.789 4.53355 7.65589C4.3401 7.52057 4.18977 7.32867 4.08256 7.0802C3.97534 6.82951 3.92174 6.53001 3.92174 6.18171C3.92174 5.83784 3.97534 5.54279 4.08256 5.29653C4.1921 5.05028 4.34476 4.86171 4.54054 4.73082C4.73633 4.59771 4.96357 4.53116 5.22228 4.53116C5.52761 4.53116 5.77117 4.61435 5.95296 4.78074C6.13709 4.9449 6.25363 5.15011 6.30257 5.39637H7.51222C7.48425 5.0281 7.37004 4.70642 7.1696 4.43132C6.96916 4.15401 6.69996 3.93993 6.36201 3.78907C6.02638 3.636 5.64065 3.55946 5.2048 3.55946C4.68039 3.55946 4.2259 3.67149 3.84133 3.89556C3.45909 4.11741 3.16309 4.428 2.95332 4.82732C2.74356 5.22443 2.63867 5.68255 2.63867 6.20168C2.63867 6.71858 2.74123 7.17559 2.94633 7.5727C3.15376 7.96759 3.4486 8.27707 3.83084 8.50114ZM9.51285 8.50114C9.89742 8.7252 10.3577 8.83724 10.8938 8.83724C11.3436 8.83724 11.7352 8.75959 12.0685 8.6043C12.4018 8.44678 12.6652 8.22937 12.8586 7.95206C13.0521 7.67253 13.1639 7.35196 13.1942 6.99035H11.9846C11.9473 7.17448 11.8785 7.33089 11.7783 7.45956C11.6781 7.58823 11.5534 7.68695 11.4042 7.75573C11.2574 7.82228 11.0908 7.85556 10.9043 7.85556C10.6409 7.85556 10.4113 7.789 10.2156 7.65589C10.0221 7.52057 9.87178 7.32867 9.76457 7.0802C9.65736 6.82951 9.60375 6.53001 9.60375 6.18171C9.60375 5.83784 9.65736 5.54279 9.76457 5.29653C9.87411 5.05028 10.0268 4.86171 10.2226 4.73082C10.4183 4.59771 10.6456 4.53116 10.9043 4.53116C11.2096 4.53116 11.4532 4.61435 11.635 4.78074C11.8191 4.9449 11.9356 5.15011 11.9846 5.39637H13.1942C13.1663 5.0281 13.0521 4.70642 12.8516 4.43132C12.6512 4.15401 12.382 3.93993 12.044 3.78907C11.7084 3.636 11.3227 3.55946 10.8868 3.55946C10.3624 3.55946 9.90791 3.67149 9.52334 3.89556C9.1411 4.11741 8.8451 4.428 8.63533 4.82732C8.42557 5.22443 8.32069 5.68255 8.32069 6.20168C8.32069 6.71858 8.42324 7.17559 8.62834 7.5727C8.83578 7.96759 9.13061 8.27707 9.51285 8.50114Z" fill="#EFF0FA"/>
</svg>
