<svg width="16" height="13" viewBox="0 0 16 13" fill="none" xmlns="http://www.w3.org/2000/svg">
<path fill-rule="evenodd" clip-rule="evenodd" d="M3.76984 0.166748H12.0635C14.1455 0.166748 15.8333 1.85456 15.8333 3.93659V8.4604C15.8333 10.5424 14.1455 12.2302 12.0635 12.2302H3.76984C1.68782 12.2302 0 10.5424 0 8.4604V3.93659C0 1.85456 1.68782 0.166748 3.76984 0.166748ZM1.13095 3.93659C1.13095 2.47917 2.31242 1.2977 3.76984 1.2977H12.0635C13.5209 1.2977 14.7024 2.47917 14.7024 3.93659V8.4604C14.7024 9.91782 13.5209 11.0993 12.0635 11.0993H3.76984C2.31242 11.0993 1.13095 9.91782 1.13095 8.4604V3.93659Z" fill="#EFF0FA"/>
<path d="M5.21213 8.83735C4.67606 8.83735 4.21574 8.72531 3.83117 8.50125C3.44893 8.27718 3.1541 7.9677 2.94666 7.57281C2.74156 7.1757 2.63901 6.71869 2.63901 6.20179C2.63901 5.68266 2.74389 5.22454 2.95366 4.82743C3.16342 4.42811 3.45942 4.11752 3.84166 3.89567C4.22623 3.6716 4.68072 3.55957 5.20513 3.55957C5.64098 3.55957 6.02671 3.63611 6.36234 3.78918C6.70029 3.94004 6.96949 4.15412 7.16993 4.43144C7.37038 4.70653 7.48458 5.02821 7.51255 5.39648H6.3029C6.25396 5.15022 6.13742 4.94501 5.9533 4.78085C5.7715 4.61446 5.52794 4.53127 5.22261 4.53127C4.9639 4.53127 4.73666 4.59782 4.54088 4.73093C4.3451 4.86182 4.19243 5.05039 4.08289 5.29664C3.97568 5.5429 3.92207 5.83795 3.92207 6.18182C3.92207 6.53012 3.97568 6.82962 4.08289 7.08031C4.1901 7.32878 4.34044 7.52068 4.53389 7.656C4.72967 7.78911 4.95924 7.85567 5.22261 7.85567C5.40907 7.85567 5.57572 7.82239 5.72255 7.75584C5.87172 7.68706 5.99641 7.58834 6.09664 7.45967C6.19686 7.331 6.26561 7.17459 6.3029 6.99046H7.51255C7.48225 7.35207 7.37038 7.67264 7.17693 7.95217C6.98348 8.22948 6.7201 8.4469 6.38681 8.60441C6.05352 8.7597 5.66196 8.83735 5.21213 8.83735Z" fill="#EFF0FA"/>
<path d="M10.8941 8.83735C10.3581 8.83735 9.89775 8.72531 9.51318 8.50125C9.13095 8.27718 8.83611 7.9677 8.62868 7.57281C8.42357 7.1757 8.32102 6.71869 8.32102 6.20179C8.32102 5.68266 8.4259 5.22454 8.63567 4.82743C8.84543 4.42811 9.14143 4.11752 9.52367 3.89567C9.90824 3.6716 10.3627 3.55957 10.8871 3.55957C11.323 3.55957 11.7087 3.63611 12.0444 3.78918C12.3823 3.94004 12.6515 4.15412 12.8519 4.43144C13.0524 4.70653 13.1666 5.02821 13.1946 5.39648H11.9849C11.936 5.15022 11.8194 4.94501 11.6353 4.78085C11.4535 4.61446 11.21 4.53127 10.9046 4.53127C10.6459 4.53127 10.4187 4.59782 10.2229 4.73093C10.0271 4.86182 9.87445 5.05039 9.7649 5.29664C9.65769 5.5429 9.60408 5.83795 9.60408 6.18182C9.60408 6.53012 9.65769 6.82962 9.7649 7.08031C9.87212 7.32878 10.0224 7.52068 10.2159 7.656C10.4117 7.78911 10.6413 7.85567 10.9046 7.85567C11.0911 7.85567 11.2577 7.82239 11.4046 7.75584C11.5537 7.68706 11.6784 7.58834 11.7786 7.45967C11.8789 7.331 11.9476 7.17459 11.9849 6.99046H13.1946C13.1643 7.35207 13.0524 7.67264 12.8589 7.95217C12.6655 8.22948 12.4021 8.4469 12.0688 8.60441C11.7355 8.7597 11.344 8.83735 10.8941 8.83735Z" fill="#EFF0FA"/>
</svg>
