<svg xmlns="http://www.w3.org/2000/svg" width="20" height="20" fill="none" viewBox="0 0 20 20"><g fill="#EFF0FA" fill-rule="evenodd" clip-rule="evenodd"><path d="M8.017 6.406a2.804 2.804 0 1 1 3.966 3.966 2.804 2.804 0 0 1-3.966-3.966ZM10 6.835a1.554 1.554 0 1 0 0 3.108 1.554 1.554 0 0 0 0-3.108Zm0 6.36a3.493 3.493 0 0 0-3.456 2.988l-1.237-.181a4.744 4.744 0 0 1 9.386 0l-1.237.18A3.494 3.494 0 0 0 10 13.197Z"/><path d="M16.59 4.521H3.41a.417.417 0 0 0-.416.417v10.124c0 .23.186.417.416.417h13.18c.23 0 .416-.187.416-.417V4.938a.417.417 0 0 0-.416-.417ZM3.41 3.271c-.92 0-1.666.746-1.666 1.667v10.124c0 .92.746 1.667 1.666 1.667h13.18c.92 0 1.666-.746 1.666-1.667V4.938c0-.92-.746-1.667-1.666-1.667H3.41Z"/></g></svg>