<svg width="20" height="20" viewBox="0 0 20 20" fill="none" xmlns="http://www.w3.org/2000/svg">
<g id="Icon/Left">
<path id="Vector" fill-rule="evenodd" clip-rule="evenodd" d="M15.9367 4.06334C15.8088 3.93547 15.6354 3.86364 15.4545 3.86364H9.31818C9.13735 3.86364 8.96393 3.93547 8.83606 4.06334C8.7082 4.1912 8.63636 4.36463 8.63636 4.54545V5.22727C8.63636 5.60383 8.3311 5.90909 7.95454 5.90909C7.57799 5.90909 7.27273 5.60383 7.27273 5.22727V4.54545C7.27273 4.00297 7.48823 3.4827 7.87183 3.0991C8.25542 2.7155 8.77569 2.5 9.31818 2.5H15.4545C15.997 2.5 16.5173 2.7155 16.9009 3.0991C17.2845 3.4827 17.5 4.00297 17.5 4.54545V10.6818C17.5 11.2243 17.2845 11.7446 16.9009 12.1282C16.5173 12.5118 15.997 12.7273 15.4545 12.7273H14.7727C14.3962 12.7273 14.0909 12.422 14.0909 12.0455C14.0909 11.6689 14.3962 11.3636 14.7727 11.3636H15.4545C15.6354 11.3636 15.8088 11.2918 15.9367 11.1639C16.0645 11.0361 16.1364 10.8626 16.1364 10.6818V4.54545C16.1364 4.36462 16.0645 4.1912 15.9367 4.06334ZM11.3636 9.31819C11.3636 8.94164 11.0584 8.63638 10.6818 8.63638H4.54545C4.1689 8.63638 3.86363 8.94164 3.86363 9.31819V15.4546C3.86363 15.8311 4.1689 16.1364 4.54545 16.1364H10.6818C11.0584 16.1364 11.3636 15.8311 11.3636 15.4546V9.31819ZM10.6818 7.27274C11.8115 7.27274 12.7273 8.18852 12.7273 9.31819V15.4546C12.7273 16.5842 11.8115 17.5 10.6818 17.5H4.54545C3.41578 17.5 2.5 16.5842 2.5 15.4546V9.31819C2.5 8.18852 3.41578 7.27274 4.54545 7.27274H10.6818Z" fill="#EFF0FA"/>
</g>
</svg>
