<svg width="20" height="20" viewBox="0 0 20 20" fill="none" xmlns="http://www.w3.org/2000/svg">
<path d="M9.99993 14.3936C9.62338 14.3936 9.31812 14.6988 9.31812 15.0754C9.31812 15.4519 9.62338 15.7572 9.99993 15.7572H10.0068C10.3833 15.7572 10.6886 15.4519 10.6886 15.0754C10.6886 14.6988 10.3833 14.3936 10.0068 14.3936H9.99993Z" fill="#C74E5B"/>
<path d="M8.09097 13.176C8.60078 12.6763 9.28619 12.3964 10.0001 12.3964C10.7139 12.3964 11.3993 12.6763 11.9092 13.176C12.1781 13.4396 12.6098 13.4352 12.8733 13.1663C13.1369 12.8974 13.1326 12.4657 12.8637 12.2021C12.099 11.4526 11.0709 11.0327 10.0001 11.0327C8.92926 11.0327 7.90114 11.4526 7.13643 12.2021C6.86751 12.4657 6.8632 12.8974 7.12679 13.1663C7.39038 13.4352 7.82206 13.4396 8.09097 13.176Z" fill="#C74E5B"/>
<path d="M5.70462 10.7896C6.85168 9.66529 8.39386 9.03551 10.0001 9.03551C11.6063 9.03551 13.1485 9.66529 14.2955 10.7896C14.5644 11.0532 14.9961 11.0489 15.2597 10.78C15.5233 10.5111 15.519 10.0794 15.2501 9.8158C13.8481 8.4416 11.9632 7.67188 10.0001 7.67188C8.03693 7.67188 6.15204 8.4416 4.75008 9.8158C4.48116 10.0794 4.47684 10.5111 4.74043 10.78C5.00403 11.0489 5.43571 11.0532 5.70462 10.7896Z" fill="#C74E5B"/>
<path d="M10 5.53038C7.65204 5.53038 5.38644 6.39576 3.63637 7.96107C3.3557 8.21211 2.92467 8.18809 2.67363 7.90742C2.42259 7.62675 2.44661 7.19572 2.72728 6.94468C4.72736 5.15575 7.31661 4.16675 10 4.16675C12.6834 4.16675 15.2726 5.15575 17.2727 6.94468C17.5534 7.19572 17.5774 7.62675 17.3264 7.90742C17.0753 8.18809 16.6443 8.21211 16.3636 7.96107C14.6136 6.39576 12.348 5.53038 10 5.53038Z" fill="#C74E5B"/>
</svg>
