<svg xmlns="http://www.w3.org/2000/svg" width="20" height="20" fill="none" viewBox="0 0 20 20"><path fill="#C74E5B" d="M10 14.394a.682.682 0 1 0 0 1.363h.007a.682.682 0 0 0 0-1.363H10Zm-1.909-1.218a2.727 2.727 0 0 1 3.818 0 .682.682 0 1 0 .955-.974 4.091 4.091 0 0 0-5.728 0 .682.682 0 0 0 .955.974Z"/><path fill="#C74E5B" d="M5.705 10.79a6.136 6.136 0 0 1 8.59 0 .682.682 0 0 0 .955-.974 7.5 7.5 0 0 0-10.5 0 .682.682 0 1 0 .955.974Z"/><path fill="#C74E5B" d="M10 5.53a9.545 9.545 0 0 0-6.364 2.431.682.682 0 1 1-.909-1.016 10.91 10.91 0 0 1 14.546 0 .682.682 0 1 1-.91 1.016A9.545 9.545 0 0 0 10 5.531Z"/></svg>