<svg width="24" height="24" viewBox="0 0 24 24" fill="none" xmlns="http://www.w3.org/2000/svg">
<g id="Icon">
<path id="Vector" fill-rule="evenodd" clip-rule="evenodd" d="M9.9669 4.876C10.1203 4.72256 10.3285 4.63636 10.5454 4.63636H13.8182C14.0352 4.63636 14.2433 4.72256 14.3967 4.876C14.5502 5.02944 14.6364 5.23755 14.6364 5.45455V6.27271H9.72726V5.45455C9.72726 5.23755 9.81347 5.02944 9.9669 4.876ZM8.0909 6.27271V5.45455C8.0909 4.80356 8.3495 4.17924 8.80982 3.71892C9.27014 3.2586 9.89446 3 10.5454 3H13.8182C14.4692 3 15.0935 3.2586 15.5538 3.71892C16.0141 4.17924 16.2727 4.80356 16.2727 5.45455V6.27271H19.5455C19.9973 6.27271 20.3636 6.63902 20.3636 7.09089C20.3636 7.54276 19.9973 7.90907 19.5455 7.90907H18.7273V18.5455C18.7273 19.1964 18.4687 19.8208 18.0083 20.2811C17.548 20.7414 16.9237 21 16.2727 21H8.0909C7.43991 21 6.81559 20.7414 6.35528 20.2811C5.89496 19.8208 5.63636 19.1964 5.63636 18.5455V7.90907H4.81818C4.36631 7.90907 4 7.54276 4 7.09089C4 6.63902 4.36631 6.27271 4.81818 6.27271H8.0909ZM7.27272 18.5455V7.90909H17.0909V18.5455C17.0909 18.7624 17.0047 18.9706 16.8513 19.124C16.6978 19.2774 16.4897 19.3636 16.2727 19.3636H8.0909C7.87391 19.3636 7.6658 19.2774 7.51236 19.124C7.35892 18.9706 7.27272 18.7625 7.27272 18.5455ZM10.5455 10.3636C10.9973 10.3636 11.3637 10.73 11.3637 11.1818V16.0909C11.3637 16.5428 10.9973 16.9091 10.5455 16.9091C10.0936 16.9091 9.72729 16.5428 9.72729 16.0909V11.1818C9.72729 10.73 10.0936 10.3636 10.5455 10.3636ZM14.6364 11.1818C14.6364 10.73 14.2701 10.3636 13.8182 10.3636C13.3663 10.3636 13 10.73 13 11.1818V16.0909C13 16.5428 13.3663 16.9091 13.8182 16.9091C14.2701 16.9091 14.6364 16.5428 14.6364 16.0909V11.1818Z" fill="#8F9099"/>
</g>
</svg>
