<svg xmlns="http://www.w3.org/2000/svg" width="24" height="24" fill="none" viewBox="0 0 24 24"><path fill="#EFF0FA" d="M18.508 21c-.074 0-.148 0-.23-.008a17.141 17.141 0 0 1-7.453-2.651 16.892 16.892 0 0 1-5.171-5.171A17.128 17.128 0 0 1 3.011 5.7a2.438 2.438 0 0 1 .632-1.896A2.489 2.489 0 0 1 5.465 3h2.463a2.52 2.52 0 0 1 1.625.6c.451.385.747.927.829 1.518.098.73.279 1.452.533 2.134a2.4 2.4 0 0 1 .099 1.379c-.099.46-.329.886-.657 1.214l-.59.591a12.403 12.403 0 0 0 3.767 3.768l.59-.591a2.385 2.385 0 0 1 1.224-.657 2.47 2.47 0 0 1 1.379.099 9.96 9.96 0 0 0 2.125.533 2.46 2.46 0 0 1 2.126 2.487v2.454c0 .345-.066.674-.205.994-.14.311-.345.599-.591.829-.254.23-.55.41-.878.517-.263.09-.525.131-.796.131ZM7.944 4.642H5.465a.767.767 0 0 0-.328.073.732.732 0 0 0-.28.19.671.671 0 0 0-.172.295.926.926 0 0 0-.04.336 15.58 15.58 0 0 0 2.388 6.747 15.328 15.328 0 0 0 4.678 4.679 15.524 15.524 0 0 0 6.731 2.396.883.883 0 0 0 .32-.04.9.9 0 0 0 .296-.173.668.668 0 0 0 .197-.28.794.794 0 0 0 .065-.336v-2.478a.796.796 0 0 0-.197-.55.792.792 0 0 0-.509-.28 11.412 11.412 0 0 1-2.479-.615.803.803 0 0 0-.46-.033.807.807 0 0 0-.41.222l-1.034 1.042a.82.82 0 0 1-.985.132A14.042 14.042 0 0 1 8.01 10.74c-.173-.345-.123-.747.14-1.01l1.042-1.042a.799.799 0 0 0 .213-.402.798.798 0 0 0-.033-.46 11.385 11.385 0 0 1-.624-2.487.822.822 0 0 0-.27-.5.838.838 0 0 0-.534-.197Z"/></svg>