<svg xmlns="http://www.w3.org/2000/svg" width="185" height="132" fill="none" viewBox="0 0 185 132"><path fill="#444954" fill-rule="evenodd" d="M145.385 90.9a2.69 2.69 0 0 1 1.548-.652h.013l22.909-1.587a1.885 1.885 0 0 1 1.746.912l.002.003a1.878 1.878 0 0 1-.023 1.968l-12.23 19.459a2.688 2.688 0 0 1-2.984 1.133 2.688 2.688 0 0 1-1.968-2.513v-.043l.098-9.773-8.65-4.521-.038-.021a2.69 2.69 0 0 1-.423-4.365Zm22.556-.391-20.838 1.886a.543.543 0 0 0-.478.419.541.541 0 0 0 .243.576l8.892 4.406 12.181-7.287ZM156.82 99.67l12.227-7.315-11.509 17.483a.537.537 0 0 1-.987-.264l.269-9.904Z" clip-rule="evenodd"/><path stroke="#293042" stroke-dasharray="5.98 5.98" stroke-width="2.244" d="M83.825 34.916C72.218 46.602 51.71 75.018 62.529 95.192c13.525 25.218 78.424-16.394 53.335-28.026-25.088-11.633-49.482 54.352-13.796 52.725 14.83-1.771 29.653-5.692 44.135-14.879"/><rect width="173.524" height="58.34" x=".503" fill="#272A31" rx="29.17"/><rect width="110.696" height="4.488" x="25.185" y="20.375" fill="#444954" opacity=".4" rx="2.244"/><rect width="109.948" height="4.488" x="38.648" y="33.838" fill="#444954" opacity=".4" rx="2.244"/><path fill="#272A31" d="M40.892 71.055 28.924 54.6H52.86L40.892 71.055Z"/></svg>