<svg xmlns="http://www.w3.org/2000/svg" width="34" height="40" fill="none" viewBox="0 0 34 40"><path fill="#66A1FF" d="M33.384 18.081c0-2.626-1.647-5.023-4.639-6.75L11.692 1.485C8.701-.243 5.8-.471 3.526.843 1.252 2.156 0 4.78 0 8.235v19.691c0 2.96.959 5.381 2.7 6.818 1.122.926 2.532 1.407 4.071 1.407h.026c.48 1.389 1.324 2.466 2.49 3.139a5.37 5.37 0 0 0 2.714.71c1.282 0 2.665-.408 4.069-1.218l13.485-7.786c2.277-1.314 3.63-3.15 3.81-5.167.123-1.381-.317-2.737-1.254-3.928.835-1.173 1.273-2.466 1.273-3.821v.001Zm-3.113 7.473c-.087.98-.894 1.959-2.27 2.754l-13.485 7.786c-1.448.836-2.788 1.02-3.677.507-.889-.514-1.399-1.767-1.399-3.438V17.59c0-1.672.51-2.925 1.399-3.438.331-.191.725-.285 1.163-.285.74 0 1.605.268 2.515.792l1.339.774c.12.077.294.38.302.52v8.067c0 1.987.785 3.579 2.152 4.369 1.367.788 3.138.672 4.86-.323l5.576-3.236c.401-.23.777-.474 1.129-.728.269.42.446.91.397 1.451h-.001Zm-1.274-4.766c-.048.04-.092.084-.134.132a8.766 8.766 0 0 1-1.672 1.224l-5.575 3.235c-.723.417-1.38.538-1.755.32-.375-.216-.599-.844-.599-1.68v-8.067c0-1.238-.779-2.587-1.851-3.207l-1.341-.774c-2.47-1.426-4.879-1.606-6.783-.507-1.903 1.1-2.951 3.274-2.951 6.127v15.434a3.074 3.074 0 0 1-1.66-.676c-1.013-.837-1.572-2.407-1.572-4.424V8.235c0-2.297.701-3.969 1.975-4.704.49-.282 1.058-.423 1.684-.423 1.001 0 2.152.358 3.377 1.065l17.053 9.846c1.991 1.15 3.086 2.592 3.086 4.062 0 .937-.445 1.862-1.282 2.707Z"/></svg>