<svg width="20" height="20" viewBox="0 0 20 20" fill="none" xmlns="http://www.w3.org/2000/svg">
<g id="Icon/Left">
<g id="Vector">
<path fill-rule="evenodd" clip-rule="evenodd" d="M9.99999 4.16675C8.31245 4.16675 6.94443 5.53477 6.94443 7.2223C6.94443 8.90984 8.31245 10.2779 9.99999 10.2779C11.6875 10.2779 13.0555 8.90984 13.0555 7.2223C13.0555 5.53477 11.6875 4.16675 9.99999 4.16675ZM8.16665 7.2223C8.16665 6.20978 8.98746 5.38897 9.99999 5.38897C11.0125 5.38897 11.8333 6.20978 11.8333 7.2223C11.8333 8.23482 11.0125 9.05564 9.99999 9.05564C8.98746 9.05564 8.16665 8.23482 8.16665 7.2223Z" fill="#C5C6D0"/>
<path d="M7.55553 11.5001C6.74515 11.5001 5.96796 11.822 5.39493 12.395C4.8219 12.968 4.49998 13.7452 4.49998 14.5556V15.7778C4.49998 16.1154 4.77358 16.389 5.11109 16.389C5.4486 16.389 5.7222 16.1154 5.7222 15.7778V14.5556C5.7222 14.0694 5.91535 13.6031 6.25917 13.2593C6.60299 12.9154 7.0693 12.7223 7.55553 12.7223H12.4444C12.9307 12.7223 13.397 12.9154 13.7408 13.2593C14.0846 13.6031 14.2778 14.0694 14.2778 14.5556V15.7778C14.2778 16.1154 14.5514 16.389 14.8889 16.389C15.2264 16.389 15.5 16.1154 15.5 15.7778V14.5556C15.5 13.7452 15.1781 12.968 14.605 12.395C14.032 11.822 13.2548 11.5001 12.4444 11.5001H7.55553Z" fill="#C5C6D0"/>
<path d="M16.1305 12.0379C16.2149 11.7111 16.5482 11.5146 16.875 11.599C17.5305 11.7682 18.1112 12.1504 18.526 12.6854C18.9408 13.2205 19.1661 13.8782 19.1666 14.5552V15.7779C19.1666 16.1154 18.893 16.389 18.5555 16.389C18.218 16.389 17.9444 16.1154 17.9444 15.7779V14.5561C17.9441 14.15 17.8089 13.7553 17.56 13.4343C17.3112 13.1132 16.9627 12.8839 16.5694 12.7824C16.2426 12.698 16.0461 12.3647 16.1305 12.0379Z" fill="#C5C6D0"/>
<path d="M14.4293 4.26526C14.1024 4.18155 13.7695 4.37874 13.6857 4.7057C13.602 5.03266 13.7992 5.36558 14.1262 5.44929C14.5205 5.55026 14.8701 5.77961 15.1197 6.10118C15.3693 6.42276 15.5048 6.81826 15.5048 7.22533C15.5048 7.63241 15.3693 8.02791 15.1197 8.34948C14.8701 8.67105 14.5205 8.9004 14.1262 9.00137C13.7992 9.08509 13.602 9.41801 13.6857 9.74497C13.7695 10.0719 14.1024 10.2691 14.4293 10.1854C15.0866 10.0171 15.6692 9.63487 16.0852 9.09892C16.5012 8.56296 16.727 7.9038 16.727 7.22533C16.727 6.54687 16.5012 5.8877 16.0852 5.35175C15.6692 4.8158 15.0866 4.43355 14.4293 4.26526Z" fill="#C5C6D0"/>
<path fill-rule="evenodd" clip-rule="evenodd" d="M9.99999 4.16675C11.6875 4.16675 13.0555 5.53477 13.0555 7.2223C13.0555 8.90984 11.6875 10.2779 9.99999 10.2779C8.31245 10.2779 6.94443 8.90984 6.94443 7.2223C6.94443 5.53477 8.31245 4.16675 9.99999 4.16675ZM11.8333 7.2223C11.8333 6.20978 11.0125 5.38897 9.99999 5.38897C8.98746 5.38897 8.16665 6.20978 8.16665 7.2223C8.16665 8.23482 8.98746 9.05564 9.99999 9.05564C11.0125 9.05564 11.8333 8.23482 11.8333 7.2223Z" fill="#C5C6D0"/>
<path d="M12.4444 11.5001C13.2548 11.5001 14.032 11.822 14.605 12.395C15.1781 12.968 15.5 13.7452 15.5 14.5556V15.7778C15.5 16.1154 15.2264 16.389 14.8889 16.389C14.5514 16.389 14.2778 16.1154 14.2778 15.7778V14.5556C14.2778 14.0694 14.0846 13.6031 13.7408 13.2593C13.397 12.9154 12.9307 12.7223 12.4444 12.7223H7.55553C7.0693 12.7223 6.60299 12.9154 6.25917 13.2593C5.91535 13.6031 5.7222 14.0694 5.7222 14.5556V15.7778C5.7222 16.1154 5.4486 16.389 5.11109 16.389C4.77358 16.389 4.49998 16.1154 4.49998 15.7778V14.5556C4.49998 13.7452 4.8219 12.968 5.39493 12.395C5.96796 11.822 6.74515 11.5001 7.55553 11.5001H12.4444Z" fill="#C5C6D0"/>
<path d="M3.86946 12.0379C3.78509 11.7111 3.45177 11.5146 3.12498 11.599C2.46946 11.7682 1.88872 12.1504 1.47394 12.6854C1.05915 13.2205 0.833817 13.8782 0.833313 14.5552V15.7779C0.833313 16.1154 1.10692 16.389 1.44442 16.389C1.78193 16.389 2.05553 16.1154 2.05553 15.7779V14.5561C2.05588 14.15 2.19108 13.7553 2.43991 13.4343C2.68878 13.1132 3.03723 12.8839 3.43054 12.7824C3.75733 12.698 3.95384 12.3647 3.86946 12.0379Z" fill="#C5C6D0"/>
<path d="M5.57062 4.26526C5.89758 4.18155 6.2305 4.37874 6.31421 4.7057C6.39793 5.03266 6.20074 5.36558 5.87378 5.44929C5.47942 5.55026 5.12989 5.77961 4.88028 6.10118C4.63067 6.42276 4.49518 6.81826 4.49518 7.22533C4.49518 7.63241 4.63067 8.02791 4.88028 8.34948C5.12989 8.67105 5.47942 8.9004 5.87378 9.00137C6.20074 9.08509 6.39793 9.41801 6.31421 9.74497C6.2305 10.0719 5.89758 10.2691 5.57062 10.1854C4.91336 10.0171 4.3308 9.63487 3.91478 9.09892C3.49877 8.56296 3.27296 7.9038 3.27296 7.22533C3.27296 6.54687 3.49877 5.8877 3.91478 5.35175C4.3308 4.8158 4.91336 4.43355 5.57062 4.26526Z" fill="#C5C6D0"/>
</g>
</g>
</svg>
