<svg xmlns="http://www.w3.org/2000/svg" width="25" height="24" fill="none" viewBox="0 0 25 24"><g fill="#FFEDEC"><path d="M18.95 19.3a.85.85 0 0 0 .85-.85V6.55a.85.85 0 0 0-.85-.85h-3.4a.85.85 0 0 1 0-1.7h3.4a2.55 2.55 0 0 1 2.55 2.55v11.9A2.55 2.55 0 0 1 18.95 21h-3.4a.85.85 0 0 1 0-1.7h3.4Z"/><path d="M10.201 17.351a.85.85 0 0 1-1.202 0l-4.247-4.247a.854.854 0 0 1-.182-.942.845.845 0 0 1 .182-.266L8.999 7.65a.85.85 0 0 1 1.202 1.202L7.402 11.65h8.148a.85.85 0 0 1 0 1.7H7.402l2.8 2.799a.85.85 0 0 1 0 1.202Z"/></g></svg>