<svg xmlns="http://www.w3.org/2000/svg" width="17" height="20" fill="none" viewBox="0 0 17 20"><path fill="#fff" fill-rule="evenodd" d="M9.117 1.392a.756.756 0 0 0-.756.756v7.873a.634.634 0 1 1-1.267 0V4a.756.756 0 1 0-1.512 0v6.946a.634.634 0 0 1-1.082.448l-1.36-1.361A1.096 1.096 0 0 0 1.8 9.87a.756.756 0 0 0-.27 1.018c1.747 3.106 2.748 4.849 3.022 5.27l.18.276a4.924 4.924 0 0 0 4.111 2.215h1.662a4.923 4.923 0 0 0 4.923-4.923V5.853a.756.756 0 0 0-1.51-.003v4.171a.634.634 0 1 1-1.268 0V4a.756.756 0 0 0-1.51-.049.756.756 0 0 1 .001.108v.114l-.002 2.933v2.915a.634.634 0 1 1-1.268 0V2.148a.756.756 0 0 0-.755-.756Zm2.023 5.732c0 .002 0 .002 0 0Zm0-5A2.021 2.021 0 0 0 8.341.279a2.023 2.023 0 0 0-1.248 1.845A2.023 2.023 0 0 0 4.314 4v5.417l-.279-.28a2.364 2.364 0 0 0-2.886-.354m9.99-6.66a2.023 2.023 0 0 1 2.78 1.853 2.022 2.022 0 0 1 2.778 1.877v7.873a6.191 6.191 0 0 1-6.191 6.19H8.653a.631.631 0 0 1-.09-.006 6.19 6.19 0 0 1-4.888-2.78 66.418 66.418 0 0 1-.184-.28c-.304-.467-1.332-2.26-3.064-5.34a2.023 2.023 0 0 1 .722-2.727" clip-rule="evenodd"/></svg>