<svg xmlns="http://www.w3.org/2000/svg" width="18" height="19" fill="none" viewBox="0 0 18 19"><path fill="#EFF0FA" fill-rule="evenodd" d="M9.553 1.129a.776.776 0 0 0-.776.776v3.127a.564.564 0 0 1-1.128 0V5.03c0-.112-.019-.56-.056-1.012a10 10 0 0 0-.066-.606 2 2 0 0 0-.036-.19.776.776 0 0 0-1.167-.08.564.564 0 1 1-.797-.8 1.905 1.905 0 0 1 2.122-.391v-.047a1.905 1.905 0 0 1 3.809 0v.047a1.904 1.904 0 0 1 2.68 1.74v.047a1.904 1.904 0 0 1 2.681 1.74v7.595c0 .945-.225 1.867-.647 2.693l1.376 1.376a.564.564 0 1 1-.798.798l-1.201-1.2A5.93 5.93 0 0 1 10.894 19H9.106l-.077-.005c-2.03-.28-3.83-1.346-4.863-2.932l-.03-.05-2.394-4.656a2.084 2.084 0 0 1 3.226-2.62V6.16L.665 1.857a.564.564 0 1 1 .798-.798l13.86 13.859c.24-.579.368-1.205.368-1.844V5.48a.776.776 0 0 0-1.552-.002v4.917a.564.564 0 0 1-1.13 0V3.692a.776.776 0 0 0-1.25-.614l-.008.042a6 6 0 0 0-.071.5c-.047.424-.088.977-.121 1.543a69 69 0 0 0-.101 2.43.564.564 0 0 1-1.129 0V1.905a.776.776 0 0 0-.776-.776m2.223 1.884q.009-.022 0 .002zm2.968 12.923L8.657 9.848A.563.563 0 0 1 7.649 9.5v-.66L6.097 7.288v3.552a.564.564 0 0 1-.586.564.56.56 0 0 1-.525-.306l-.782-1.52a.955.955 0 0 0-1.522 1.154l.046.074 2.399 4.664c.83 1.257 2.298 2.154 4.019 2.401h1.748a4.8 4.8 0 0 0 3.85-1.935M7.482 3.193" clip-rule="evenodd"/></svg>