<svg width="17" height="20" viewBox="0 0 17 20" fill="none" xmlns="http://www.w3.org/2000/svg">
<path fill-rule="evenodd" clip-rule="evenodd" d="M9.11655 1.39245C9.01733 1.39245 8.91907 1.41199 8.8274 1.44996C8.73573 1.48793 8.65243 1.54359 8.58227 1.61375C8.5121 1.68392 8.45645 1.76721 8.41847 1.85889C8.3805 1.95056 8.36096 2.04881 8.36096 2.14804V10.0208C8.36096 10.3708 8.07723 10.6546 7.72723 10.6546C7.37724 10.6546 7.09351 10.3708 7.09351 10.0208V4.00046C7.09351 3.80007 7.01391 3.60788 6.8722 3.46618C6.7305 3.32448 6.53831 3.24487 6.33792 3.24487C6.13752 3.24487 5.94533 3.32448 5.80363 3.46618C5.66193 3.60788 5.58233 3.80007 5.58233 4.00046L5.58233 10.947C5.58233 11.2034 5.42792 11.4344 5.19112 11.5325C4.95431 11.6306 4.68174 11.5764 4.50049 11.3952L3.13922 10.0339C2.96647 9.86144 2.74082 9.75138 2.49855 9.72162C2.25616 9.69186 2.01077 9.74393 1.80137 9.86958C1.63259 9.97077 1.50976 10.1339 1.45933 10.3241C1.40891 10.5144 1.43468 10.7167 1.53117 10.8882C3.27848 13.9941 4.27889 15.737 4.5534 16.1584C4.61308 16.2503 4.67341 16.3426 4.73357 16.4342C5.182 17.1149 5.79243 17.6737 6.51009 18.0603C7.22745 18.4467 8.02951 18.6491 8.84433 18.6492C8.84488 18.6492 8.84544 18.6492 8.84599 18.6492H10.5059C11.8117 18.6492 13.064 18.1305 13.9873 17.2071C14.9107 16.2838 15.4294 15.0315 15.4294 13.7257V5.85288C15.4294 5.65249 15.3498 5.4603 15.2081 5.3186C15.0664 5.1769 14.8742 5.09729 14.6738 5.09729C14.4734 5.09729 14.2812 5.1769 14.1395 5.3186C13.9984 5.45968 13.9189 5.65082 13.9182 5.85027C13.9182 5.85114 13.9182 5.85201 13.9182 5.85288V10.0208C13.9182 10.3708 13.6345 10.6546 13.2845 10.6546C12.9345 10.6546 12.6508 10.3708 12.6508 10.0208V5.85288C12.6508 5.85146 12.6508 5.85003 12.6508 5.84861L12.6508 4.00046C12.6508 3.80007 12.5712 3.60788 12.4295 3.46618C12.2878 3.32448 12.0956 3.24487 11.8952 3.24487C11.6948 3.24487 11.5026 3.32448 11.3609 3.46618C11.2308 3.59628 11.153 3.76897 11.1412 3.95146C11.1423 3.9341 11.1422 3.96393 11.142 4.05888C11.142 4.08988 11.1419 4.12783 11.1418 4.17334L11.1399 7.10568L11.1398 7.13335L11.1398 7.13632L11.1396 7.14503C11.1396 7.14506 11.1396 7.14499 11.1396 7.14503L11.1396 10.0208C11.1396 10.3708 10.8559 10.6546 10.5059 10.6546C10.1559 10.6546 9.87215 10.3708 9.87215 10.0208V2.14804C9.87215 2.04881 9.8526 1.95056 9.81463 1.85889C9.77666 1.76721 9.721 1.68392 9.65084 1.61375C9.58067 1.54359 9.49738 1.48793 9.4057 1.44996C9.31403 1.41199 9.21578 1.39245 9.11655 1.39245ZM11.1398 7.1243C11.1398 7.12579 11.1398 7.12563 11.1398 7.1243V7.1243ZM11.1394 2.12389C11.1364 1.86644 11.0842 1.61186 10.9856 1.37386C10.8839 1.12841 10.7349 0.905391 10.5471 0.717535C10.3592 0.529678 10.1362 0.380662 9.89074 0.278995C9.64529 0.177327 9.38222 0.125 9.11655 0.125C8.85088 0.125 8.58781 0.177327 8.34237 0.278995C8.09692 0.380662 7.8739 0.529678 7.68605 0.717535C7.49819 0.905391 7.34917 1.12841 7.24751 1.37386C7.14892 1.61186 7.09673 1.86644 7.09366 2.12388C6.8557 2.02805 6.59942 1.97742 6.33792 1.97742C5.80138 1.97742 5.28681 2.19056 4.90741 2.56996C4.52802 2.94935 4.31488 3.46392 4.31488 4.00046L4.31488 9.4171L4.03518 9.1374C3.6625 8.76515 3.17586 8.52783 2.65304 8.46363C2.13029 8.39943 1.60109 8.51172 1.14945 8.78265M11.1394 2.12389C11.3774 2.02805 11.6337 1.97742 11.8952 1.97742C12.4317 1.97742 12.9463 2.19056 13.3257 2.56996C13.6994 2.94365 13.9118 3.44849 13.9181 3.9763C14.156 3.88047 14.4123 3.82984 14.6738 3.82984C15.2104 3.82984 15.7249 4.04298 16.1043 4.42238C16.4837 4.80177 16.6969 5.31634 16.6969 5.85288V13.7257C16.6969 15.3676 16.0446 16.9423 14.8836 18.1034C13.7225 19.2644 12.1478 19.9167 10.5059 19.9167H8.8462C8.84617 19.9167 8.84624 19.9167 8.8462 19.9167H8.65345C8.62264 19.9167 8.59235 19.9145 8.56272 19.9102C7.63547 19.8679 6.72829 19.6175 5.90898 19.1761C5.00633 18.6898 4.23858 17.987 3.67467 17.1307C3.61332 17.0374 3.55184 16.9432 3.49097 16.8496C3.18701 16.3827 2.15916 14.5895 0.426549 11.5097C0.168206 11.0505 0.0991978 10.5087 0.234201 9.99938C0.369184 9.49017 0.697665 9.05358 1.14945 8.78265" fill="white"/>
</svg>
