<svg width="20" height="20" viewBox="0 0 20 20" fill="none" xmlns="http://www.w3.org/2000/svg">
<g id="Icon/Left">
<path id="Vector" fill-rule="evenodd" clip-rule="evenodd" d="M3.56694 2.68306C3.32286 2.43898 2.92714 2.43898 2.68306 2.68306C2.43898 2.92714 2.43898 3.32286 2.68306 3.56694L5.35534 6.23922C4.22483 7.21234 3.28148 8.38662 2.57428 9.70456C2.47826 9.8835 2.47516 10.0979 2.56598 10.2796L3.125 10.0001C2.56598 10.2796 2.56648 10.2806 2.56648 10.2806L2.56721 10.282L2.56937 10.2863L2.57646 10.3002C2.58242 10.3118 2.59085 10.328 2.60172 10.3485C2.62346 10.3896 2.65501 10.4481 2.69623 10.5213C2.77862 10.6678 2.89991 10.8741 3.05896 11.1204C3.37629 11.6118 3.84802 12.2685 4.46591 12.9275C5.6903 14.2335 7.56281 15.6251 10 15.6251L10.0102 15.625C11.303 15.6039 12.5602 15.221 13.6413 14.5252L16.4331 17.3169C16.6771 17.561 17.0729 17.561 17.3169 17.3169C17.561 17.0729 17.561 16.6771 17.3169 16.4331L3.56694 2.68306ZM9.99843 5.62501C9.60505 5.62409 9.21288 5.66891 8.82985 5.75857C8.49375 5.83724 8.15752 5.62855 8.07885 5.29246C8.00018 4.95637 8.20886 4.62014 8.54496 4.54146C9.02209 4.42978 9.51059 4.37392 10.0006 4.37502C12.4375 4.37529 14.3097 5.76667 15.534 7.07255C16.1519 7.73164 16.6236 8.38834 16.9409 8.87969C17.1 9.12596 17.2213 9.33229 17.3037 9.47876L17.4339 9.72051C17.5246 9.90183 17.5217 10.1159 17.4261 10.2946C17.0262 11.0428 16.5493 11.7471 16.0031 12.3962C15.7809 12.6603 15.3866 12.6942 15.1225 12.472C14.8584 12.2497 14.8244 11.8555 15.0467 11.5914C15.4648 11.0944 15.8378 10.5614 16.1611 9.99862C16.0929 9.88079 16.0026 9.73086 15.8909 9.55784C15.6028 9.11169 15.176 8.51839 14.6221 7.92748C13.5027 6.73349 11.9377 5.62502 9.9999 5.62502L9.99843 5.62501ZM3.83911 10.002C3.90728 10.1198 3.99745 10.2695 4.10901 10.4422C4.39715 10.8884 4.82385 11.4817 5.37784 12.0726C6.49622 13.2656 8.05945 14.3731 9.9949 14.3751C10.9608 14.3584 11.9023 14.0953 12.7321 13.6161L11.2811 12.165C11.1819 12.2272 11.0782 12.2825 10.9707 12.3304C10.6641 12.4671 10.333 12.5405 9.99733 12.5465C9.66165 12.5524 9.32822 12.4906 9.01693 12.3649C8.70564 12.2392 8.42286 12.052 8.18546 11.8146C7.94806 11.5772 7.76092 11.2944 7.63518 10.9831C7.50944 10.6718 7.44769 10.3384 7.45362 10.0027C7.45954 9.66706 7.53301 9.33602 7.66965 9.02936C7.71753 8.9219 7.77283 8.8182 7.83503 8.71898L6.24194 7.12589C5.28144 7.93843 4.46834 8.91142 3.83911 10.002ZM8.76743 9.65139C8.72732 9.77166 8.70567 9.89756 8.70342 10.0248C8.70046 10.1926 8.73134 10.3593 8.7942 10.515C8.85707 10.6706 8.95065 10.812 9.06934 10.9307C9.18804 11.0494 9.32943 11.143 9.48508 11.2059C9.64073 11.2687 9.80744 11.2996 9.97528 11.2966C10.1025 11.2944 10.2284 11.2728 10.3487 11.2326L8.76743 9.65139Z" fill="#EFF0FA"/>
</g>
</svg>
