<svg xmlns="http://www.w3.org/2000/svg" width="25" height="24" fill="none" viewBox="0 0 25 24"><path fill="#FFEDEC" fill-rule="evenodd" d="M19.379 8.6a.747.747 0 0 1 .072.013 4.704 4.704 0 0 1 3.684 4.592v.782a2.068 2.068 0 0 1-2.068 2.068h-3.295a2.068 2.068 0 0 1-2.068-2.068.568.568 0 0 0-.568-.568H9.864a.568.568 0 0 0-.568.568 2.068 2.068 0 0 1-2.068 2.068H3.933a2.068 2.068 0 0 1-2.068-2.068v-.781M19.379 8.6a36.435 36.435 0 0 0-13.83.01 4.704 4.704 0 0 0-3.684 4.595m3.856-3.863v.043l.065.291-.065-.334Zm.142.734a3.204 3.204 0 0 0-2.498 3.128v.782a.568.568 0 0 0 .568.568h3.295a.568.568 0 0 0 .568-.568 2.068 2.068 0 0 1 2.068-2.068h5.272a2.068 2.068 0 0 1 2.068 2.068.568.568 0 0 0 .568.568h3.295a.568.568 0 0 0 .568-.568v-.782a3.203 3.203 0 0 0-2.499-3.123 34.934 34.934 0 0 0-13.273-.003v-.002Z" clip-rule="evenodd"/></svg>