<svg xmlns="http://www.w3.org/2000/svg" width="18" height="18" fill="none" viewBox="0 0 18 18"><path fill="#fff" fill-rule="evenodd" d="M9 0c.452 0 .818.366.818.818v1.637a.818.818 0 0 1-1.636 0V.818C8.182.366 8.548 0 9 0Zm0 6.546a2.455 2.455 0 1 0 0 4.909 2.455 2.455 0 0 0 0-4.91ZM4.91 9a4.09 4.09 0 1 1 8.18 0 4.09 4.09 0 0 1-8.18 0Zm4.908 6.546a.818.818 0 1 0-1.636 0v1.636a.818.818 0 1 0 1.636 0v-1.636ZM2.694 2.694a.818.818 0 0 1 1.157 0L5.08 3.921A.818.818 0 1 1 3.92 5.08L2.694 3.85a.818.818 0 0 1 0-1.157Zm11.384 10.227a.818.818 0 1 0-1.156 1.158l1.227 1.227a.818.818 0 0 0 1.157-1.157l-1.227-1.227ZM0 9.002c0-.453.366-.82.818-.82h1.637a.818.818 0 0 1 0 1.637H.818A.818.818 0 0 1 0 9Zm15.545-.82a.818.818 0 0 0 0 1.637h1.637a.818.818 0 1 0 0-1.636h-1.637ZM5.08 12.922c.32.32.32.838 0 1.158l-1.23 1.226a.818.818 0 0 1-1.157-1.157l1.227-1.227a.818.818 0 0 1 1.158 0Zm10.227-9.07a.818.818 0 0 0-1.157-1.157l-1.227 1.227a.818.818 0 1 0 1.156 1.158l1.228-1.228Z" clip-rule="evenodd"/></svg>