<svg xmlns="http://www.w3.org/2000/svg" width="48" height="48" fill="none" viewBox="0 0 48 48"><path fill="#fff" fill-rule="evenodd" d="M13.586 12.794a1.637 1.637 0 1 0-2.315-2.315 18.004 18.004 0 0 0 0 25.458 1.637 1.637 0 0 0 2.315-2.315 14.73 14.73 0 0 1 0-20.828Zm23.143-2.315a1.637 1.637 0 0 0-2.315 2.315 14.73 14.73 0 0 1 0 20.828 1.637 1.637 0 1 0 2.315 2.315 18.003 18.003 0 0 0 0-25.457ZM18.217 17.41a1.637 1.637 0 1 0-2.313-2.316 11.457 11.457 0 0 0 0 16.212 1.637 1.637 0 0 0 2.313-2.316 8.186 8.186 0 0 1 0-11.58Zm13.88-2.3a1.637 1.637 0 0 0-2.314 2.316 8.187 8.187 0 0 1 1.776 8.924 8.187 8.187 0 0 1-1.776 2.656 1.637 1.637 0 1 0 2.313 2.316 11.459 11.459 0 0 0 0-16.211Zm-9.734 8.098a1.637 1.637 0 1 1 3.274 0 1.637 1.637 0 0 1-3.274 0ZM24 18.298a4.91 4.91 0 1 0 0 9.82 4.91 4.91 0 0 0 0-9.82Z" clip-rule="evenodd"/></svg>