<svg xmlns="http://www.w3.org/2000/svg" width="20" height="18" fill="none" viewBox="0 0 20 18"><path fill="#fff" fill-rule="evenodd" d="M7.62 4.688a3.365 3.365 0 1 1 4.76 4.759 3.365 3.365 0 0 1-4.76-4.76Zm2.38.514a1.865 1.865 0 1 0 0 3.73 1.865 1.865 0 0 0 0-3.73Zm0 7.633a4.192 4.192 0 0 0-4.147 3.584l-1.485-.217a5.692 5.692 0 0 1 11.264 0l-1.484.217A4.192 4.192 0 0 0 10 12.835Z" clip-rule="evenodd"/><path fill="#fff" fill-rule="evenodd" d="M17.908 2.425H2.093a.5.5 0 0 0-.5.5v12.15a.5.5 0 0 0 .5.5h15.815a.5.5 0 0 0 .5-.5V2.925a.5.5 0 0 0-.5-.5ZM2.093.925a2 2 0 0 0-2 2v12.15a2 2 0 0 0 2 2h15.815a2 2 0 0 0 2-2V2.925a2 2 0 0 0-2-2H2.093Z" clip-rule="evenodd"/></svg>