<svg xmlns="http://www.w3.org/2000/svg" width="25" height="24" fill="none" viewBox="0 0 25 24"><path fill="#fff" fill-rule="evenodd" d="M14.3 3.9a.9.9 0 0 1 .9-.9h3.6a2.7 2.7 0 0 1 2.7 2.7v12.6a2.7 2.7 0 0 1-2.7 2.7h-3.6a.9.9 0 1 1 0-1.8h3.6a.9.9 0 0 0 .9-.9V5.7a.9.9 0 0 0-.9-.9h-3.6a.9.9 0 0 1-.9-.9Zm-4.236 2.964a.9.9 0 0 1 1.272 0l4.498 4.498a.897.897 0 0 1 0 1.277l-4.498 4.497a.9.9 0 1 1-1.272-1.272l2.963-2.964H4.4a.9.9 0 0 1 0-1.8h8.627l-2.963-2.964a.9.9 0 0 1 0-1.272Z" clip-rule="evenodd"/></svg>