<svg xmlns="http://www.w3.org/2000/svg" width="15" height="17" fill="none" viewBox="0 0 15 17"><path fill="#EFF0FA" fill-rule="evenodd" d="M8.044 1.44a.647.647 0 0 0-.646.647v2.606a.47.47 0 0 1-.94 0 15.69 15.69 0 0 0-.047-.844 7.908 7.908 0 0 0-.055-.505 1.823 1.823 0 0 0-.03-.159.647.647 0 0 0-.973-.067.47.47 0 0 1-.664-.665 1.587 1.587 0 0 1 1.768-.327v-.039a1.587 1.587 0 0 1 3.175 0v.04a1.587 1.587 0 0 1 2.234 1.45v.04a1.587 1.587 0 0 1 2.233 1.449v6.33c0 .787-.188 1.555-.539 2.243l1.146 1.147a.47.47 0 1 1-.665.665l-1-1a4.93 4.93 0 0 1-3.88 1.882H7.672a.462.462 0 0 1-.064-.004c-1.692-.234-3.192-1.121-4.053-2.443a.476.476 0 0 1-.024-.042l-1.996-3.88a1.736 1.736 0 0 1 2.688-2.182v-2.15L.638 2.048a.47.47 0 1 1 .665-.665l11.549 11.55c.2-.483.307-1.004.307-1.537v-6.33a.647.647 0 0 0-1.293-.001V9.16a.47.47 0 1 1-.941 0V3.577a.647.647 0 0 0-1.042-.512l-.007.035c-.02.098-.04.239-.06.417-.039.353-.073.814-.1 1.285a57.322 57.322 0 0 0-.084 2.025.47.47 0 0 1-.941 0v-4.74a.647.647 0 0 0-.647-.646Zm1.853 1.57Zm2.473 10.77L7.297 8.707a.47.47 0 0 1-.84-.29v-.55L5.164 6.574v2.96a.47.47 0 0 1-.488.47.47.47 0 0 1-.438-.255l-.652-1.267a.796.796 0 0 0-1.267.961.47.47 0 0 1 .038.062l1.999 3.887c.691 1.048 1.915 1.794 3.349 2h1.456a3.998 3.998 0 0 0 3.209-1.612ZM6.319 3.16Z" clip-rule="evenodd"/></svg>