<svg width="33" height="31" viewBox="0 0 33 31" fill="none" xmlns="http://www.w3.org/2000/svg">
<path fill-rule="evenodd" clip-rule="evenodd" d="M16.4166 11.8333C13.8853 11.8333 11.8333 13.8853 11.8333 16.4166C11.8333 18.9479 13.8853 21 16.4166 21C18.948 21 21 18.9479 21 16.4166C21 13.8853 18.948 11.8333 16.4166 11.8333ZM13.6666 16.4166C13.6666 14.8978 14.8979 13.6666 16.4166 13.6666C17.9354 13.6666 19.1666 14.8978 19.1666 16.4166C19.1666 17.9354 17.9354 19.1666 16.4166 19.1666C14.8979 19.1666 13.6666 17.9354 13.6666 16.4166Z" fill="#EFF0FA"/>
<path d="M12.75 22.8334C11.5344 22.8334 10.3687 23.3163 9.50911 24.1758C8.64957 25.0353 8.16669 26.2011 8.16669 27.4167V29.25C8.16669 29.7563 8.57709 30.1667 9.08335 30.1667C9.58961 30.1667 10 29.7563 10 29.25V27.4167C10 26.6874 10.2898 25.9879 10.8055 25.4722C11.3212 24.9564 12.0207 24.6667 12.75 24.6667H20.0834C20.8127 24.6667 21.5122 24.9564 22.0279 25.4722C22.5436 25.9879 22.8334 26.6874 22.8334 27.4167V29.25C22.8334 29.7563 23.2438 30.1667 23.75 30.1667C24.2563 30.1667 24.6667 29.7563 24.6667 29.25V27.4167C24.6667 26.2011 24.1838 25.0353 23.3243 24.1758C22.4647 23.3163 21.2989 22.8334 20.0834 22.8334H12.75Z" fill="#EFF0FA"/>
<path d="M4.83335 19.3333C4.83335 18.4166 5.58335 17.6666 6.50002 17.6666C7.41669 17.6666 8.16669 18.4166 8.16669 19.3333C8.16669 20.25 7.41669 21 6.50002 21C5.58335 21 4.83335 20.25 4.83335 19.3333Z" fill="#EFF0FA"/>
<path d="M4.83335 12.6666C4.83335 11.75 5.58335 11 6.50002 11C7.41669 11 8.16669 11.75 8.16669 12.6666C8.16669 13.5833 7.41669 14.3333 6.50002 14.3333C5.58335 14.3333 4.83335 13.5833 4.83335 12.6666Z" fill="#EFF0FA"/>
<path d="M0.666687 12.6666C0.666687 12.2 1.03335 11.8333 1.50002 11.8333C1.96669 11.8333 2.33335 12.2 2.33335 12.6666C2.33335 13.1333 1.96669 13.5 1.50002 13.5C1.03335 13.5 0.666687 13.1333 0.666687 12.6666Z" fill="#EFF0FA"/>
<path d="M4.83335 5.99996C4.83335 5.08329 5.58335 4.33329 6.50002 4.33329C7.41669 4.33329 8.16669 5.08329 8.16669 5.99996C8.16669 6.91663 7.41669 7.66663 6.50002 7.66663C5.58335 7.66663 4.83335 6.91663 4.83335 5.99996Z" fill="#EFF0FA"/>
<path d="M32.3334 12.6666C32.3334 13.1333 31.9667 13.5 31.5 13.5C31.0334 13.5 30.6667 13.1333 30.6667 12.6666C30.6667 12.2 31.0334 11.8333 31.5 11.8333C31.9667 11.8333 32.3334 12.2 32.3334 12.6666Z" fill="#EFF0FA"/>
<path d="M21.5 5.99996C21.5 6.91663 20.75 7.66663 19.8334 7.66663C18.9167 7.66663 18.1667 6.91663 18.1667 5.99996C18.1667 5.08329 18.9167 4.33329 19.8334 4.33329C20.75 4.33329 21.5 5.08329 21.5 5.99996Z" fill="#EFF0FA"/>
<path d="M20.6667 0.999959C20.6667 1.46663 20.3 1.83329 19.8334 1.83329C19.3667 1.83329 19 1.46663 19 0.999959C19 0.533293 19.3667 0.166626 19.8334 0.166626C20.3 0.166626 20.6667 0.533293 20.6667 0.999959Z" fill="#EFF0FA"/>
<path d="M0.666687 19.3333C0.666687 18.8666 1.03335 18.5 1.50002 18.5C1.96669 18.5 2.33335 18.8666 2.33335 19.3333C2.33335 19.8 1.96669 20.1666 1.50002 20.1666C1.03335 20.1666 0.666687 19.8 0.666687 19.3333Z" fill="#EFF0FA"/>
<path d="M14 0.999959C14 1.46663 13.6334 1.83329 13.1667 1.83329C12.7 1.83329 12.3334 1.46663 12.3334 0.999959C12.3334 0.533293 12.7 0.166626 13.1667 0.166626C13.6334 0.166626 14 0.533293 14 0.999959Z" fill="#EFF0FA"/>
<path d="M14.8334 5.99996C14.8334 6.91663 14.0834 7.66663 13.1667 7.66663C12.25 7.66663 11.5 6.91663 11.5 5.99996C11.5 5.08329 12.25 4.33329 13.1667 4.33329C14.0834 4.33329 14.8334 5.08329 14.8334 5.99996Z" fill="#EFF0FA"/>
<path d="M24.8334 19.3333C24.8334 18.4166 25.5834 17.6666 26.5 17.6666C27.4167 17.6666 28.1667 18.4166 28.1667 19.3333C28.1667 20.25 27.4167 21 26.5 21C25.5834 21 24.8334 20.25 24.8334 19.3333Z" fill="#EFF0FA"/>
<path d="M24.8334 12.6666C24.8334 11.75 25.5834 11 26.5 11C27.4167 11 28.1667 11.75 28.1667 12.6666C28.1667 13.5833 27.4167 14.3333 26.5 14.3333C25.5834 14.3333 24.8334 13.5833 24.8334 12.6666Z" fill="#EFF0FA"/>
<path d="M24.8334 5.99996C24.8334 5.08329 25.5834 4.33329 26.5 4.33329C27.4167 4.33329 28.1667 5.08329 28.1667 5.99996C28.1667 6.91663 27.4167 7.66663 26.5 7.66663C25.5834 7.66663 24.8334 6.91663 24.8334 5.99996Z" fill="#EFF0FA"/>
<path d="M30.6667 19.3333C30.6667 18.8666 31.0334 18.5 31.5 18.5C31.9667 18.5 32.3334 18.8666 32.3334 19.3333C32.3334 19.8 31.9667 20.1666 31.5 20.1666C31.0334 20.1666 30.6667 19.8 30.6667 19.3333Z" fill="#EFF0FA"/>
</svg>
