<svg xmlns="http://www.w3.org/2000/svg" width="20" height="20" fill="none" viewBox="0 0 20 20"><path fill="#F5F9FF" fill-opacity=".95" fill-rule="evenodd" d="M16.471 3.529a.664.664 0 0 1 .165.271l.025.11a.68.68 0 0 1 .006.09v4a.667.667 0 0 1-1.334 0V5.61l-3.528 3.528a.667.667 0 1 1-.943-.943l3.529-3.528H12a.667.667 0 0 1 0-1.334h4.006a.669.669 0 0 1 .465.196ZM4.667 12a.667.667 0 1 0-1.334 0v4a.664.664 0 0 0 .667.667h4a.667.667 0 1 0 0-1.334H5.61l3.528-3.528a.667.667 0 1 0-.943-.943l-3.528 3.529V12Z" clip-rule="evenodd"/></svg>