<svg xmlns="http://www.w3.org/2000/svg" width="24" height="24" fill="none" viewBox="0 0 24 24"><path fill="#F5F9FF" fill-opacity=".95" d="M12.976 11.141a1.033 1.033 0 0 0-1.45.002l-.003.002a1.032 1.032 0 1 0 1.459.002l-.002-.002-.004-.004Z"/><path fill="#F5F9FF" fill-opacity=".95" fill-rule="evenodd" d="M14.706 3.17a4.687 4.687 0 0 1 5.596 7.072l.308.307a.75.75 0 0 1-1.06 1.061l-.308-.308a4.69 4.69 0 0 1-2.509.88l-7.78 6.455a1.875 1.875 0 0 1-2.447-.082l-2.413 2.413a.75.75 0 0 1-1.06-1.06l2.41-2.412a1.875 1.875 0 0 1-.08-2.447l.006-.008 6.45-7.774a4.689 4.689 0 0 1 .879-2.509l-.308-.307a.75.75 0 1 1 1.06-1.061l.309.308c.293-.212.611-.39.947-.529Zm-2.564 6.056-5.614 6.767a.375.375 0 0 0 .029.497l.956.953a.375.375 0 0 0 .497.029l6.764-5.614a4.69 4.69 0 0 1-2.632-2.632Zm7.303-.506c-.063.153-.138.3-.224.44L14.84 4.78a3.185 3.185 0 0 1 3.914.467 3.187 3.187 0 0 1 .69 3.474Zm-5.89-2.44c.063-.153.138-.3.224-.44l4.381 4.38a3.18 3.18 0 0 1-2.88.225 3.188 3.188 0 0 1-1.725-4.165Z" clip-rule="evenodd"/></svg>