<svg width="24" height="24" viewBox="0 0 24 24" fill="none" xmlns="http://www.w3.org/2000/svg">
<path d="M10 3C10 2.72 9.78 2.5 9.5 2.5C9.22 2.5 9 2.72 9 3C9 3.28 9.22 3.5 9.5 3.5C9.78 3.5 10 3.28 10 3Z" fill="white"/>
<path d="M14 3C14 2.72 13.78 2.5 13.5 2.5C13.22 2.5 13 2.72 13 3C13 3.28 13.22 3.5 13.5 3.5C13.78 3.5 14 3.28 14 3Z" fill="white"/>
<path d="M10 6C10 5.72 9.78 5.5 9.5 5.5C9.22 5.5 9 5.72 9 6C9 6.28 9.22 6.5 9.5 6.5C9.78 6.5 10 6.28 10 6Z" fill="white"/>
<path d="M14 6C14 5.72 13.78 5.5 13.5 5.5C13.22 5.5 13 5.72 13 6C13 6.28 13.22 6.5 13.5 6.5C13.78 6.5 14 6.28 14 6Z" fill="white"/>
<path d="M6 5.5C5.72 5.5 5.5 5.72 5.5 6C5.5 6.28 5.72 6.5 6 6.5C6.28 6.5 6.5 6.28 6.5 6C6.5 5.72 6.28 5.5 6 5.5Z" fill="white"/>
<path d="M6 9.5C5.72 9.5 5.5 9.72 5.5 10C5.5 10.28 5.72 10.5 6 10.5C6.28 10.5 6.5 10.28 6.5 10C6.5 9.72 6.28 9.5 6 9.5Z" fill="white"/>
<path d="M5.5 14C5.5 13.72 5.72 13.5 6 13.5C6.28 13.5 6.5 13.72 6.5 14C6.5 14.28 6.28 14.5 6 14.5C5.72 14.5 5.5 14.28 5.5 14Z" fill="white"/>
<path fill-rule="evenodd" clip-rule="evenodd" d="M11.95 9.5C10.4312 9.5 9.19998 10.7312 9.19998 12.25C9.19998 13.7688 10.4312 15 11.95 15C13.4688 15 14.7 13.7688 14.7 12.25C14.7 10.7312 13.4688 9.5 11.95 9.5ZM10.3 12.25C10.3 11.3387 11.0387 10.6 11.95 10.6C12.8612 10.6 13.6 11.3387 13.6 12.25C13.6 13.1613 12.8612 13.9 11.95 13.9C11.0387 13.9 10.3 13.1613 10.3 12.25Z" fill="white"/>
<path d="M9.75 16.1C9.02065 16.1 8.32118 16.3898 7.80546 16.9055C7.28973 17.4212 7 18.1207 7 18.85V19.95C7 20.2538 7.24624 20.5 7.55 20.5C7.85376 20.5 8.1 20.2538 8.1 19.95V18.85C8.1 18.4124 8.27384 17.9928 8.58327 17.6833C8.89271 17.3739 9.31239 17.2 9.75 17.2H14.15C14.5876 17.2 15.0073 17.3739 15.3167 17.6833C15.6262 17.9928 15.8 18.4124 15.8 18.85V19.95C15.8 20.2538 16.0462 20.5 16.35 20.5C16.6538 20.5 16.9 20.2538 16.9 19.95V18.85C16.9 18.1207 16.6103 17.4212 16.0945 16.9055C15.5788 16.3898 14.8793 16.1 14.15 16.1H9.75Z" fill="white"/>
<path d="M20.5 10C20.5 9.72 20.72 9.5 21 9.5C21.28 9.5 21.5 9.72 21.5 10C21.5 10.28 21.28 10.5 21 10.5C20.72 10.5 20.5 10.28 20.5 10Z" fill="white"/>
<path d="M20.5 14C20.5 13.72 20.72 13.5 21 13.5C21.28 13.5 21.5 13.72 21.5 14C21.5 14.28 21.28 14.5 21 14.5C20.72 14.5 20.5 14.28 20.5 14Z" fill="white"/>
<path d="M2.5 10C2.5 9.72 2.72 9.5 3 9.5C3.28 9.5 3.5 9.72 3.5 10C3.5 10.28 3.28 10.5 3 10.5C2.72 10.5 2.5 10.28 2.5 10Z" fill="white"/>
<path d="M2.5 14C2.5 13.72 2.72 13.5 3 13.5C3.28 13.5 3.5 13.72 3.5 14C3.5 14.28 3.28 14.5 3 14.5C2.72 14.5 2.5 14.28 2.5 14Z" fill="white"/>
<path d="M18 9.5C17.72 9.5 17.5 9.72 17.5 10C17.5 10.28 17.72 10.5 18 10.5C18.28 10.5 18.5 10.28 18.5 10C18.5 9.72 18.28 9.5 18 9.5Z" fill="white"/>
<path d="M18 13.5C17.72 13.5 17.5 13.72 17.5 14C17.5 14.28 17.72 14.5 18 14.5C18.28 14.5 18.5 14.28 18.5 14C18.5 13.72 18.28 13.5 18 13.5Z" fill="white"/>
<path d="M17.5 6C17.5 5.72 17.72 5.5 18 5.5C18.28 5.5 18.5 5.72 18.5 6C18.5 6.28 18.28 6.5 18 6.5C17.72 6.5 17.5 6.28 17.5 6Z" fill="white"/>
</svg>
