<svg xmlns="http://www.w3.org/2000/svg" width="15" height="15" fill="none" viewBox="0 0 15 15"><path fill="#F5F9FF" fill-opacity=".95" d="M7.5 0a.625.625 0 0 0-.625.625v13.75a.625.625 0 1 0 1.25 0V.625A.625.625 0 0 0 7.5 0ZM5 1.25a.625.625 0 0 0-.625.625v11.25a.625.625 0 0 0 1.25 0V1.875A.625.625 0 0 0 5 1.25Zm-2.5 2.5a.625.625 0 0 0-.625.625v6.25a.625.625 0 1 0 1.25 0v-6.25A.625.625 0 0 0 2.5 3.75ZM.625 6.25A.625.625 0 0 0 0 6.875v1.25a.625.625 0 0 0 1.25 0v-1.25a.625.625 0 0 0-.625-.625Zm9.375-5a.625.625 0 0 0-.625.625v11.25a.625.625 0 0 0 1.25 0V1.875A.625.625 0 0 0 10 1.25Zm2.5 2.5a.625.625 0 0 0-.625.625v6.25a.624.624 0 1 0 1.25 0v-6.25a.625.625 0 0 0-.625-.625Zm1.875 2.5a.625.625 0 0 0-.625.625v1.25a.625.625 0 1 0 1.25 0v-1.25a.625.625 0 0 0-.625-.625Z"/></svg>