<svg xmlns="http://www.w3.org/2000/svg" width="15" height="15" fill="none" viewBox="0 0 15 15"><path fill="#EFF0FA" d="M7.917.333a.59.59 0 0 0-.59.59V13.91a.59.59 0 0 0 1.18 0V.924a.59.59 0 0 0-.59-.59m-2.361 1.18a.59.59 0 0 0-.59.59V12.73a.59.59 0 0 0 1.18 0V2.104a.59.59 0 0 0-.59-.59M3.194 3.875a.59.59 0 0 0-.59.59v5.903a.59.59 0 0 0 1.18 0V4.465a.59.59 0 0 0-.59-.59m-1.77 2.361a.59.59 0 0 0-.59.59v1.18a.59.59 0 0 0 1.18 0v-1.18a.59.59 0 0 0-.59-.59m8.854-4.722a.59.59 0 0 0-.59.59V12.73a.59.59 0 0 0 1.18 0V2.104a.59.59 0 0 0-.59-.59m2.361 2.361a.59.59 0 0 0-.59.59v5.903a.59.59 0 0 0 1.18 0V4.465a.59.59 0 0 0-.59-.59m1.771 2.361a.59.59 0 0 0-.59.59v1.18a.59.59 0 0 0 1.18 0v-1.18a.59.59 0 0 0-.59-.59"/></svg>