<svg width="15" height="15" viewBox="0 0 15 15" fill="none" xmlns="http://www.w3.org/2000/svg">
<path d="M7.91667 0.333374C7.76012 0.333374 7.60998 0.395564 7.49928 0.506262C7.38858 0.616961 7.32639 0.7671 7.32639 0.923652V13.9098C7.32639 14.0663 7.38858 14.2165 7.49928 14.3272C7.60998 14.4379 7.76012 14.5 7.91667 14.5C8.07322 14.5 8.22336 14.4379 8.33406 14.3272C8.44476 14.2165 8.50695 14.0663 8.50695 13.9098V0.923652C8.50695 0.7671 8.44476 0.616961 8.33406 0.506262C8.22336 0.395564 8.07322 0.333374 7.91667 0.333374Z" fill="#EFF0FA"/>
<path d="M5.55551 1.51407C5.39896 1.51407 5.24882 1.57626 5.13813 1.68696C5.02743 1.79766 4.96524 1.9478 4.96524 2.10435V12.7294C4.96524 12.8859 5.02743 13.036 5.13813 13.1467C5.24882 13.2574 5.39896 13.3196 5.55551 13.3196C5.71207 13.3196 5.86221 13.2574 5.9729 13.1467C6.0836 13.036 6.14579 12.8859 6.14579 12.7294V2.10435C6.14579 1.9478 6.0836 1.79766 5.9729 1.68696C5.86221 1.57626 5.71207 1.51407 5.55551 1.51407Z" fill="#EFF0FA"/>
<path d="M3.19442 3.87504C3.03787 3.87504 2.88773 3.93723 2.77703 4.04793C2.66634 4.15863 2.60415 4.30877 2.60415 4.46532V10.3681C2.60415 10.5246 2.66634 10.6748 2.77703 10.7855C2.88773 10.8962 3.03787 10.9584 3.19442 10.9584C3.35098 10.9584 3.50111 10.8962 3.61181 10.7855C3.72251 10.6748 3.7847 10.5246 3.7847 10.3681V4.46532C3.7847 4.30877 3.72251 4.15863 3.61181 4.04793C3.50111 3.93723 3.35098 3.87504 3.19442 3.87504Z" fill="#EFF0FA"/>
<path d="M1.42359 6.23601C1.26704 6.23601 1.1169 6.2982 1.0062 6.4089C0.895503 6.51959 0.833313 6.66973 0.833313 6.82629V8.00684C0.833313 8.16339 0.895503 8.31353 1.0062 8.42423C1.1169 8.53493 1.26704 8.59712 1.42359 8.59712C1.58014 8.59712 1.73028 8.53493 1.84098 8.42423C1.95168 8.31353 2.01387 8.16339 2.01387 8.00684V6.82629C2.01387 6.66973 1.95168 6.51959 1.84098 6.4089C1.73028 6.2982 1.58014 6.23601 1.42359 6.23601Z" fill="#EFF0FA"/>
<path d="M10.2778 1.51407C10.1212 1.51407 9.97107 1.57626 9.86037 1.68696C9.74967 1.79766 9.68748 1.9478 9.68748 2.10435V12.7294C9.68748 12.8859 9.74967 13.036 9.86037 13.1467C9.97107 13.2574 10.1212 13.3196 10.2778 13.3196C10.4343 13.3196 10.5844 13.2574 10.6951 13.1467C10.8058 13.036 10.868 12.8859 10.868 12.7294V2.10435C10.868 1.9478 10.8058 1.79766 10.6951 1.68696C10.5844 1.57626 10.4343 1.51407 10.2778 1.51407Z" fill="#EFF0FA"/>
<path d="M12.6389 3.87504C12.4823 3.87504 12.3322 3.93723 12.2215 4.04793C12.1108 4.15863 12.0486 4.30877 12.0486 4.46532V10.3681C12.0486 10.5246 12.1108 10.6748 12.2215 10.7855C12.3322 10.8962 12.4823 10.9584 12.6389 10.9584C12.7954 10.9584 12.9456 10.8962 13.0563 10.7855C13.167 10.6748 13.2291 10.5246 13.2291 10.3681V4.46532C13.2291 4.30877 13.167 4.15863 13.0563 4.04793C12.9456 3.93723 12.7954 3.87504 12.6389 3.87504Z" fill="#EFF0FA"/>
<path d="M14.4097 6.23601C14.2531 6.23601 14.103 6.2982 13.9923 6.4089C13.8816 6.51959 13.8194 6.66973 13.8194 6.82629V8.00684C13.8194 8.16339 13.8816 8.31353 13.9923 8.42423C14.103 8.53493 14.2531 8.59712 14.4097 8.59712C14.5662 8.59712 14.7164 8.53493 14.8271 8.42423C14.9378 8.31353 15 8.16339 15 8.00684V6.82629C15 6.66973 14.9378 6.51959 14.8271 6.4089C14.7164 6.2982 14.5662 6.23601 14.4097 6.23601Z" fill="#EFF0FA"/>
</svg>
