<svg width="17" height="16" viewBox="0 0 17 16" fill="none" xmlns="http://www.w3.org/2000/svg">
<path fill-rule="evenodd" clip-rule="evenodd" d="M13.4166 8.75004C12.5882 8.75004 11.9166 9.42161 11.9166 10.25C11.9166 11.0785 12.5882 11.75 13.4166 11.75C14.2451 11.75 14.9166 11.0785 14.9166 10.25C14.9166 9.42161 14.2451 8.75004 13.4166 8.75004ZM10.4166 10.25C10.4166 8.59318 11.7598 7.25004 13.4166 7.25004C15.0735 7.25004 16.4166 8.59318 16.4166 10.25C16.4166 11.9069 15.0735 13.25 13.4166 13.25C11.7598 13.25 10.4166 11.9069 10.4166 10.25Z" fill="white"/>
<path fill-rule="evenodd" clip-rule="evenodd" d="M6.66663 2C5.42399 2 4.41663 3.00736 4.41663 4.25C4.41663 5.49264 5.42399 6.5 6.66663 6.5C7.90927 6.5 8.91663 5.49264 8.91663 4.25C8.91663 3.00736 7.90927 2 6.66663 2ZM2.91663 4.25C2.91663 2.17893 4.59556 0.5 6.66663 0.5C8.73769 0.5 10.4166 2.17893 10.4166 4.25C10.4166 6.32107 8.73769 8 6.66663 8C4.59556 8 2.91663 6.32107 2.91663 4.25Z" fill="white"/>
<path fill-rule="evenodd" clip-rule="evenodd" d="M1.76498 10.5984C2.46824 9.8951 3.42206 9.50002 4.41663 9.50002H7.41663C7.83084 9.50002 8.16663 9.8358 8.16663 10.25C8.16663 10.6642 7.83084 11 7.41663 11H4.41663C3.81989 11 3.24759 11.2371 2.82564 11.659C2.40368 12.081 2.16663 12.6533 2.16663 13.25V14.75C2.16663 15.1642 1.83084 15.5 1.41663 15.5C1.00241 15.5 0.666626 15.1642 0.666626 14.75V13.25C0.666626 12.2555 1.06171 11.3016 1.76498 10.5984Z" fill="white"/>
<path fill-rule="evenodd" clip-rule="evenodd" d="M14.8052 10.8378C14.9362 10.4448 15.3609 10.2325 15.7539 10.3635L16.4289 10.5885C16.8218 10.7194 17.0342 11.1442 16.9032 11.5371C16.7722 11.9301 16.3475 12.1425 15.9545 12.0115L15.2795 11.7865C14.8866 11.6555 14.6742 11.2308 14.8052 10.8378Z" fill="white"/>
<path fill-rule="evenodd" clip-rule="evenodd" d="M9.93017 8.9628C10.0612 8.56984 10.4859 8.35747 10.8789 8.48846L11.5539 8.71346C11.9468 8.84444 12.1592 9.26918 12.0282 9.66214C11.8972 10.0551 11.4725 10.2675 11.0795 10.1365L10.4045 9.91148C10.0116 9.7805 9.79918 9.35576 9.93017 8.9628Z" fill="white"/>
<path fill-rule="evenodd" clip-rule="evenodd" d="M12.8288 11.6385C13.2218 11.7695 13.4342 12.1943 13.3032 12.5872L13.0782 13.2622C12.9472 13.6552 12.5224 13.8676 12.1295 13.7366C11.7365 13.6056 11.5242 13.1808 11.6551 12.7879L11.8801 12.1129C12.0111 11.7199 12.4359 11.5076 12.8288 11.6385Z" fill="white"/>
<path fill-rule="evenodd" clip-rule="evenodd" d="M14.7038 6.76351C15.0968 6.89449 15.3092 7.31923 15.1782 7.71219L14.9532 8.38719C14.8222 8.78015 14.3974 8.99252 14.0045 8.86153C13.6115 8.73055 13.3992 8.30581 13.5301 7.91285L13.7551 7.23785C13.8861 6.84489 14.3109 6.63252 14.7038 6.76351Z" fill="white"/>
<path fill-rule="evenodd" clip-rule="evenodd" d="M14.0381 11.5786C14.4227 11.4248 14.8591 11.6118 15.013 11.9964L15.313 12.7464C15.4668 13.131 15.2797 13.5675 14.8951 13.7213C14.5106 13.8752 14.0741 13.6881 13.9202 13.3035L13.6202 12.5535C13.4664 12.1689 13.6535 11.7325 14.0381 11.5786Z" fill="white"/>
<path fill-rule="evenodd" clip-rule="evenodd" d="M11.9381 6.77866C12.3227 6.62482 12.7592 6.81188 12.913 7.19647L13.213 7.94647C13.3668 8.33106 13.1798 8.76754 12.7952 8.92137C12.4106 9.07521 11.9741 8.88814 11.8203 8.50356L11.5203 7.75356C11.3664 7.36897 11.5535 6.93249 11.9381 6.77866Z" fill="white"/>
<path fill-rule="evenodd" clip-rule="evenodd" d="M12.088 10.8714C12.2419 11.256 12.0548 11.6925 11.6702 11.8463L10.9202 12.1463C10.5356 12.3001 10.0992 12.1131 9.94532 11.7285C9.79149 11.3439 9.97855 10.9074 10.3631 10.7536L11.1131 10.4536C11.4977 10.2997 11.9342 10.4868 12.088 10.8714Z" fill="white"/>
<path fill-rule="evenodd" clip-rule="evenodd" d="M16.888 8.77147C17.0418 9.15606 16.8547 9.59253 16.4701 9.74637L15.7201 10.0464C15.3356 10.2002 14.8991 10.0131 14.7452 9.62856C14.5914 9.24397 14.7785 8.80749 15.1631 8.65365L15.9131 8.35365C16.2977 8.19982 16.7341 8.38688 16.888 8.77147Z" fill="white"/>
</svg>
