<svg xmlns="http://www.w3.org/2000/svg" width="21" height="20" fill="none" viewBox="0 0 21 20"><g fill="#EFF0FA"><path fill-rule="evenodd" d="M16.123 2.167c-.539 0-1.055.214-1.436.594L8.64 8.807l-.001.001-.001.002-.985.985a.621.621 0 0 0-.168.28l-.867 2.847a.625.625 0 0 0 .78.78l2.848-.867a.62.62 0 0 0 .28-.168l7.033-7.033a2.031 2.031 0 0 0-1.437-3.468Zm-7.483 8.41.442-.443 1.105 1.105-.442.442-1.589.484.484-1.589ZM9.966 9.25l1.105 1.105 5.605-5.605a.781.781 0 0 0-1.105-1.105L9.966 9.25Z" clip-rule="evenodd"/><path d="M4.875 13.416a2.031 2.031 0 0 0 0 4.063h9.844a.625.625 0 0 0 0-1.25H4.875a.781.781 0 1 1 0-1.563h.467a.625.625 0 1 0 0-1.25h-.467Z"/></g></svg>