<svg xmlns="http://www.w3.org/2000/svg" width="56" height="56" fill="none" viewBox="0 0 56 56"><path fill="#EFF0FA" fill-rule="evenodd" d="M20.782 24.194h20.99c3.15 0 5.725 2.576 5.725 5.724v13.357A5.73 5.73 0 0 1 41.773 49H15.058c-3.149 0-5.725-2.576-5.725-5.725V29.918c0-3.148 2.576-5.724 5.725-5.724h1.908v-5.725a11.47 11.47 0 0 1 2.958-7.69 11.422 11.422 0 0 1 7.346-3.721 11.469 11.469 0 0 1 7.938 2.175 11.452 11.452 0 0 1 4.427 6.946 1.912 1.912 0 0 1-1.488 2.252 1.912 1.912 0 0 1-2.252-1.489 7.749 7.749 0 0 0-2.957-4.637 7.63 7.63 0 0 0-12.155 6.164v5.724Zm-7.632 5.724c0-1.05.858-1.908 1.908-1.908h26.715c1.05 0 1.908.859 1.908 1.908v13.357c0 1.05-.859 1.909-1.908 1.909H15.058a1.914 1.914 0 0 1-1.908-1.909V29.918Z" clip-rule="evenodd"/></svg>