<svg xmlns="http://www.w3.org/2000/svg" width="64" height="64" fill="none" viewBox="0 0 64 64"><path fill="#C48C00" d="M58.667 49.334H5.333V56A2.666 2.666 0 0 0 8 58.667h48A2.666 2.666 0 0 0 58.667 56v-6.666Z"/><path fill="url(#a)" d="M14.667 17.333v4H20v-4c0-6.628 5.372-12 12-12s12 5.372 12 12v4h5.333v-4C49.333 7.76 41.573 0 32 0c-9.573 0-17.333 7.76-17.333 17.333Z"/><path fill="#FAD500" d="M58.667 30.667H5.333V24A2.666 2.666 0 0 1 8 21.334h48A2.666 2.666 0 0 1 58.667 24v6.667Z"/><path fill="#EDBE00" d="M58.667 30.666H5.333V40h53.334v-9.334Z"/><path fill="#E3A600" d="M58.667 40H5.333v9.333h53.334V40Z"/><path fill="#3B3B3B" d="M48 42.667a2.667 2.667 0 1 0 0-5.334 2.667 2.667 0 0 0 0 5.334Zm-10.667 0a2.667 2.667 0 1 0 0-5.334 2.667 2.667 0 0 0 0 5.334Zm-10.666 0a2.667 2.667 0 1 0 0-5.333 2.667 2.667 0 0 0 0 5.333Zm-10.667 0a2.667 2.667 0 1 0 0-5.334 2.667 2.667 0 0 0 0 5.334Z"/><defs><linearGradient id="a" x1="32" x2="32" y1="20.863" y2="-.395" gradientUnits="userSpaceOnUse"><stop stop-color="#92A3B0"/><stop offset=".015" stop-color="#A3B5C4"/><stop offset=".032" stop-color="#AEC2D1"/><stop offset=".046" stop-color="#B2C6D6"/></linearGradient></defs></svg>