<svg xmlns="http://www.w3.org/2000/svg" width="80" height="80" fill="none" viewBox="0 0 80 80"><path fill="url(#a)" d="M73.402 40.203c0 18.409-14.925 33.334-33.334 33.334-18.408 0-33.333-14.925-33.333-33.334C6.735 21.795 21.66 6.87 40.068 6.87c18.409 0 33.334 14.925 33.334 33.333Z"/><path fill="url(#b)" d="M28.25 30.355v2.727h3.637v-2.727a8.182 8.182 0 0 1 16.363 0v2.727h3.637v-2.727c0-6.527-5.292-11.818-11.819-11.818-6.526 0-11.818 5.291-11.818 11.818Z"/><path fill="#C48C00" d="M55 58.333H25A3.332 3.332 0 0 1 21.667 55v-3.333h36.666V55A3.332 3.332 0 0 1 55 58.333Z"/><path fill="#EDBE00" d="M58.333 38.333H21.667V45h36.666v-6.667Z"/><path fill="#E3A600" d="M58.333 45H21.667v6.667h36.666V45Z"/><path fill="#FAD500" d="M58.333 38.333H21.667V35A3.332 3.332 0 0 1 25 31.667h30A3.332 3.332 0 0 1 58.333 35v3.333Z"/><path fill="url(#c)" d="M43.333 43.333a3.332 3.332 0 1 0-6.666 0c0 1.23.675 2.294 1.666 2.872v2.128a1.667 1.667 0 0 0 3.334 0v-2.128a3.323 3.323 0 0 0 1.666-2.872Z"/><defs><linearGradient id="a" x1="11.181" x2="46.309" y1="11.316" y2="46.444" gradientUnits="userSpaceOnUse"><stop stop-color="#F44F5A"/><stop offset=".443" stop-color="#EE3D4A"/><stop offset="1" stop-color="#E52030"/></linearGradient><linearGradient id="b" x1="40.068" x2="40.068" y1="30.668" y2="16.175" gradientUnits="userSpaceOnUse"><stop stop-color="#92A3B0"/><stop offset=".015" stop-color="#A3B5C4"/><stop offset=".032" stop-color="#AEC2D1"/><stop offset=".046" stop-color="#B2C6D6"/></linearGradient><linearGradient id="c" x1="40" x2="40" y1="50.097" y2="40.485" gradientUnits="userSpaceOnUse"><stop stop-color="#4B4B4B"/><stop offset="1" stop-color="#3B3B3B"/></linearGradient></defs></svg>