<svg width="22" height="29" viewBox="0 0 22 29" fill="none" xmlns="http://www.w3.org/2000/svg">
<path d="M20.3403 11.2168L5.91282 0.669523C5.42864 0.315642 4.84164 0.0912882 4.21997 0.0225077C3.59831 -0.0462728 2.96748 0.043342 2.40073 0.280948C1.83397 0.518553 1.35455 0.894403 1.01811 1.36486C0.681665 1.83532 0.50201 2.38109 0.5 2.9388V25.1028C0.502357 25.6602 0.682122 26.2055 1.01845 26.6756C1.35478 27.1457 1.8339 27.5213 2.40024 27.7589C2.96658 27.9964 3.59696 28.0861 4.21826 28.0177C4.83957 27.9492 5.42635 27.7254 5.91057 27.3721L20.3403 16.8249C20.8051 16.4854 21.1795 16.0583 21.4366 15.5745C21.6937 15.0907 21.827 14.5621 21.827 14.0268C21.827 13.4916 21.6937 12.963 21.4366 12.4792C21.1795 11.9953 20.8051 11.5683 20.3403 11.2288V11.2168Z" fill="white"/>
</svg>
