<svg width="21" height="20" viewBox="0 0 21 20" fill="none" xmlns="http://www.w3.org/2000/svg">
<g id="Poll, Vote">
<path id="Union" fill-rule="evenodd" clip-rule="evenodd" d="M6.74996 5.75C6.33917 5.75 5.99996 6.08921 5.99996 6.5V14.75H15V6.5C15 6.30109 14.9209 6.11032 14.7803 5.96967C14.6396 5.82902 14.4489 5.75 14.25 5.75H6.74996ZM16.5 14.75V6.5C16.5 5.90326 16.2629 5.33097 15.841 4.90901C15.419 4.48705 14.8467 4.25 14.25 4.25H6.74996C5.51075 4.25 4.49996 5.26079 4.49996 6.5V14.75H3C2.58579 14.75 2.25 15.0858 2.25 15.5C2.25 15.9142 2.58579 16.25 3 16.25H5.24442C5.24627 16.25 5.24811 16.25 5.24996 16.25H15.75C15.7518 16.25 15.7537 16.25 15.7555 16.25H18C18.4142 16.25 18.75 15.9142 18.75 15.5C18.75 15.0858 18.4142 14.75 18 14.75H16.5ZM8.25004 10.25L9.75004 11.75L12.75 8.75L8.25004 10.25Z" fill="white"/>
</g>
</svg>
