<svg width="33" height="32" viewBox="0 0 33 32" fill="none" xmlns="http://www.w3.org/2000/svg">
<g id="Icon/Left">
<g id="Vector">
<path d="M16.7816 11.6628C16.2737 11.5757 15.7515 11.6712 15.3072 11.9322C14.863 12.1933 14.5255 12.6032 14.3545 13.0892C14.1546 13.6576 13.5318 13.9562 12.9634 13.7563C12.3951 13.5564 12.0964 12.9336 12.2964 12.3652C12.6383 11.3931 13.3133 10.5734 14.2018 10.0512C15.0902 9.52907 16.1348 9.33821 17.1504 9.51242C18.1661 9.68664 19.0874 10.2147 19.751 11.0031C20.4145 11.7913 20.7778 12.7888 20.7764 13.8191C20.7759 15.4886 19.5381 16.5911 18.6542 17.1804C18.179 17.4972 17.7115 17.7301 17.3672 17.8832C17.1934 17.9604 17.0471 18.019 16.9417 18.0592C16.8889 18.0793 16.8461 18.0949 16.8149 18.1059L16.7771 18.1192L16.765 18.1233L16.7607 18.1248L16.7591 18.1253C16.7591 18.1253 16.7577 18.1258 16.4127 17.0909L16.7577 18.1258C16.1861 18.3163 15.5683 18.0074 15.3778 17.4358C15.1874 16.8646 15.4958 16.2473 16.0666 16.0563L16.084 16.0502C16.1008 16.0442 16.1283 16.0343 16.165 16.0203C16.2386 15.9923 16.3479 15.9486 16.481 15.8894C16.7503 15.7697 17.101 15.5936 17.444 15.365C18.1963 14.8635 18.5945 14.3299 18.5945 13.8181L18.5945 13.8165C18.5953 13.3012 18.4137 12.8023 18.0819 12.4082C17.7501 12.014 17.2894 11.7499 16.7816 11.6628Z" fill="#EFF0FA"/>
<path d="M16.5 20.3636C15.8975 20.3636 15.4091 20.852 15.4091 21.4545C15.4091 22.057 15.8975 22.5454 16.5 22.5454H16.5109C17.1134 22.5454 17.6018 22.057 17.6018 21.4545C17.6018 20.852 17.1134 20.3636 16.5109 20.3636H16.5Z" fill="#EFF0FA"/>
<path fill-rule="evenodd" clip-rule="evenodd" d="M4.5 16C4.5 9.37258 9.87258 4 16.5 4C23.1274 4 28.5 9.37258 28.5 16C28.5 22.6274 23.1274 28 16.5 28C9.87258 28 4.5 22.6274 4.5 16ZM16.5 6.18182C11.0776 6.18182 6.68182 10.5776 6.68182 16C6.68182 21.4224 11.0776 25.8182 16.5 25.8182C21.9224 25.8182 26.3182 21.4224 26.3182 16C26.3182 10.5776 21.9224 6.18182 16.5 6.18182Z" fill="#EFF0FA"/>
</g>
</g>
</svg>
