<svg xmlns="http://www.w3.org/2000/svg" width="24" height="24" fill="none" viewBox="0 0 24 24"><g fill="#EFF0FA"><path d="M18.902 17.074a8.504 8.504 0 0 0 1.681-5.067c0-4.698-3.893-8.583-8.6-8.583a8.494 8.494 0 0 0-5.056 1.674L8.14 6.313a6.827 6.827 0 0 1 3.842-1.17 6.86 6.86 0 0 1 6.882 6.864 6.83 6.83 0 0 1-1.172 3.857l1.21 1.21Zm-2.964.571 1.206 1.206a8.525 8.525 0 0 1-5.152 1.739c-4.699 0-8.583-3.885-8.583-8.583 0-1.924.65-3.711 1.74-5.151l1.213 1.213a6.866 6.866 0 0 0-1.227 3.938 6.84 6.84 0 0 0 6.857 6.873c1.47 0 2.83-.456 3.946-1.235Z"/><path d="M15.028 13.2a3.28 3.28 0 0 0 .226-1.201A3.254 3.254 0 0 0 12 8.745c-.425 0-.83.08-1.2.226l4.228 4.229Zm-6.025-2.49 4.286 4.286a3.25 3.25 0 0 1-1.289.265 3.252 3.252 0 0 1-3.262-3.262c0-.458.094-.893.265-1.289ZM2.53 3.53a.75.75 0 0 1 1.061-1.06L21.76 20.638A.75.75 0 0 1 20.7 21.7L2.53 3.53Z"/></g></svg>