<svg width="21" height="20" viewBox="0 0 21 20" fill="none" xmlns="http://www.w3.org/2000/svg">
<path fill-rule="evenodd" clip-rule="evenodd" d="M10.5 3.86364C7.11098 3.86364 4.36364 6.61098 4.36364 10C4.36364 13.389 7.11098 16.1364 10.5 16.1364C13.889 16.1364 16.6364 13.389 16.6364 10C16.6364 6.61098 13.889 3.86364 10.5 3.86364ZM3 10C3 5.85786 6.35786 2.5 10.5 2.5C14.6421 2.5 18 5.85786 18 10C18 14.1421 14.6421 17.5 10.5 17.5C6.35786 17.5 3 14.1421 3 10ZM9.13634 7.27274C9.5129 7.27274 9.81816 7.578 9.81816 7.95456V12.0455C9.81816 12.422 9.5129 12.7273 9.13634 12.7273C8.75978 12.7273 8.45452 12.422 8.45452 12.0455V7.95456C8.45452 7.578 8.75978 7.27274 9.13634 7.27274ZM12.5455 7.95456C12.5455 7.578 12.2402 7.27274 11.8636 7.27274C11.4871 7.27274 11.1818 7.578 11.1818 7.95456V12.0455C11.1818 12.422 11.4871 12.7273 11.8636 12.7273C12.2402 12.7273 12.5455 12.422 12.5455 12.0455V7.95456Z" fill="#EFF0FA"/>
</svg>
