<svg width="31" height="30" viewBox="0 0 31 30" fill="none" xmlns="http://www.w3.org/2000/svg">
<path fill-rule="evenodd" clip-rule="evenodd" d="M15.1667 2.72727C8.38865 2.72727 2.89396 8.22196 2.89396 15C2.89396 21.778 8.38865 27.2727 15.1667 27.2727C21.9447 27.2727 27.4394 21.778 27.4394 15C27.4394 8.22196 21.9447 2.72727 15.1667 2.72727ZM0.166687 15C0.166687 6.71573 6.88242 0 15.1667 0C23.451 0 30.1667 6.71573 30.1667 15C30.1667 23.2843 23.451 30 15.1667 30C6.88242 30 0.166687 23.2843 0.166687 15ZM20.2218 9.94488C20.7544 10.4774 20.7544 11.3408 20.2218 11.8734L17.0951 15L20.2218 18.1267C20.7544 18.6592 20.7544 19.5226 20.2218 20.0552C19.6893 20.5877 18.8259 20.5877 18.2933 20.0552L15.1667 16.9285L12.04 20.0552C11.5075 20.5877 10.6441 20.5877 10.1115 20.0552C9.579 19.5226 9.579 18.6592 10.1115 18.1267L13.2382 15L10.1115 11.8734C9.579 11.3408 9.579 10.4774 10.1115 9.94488C10.6441 9.41235 11.5075 9.41235 12.04 9.94488L15.1667 13.0716L18.2933 9.94488C18.8259 9.41235 19.6893 9.41235 20.2218 9.94488Z" fill="#EFF0FA"/>
</svg>
