<svg width="24" height="16" viewBox="0 0 24 16" fill="none" xmlns="http://www.w3.org/2000/svg">
<path fill-rule="evenodd" clip-rule="evenodd" d="M11.6666 12.6667C11.5644 12.6667 11.4814 12.7497 11.4814 12.8519C11.4814 12.9542 11.5644 13.0371 11.6666 13.0371C11.7689 13.0371 11.8518 12.9542 11.8518 12.8519C11.8518 12.7497 11.7689 12.6667 11.6666 12.6667ZM9.48145 12.8519C9.48145 11.6451 10.4598 10.6667 11.6666 10.6667C12.8735 10.6667 13.8518 11.6451 13.8518 12.8519C13.8518 14.0588 12.8735 15.0371 11.6666 15.0371C10.4598 15.0371 9.48145 14.0588 9.48145 12.8519Z" fill="white"/>
<path fill-rule="evenodd" clip-rule="evenodd" d="M22.3333 0C22.8856 0 23.3333 0.447715 23.3333 1V8.11111C23.3333 8.6634 22.8856 9.11111 22.3333 9.11111H15.2222C14.6699 9.11111 14.2222 8.6634 14.2222 8.11111C14.2222 7.55883 14.6699 7.11111 15.2222 7.11111H21.3333V1C21.3333 0.447715 21.781 0 22.3333 0Z" fill="white"/>
<path fill-rule="evenodd" clip-rule="evenodd" d="M11.6662 3.1853C9.1026 3.18543 6.64404 4.20386 4.8313 6.0166C3.01845 7.82946 2 10.2882 2 12.852C2 13.4043 1.55228 13.852 1 13.852C0.447715 13.852 0 13.4043 0 12.852C0 9.75778 1.22916 6.79031 3.41709 4.60239C5.60501 2.41447 8.57248 1.1853 11.6667 1.1853H11.6677C14.5388 1.18823 17.3081 2.24977 19.4455 4.16679L19.4467 4.16793L23.0023 7.36793C23.4128 7.73739 23.4461 8.36968 23.0766 8.78019C22.7072 9.1907 22.0749 9.22398 21.6644 8.85452L18.1101 5.65567C18.1098 5.6554 18.1095 5.65513 18.1092 5.65486C16.3385 4.06711 14.0445 3.18786 11.6662 3.1853Z" fill="white"/>
</svg>
