<svg width="24" height="16" viewBox="0 0 24 16" fill="none" xmlns="http://www.w3.org/2000/svg">
<path fill-rule="evenodd" clip-rule="evenodd" d="M11.6669 12.6667C11.7691 12.6667 11.8521 12.7497 11.8521 12.8519C11.8521 12.9542 11.7691 13.0371 11.6669 13.0371C11.5646 13.0371 11.4817 12.9542 11.4817 12.8519C11.4817 12.7497 11.5646 12.6667 11.6669 12.6667ZM13.8521 12.8519C13.8521 11.6451 12.8737 10.6667 11.6669 10.6667C10.46 10.6667 9.48168 11.6451 9.48168 12.8519C9.48168 14.0588 10.46 15.0371 11.6669 15.0371C12.8737 15.0371 13.8521 14.0588 13.8521 12.8519Z" fill="white"/>
<path fill-rule="evenodd" clip-rule="evenodd" d="M1.00022 0C0.447932 0 0.000217438 0.447715 0.000217438 1V8.11111C0.000217438 8.6634 0.447932 9.11111 1.00022 9.11111H8.11133C8.66361 9.11111 9.11133 8.6634 9.11133 8.11111C9.11133 7.55883 8.66361 7.11111 8.11133 7.11111H2.00022V1C2.00022 0.447715 1.5525 0 1.00022 0Z" fill="white"/>
<path fill-rule="evenodd" clip-rule="evenodd" d="M11.6673 3.1853C14.2309 3.18543 16.6895 4.20386 18.5022 6.0166C20.315 7.82946 21.3335 10.2882 21.3335 12.852C21.3335 13.4043 21.7812 13.852 22.3335 13.852C22.8858 13.852 23.3335 13.4043 23.3335 12.852C23.3335 9.75778 22.1043 6.79031 19.9164 4.60239C17.7285 2.41447 14.761 1.1853 11.6668 1.1853H11.6658C8.79467 1.18823 6.02544 2.24977 3.88803 4.16679L3.88675 4.16793L0.331198 7.36793C-0.0793114 7.73739 -0.112589 8.36968 0.25687 8.78019C0.626329 9.1907 1.25862 9.22398 1.66913 8.85452L5.2234 5.65567C5.22371 5.6554 5.22401 5.65513 5.22431 5.65486C6.99504 4.06711 9.28896 3.18786 11.6673 3.1853Z" fill="white"/>
</svg>
