<svg xmlns="http://www.w3.org/2000/svg" width="24" height="24" fill="none" viewBox="0 0 24 24"><path fill="#fff" fill-rule="evenodd" d="M4.7 3.195c.394-.07.8-.013 1.16.164l.007.004 14.26 7.245a1.314 1.314 0 0 1 .718 1.162v.01a1.313 1.313 0 0 1-.717 1.168L5.859 20.206a1.875 1.875 0 0 1-2.451-2.622l3.554-5.806-3.554-5.796A1.875 1.875 0 0 1 4.7 3.195Zm13.623 7.832L5.193 4.703a.375.375 0 0 0-.496.511l3.74 5.813h9.886Zm-9.924 1.5h9.924l-13.13 6.335a.374.374 0 0 1-.496-.511L8.4 12.527Z" clip-rule="evenodd"/></svg>