<svg width="12" height="12" viewBox="0 0 12 12" fill="none" xmlns="http://www.w3.org/2000/svg">
<mask id="path-1-inside-1_9518_1222" fill="white">
<path d="M10.4307 12C10.3842 12 10.3377 12 10.286 11.9948C8.61677 11.8139 6.99403 11.2351 5.59352 10.3256C4.29119 9.4987 3.16458 8.37208 2.3377 7.06976C1.42814 5.66407 0.849331 4.03617 0.67362 2.36691C0.652948 2.14469 0.678788 1.93281 0.745972 1.72609C0.813155 1.51937 0.92685 1.33332 1.07155 1.17312C1.21626 1.01291 1.39197 0.888879 1.58835 0.801023C1.7899 0.713168 2.00179 0.666656 2.21884 0.666656H3.76923C4.13098 0.666656 4.50308 0.795855 4.79248 1.04392C5.07672 1.28681 5.26277 1.6279 5.31445 1.99999C5.37646 2.45994 5.49016 2.91472 5.65036 3.34366C5.75372 3.62273 5.77956 3.92247 5.71238 4.21188C5.65036 4.50128 5.50566 4.77002 5.29894 4.97673L4.92685 5.34883C5.53667 6.29973 6.34287 7.1111 7.29894 7.72092L7.67104 7.34883C7.88292 7.13694 8.15166 6.99224 8.44106 6.93539C8.73047 6.87337 9.03021 6.89405 9.30928 6.99741C9.73822 7.15761 10.193 7.27131 10.6478 7.33332C11.0302 7.385 11.3713 7.57622 11.6194 7.86562C11.8623 8.15503 11.9966 8.52195 11.9863 8.89921V10.4444C11.9863 10.6615 11.9449 10.8682 11.8571 11.0698C11.7692 11.2661 11.64 11.447 11.485 11.5917C11.3248 11.7364 11.1387 11.8501 10.932 11.9173C10.7666 11.9742 10.6013 12 10.4307 12ZM3.77956 1.70025H2.21884C2.14649 1.70025 2.0793 1.71575 2.01212 1.74676C1.94494 1.7726 1.88292 1.81394 1.83641 1.86562C1.78473 1.9173 1.74856 1.97932 1.72788 2.05167C1.70721 2.11885 1.69688 2.1912 1.70204 2.26356C1.86225 3.76743 2.38421 5.23513 3.20592 6.51162C3.95527 7.68991 4.97336 8.708 6.15166 9.45735C7.42297 10.2842 8.89067 10.801 10.3894 10.9664C10.4514 10.9716 10.5237 10.9612 10.5909 10.9406C10.6581 10.9199 10.7201 10.8785 10.777 10.832C10.8338 10.7855 10.8752 10.7235 10.901 10.6563C10.932 10.5891 10.9424 10.5168 10.9424 10.4444V8.89405C10.9424 8.88888 10.9424 8.88371 10.9424 8.88371C10.9475 8.75451 10.901 8.63565 10.8183 8.53746C10.7356 8.43927 10.6219 8.37725 10.4979 8.36175C9.97078 8.29456 9.44365 8.1602 8.93719 7.97415C8.84416 7.93797 8.7408 7.93281 8.64778 7.95348C8.54959 7.97415 8.46173 8.02066 8.38938 8.09301L7.73822 8.74934C7.57285 8.91472 7.31961 8.94573 7.11806 8.83203C5.74339 8.05167 4.60644 6.90955 3.82091 5.54004C3.71238 5.32299 3.74339 5.06976 3.90876 4.90438L4.56509 4.24805C4.63228 4.18087 4.67879 4.09301 4.69946 3.99482C4.72013 3.89663 4.71496 3.79844 4.67879 3.70542C4.48757 3.19896 4.35837 2.67182 4.28602 2.13952C4.27052 2.02066 4.2085 1.90697 4.11548 1.82428C4.02246 1.74676 3.90359 1.70025 3.77956 1.70025Z"/>
</mask>
<path d="M10.4307 12C10.3842 12 10.3377 12 10.286 11.9948C8.61677 11.8139 6.99403 11.2351 5.59352 10.3256C4.29119 9.4987 3.16458 8.37208 2.3377 7.06976C1.42814 5.66407 0.849331 4.03617 0.67362 2.36691C0.652948 2.14469 0.678788 1.93281 0.745972 1.72609C0.813155 1.51937 0.92685 1.33332 1.07155 1.17312C1.21626 1.01291 1.39197 0.888879 1.58835 0.801023C1.7899 0.713168 2.00179 0.666656 2.21884 0.666656H3.76923C4.13098 0.666656 4.50308 0.795855 4.79248 1.04392C5.07672 1.28681 5.26277 1.6279 5.31445 1.99999C5.37646 2.45994 5.49016 2.91472 5.65036 3.34366C5.75372 3.62273 5.77956 3.92247 5.71238 4.21188C5.65036 4.50128 5.50566 4.77002 5.29894 4.97673L4.92685 5.34883C5.53667 6.29973 6.34287 7.1111 7.29894 7.72092L7.67104 7.34883C7.88292 7.13694 8.15166 6.99224 8.44106 6.93539C8.73047 6.87337 9.03021 6.89405 9.30928 6.99741C9.73822 7.15761 10.193 7.27131 10.6478 7.33332C11.0302 7.385 11.3713 7.57622 11.6194 7.86562C11.8623 8.15503 11.9966 8.52195 11.9863 8.89921V10.4444C11.9863 10.6615 11.9449 10.8682 11.8571 11.0698C11.7692 11.2661 11.64 11.447 11.485 11.5917C11.3248 11.7364 11.1387 11.8501 10.932 11.9173C10.7666 11.9742 10.6013 12 10.4307 12ZM3.77956 1.70025H2.21884C2.14649 1.70025 2.0793 1.71575 2.01212 1.74676C1.94494 1.7726 1.88292 1.81394 1.83641 1.86562C1.78473 1.9173 1.74856 1.97932 1.72788 2.05167C1.70721 2.11885 1.69688 2.1912 1.70204 2.26356C1.86225 3.76743 2.38421 5.23513 3.20592 6.51162C3.95527 7.68991 4.97336 8.708 6.15166 9.45735C7.42297 10.2842 8.89067 10.801 10.3894 10.9664C10.4514 10.9716 10.5237 10.9612 10.5909 10.9406C10.6581 10.9199 10.7201 10.8785 10.777 10.832C10.8338 10.7855 10.8752 10.7235 10.901 10.6563C10.932 10.5891 10.9424 10.5168 10.9424 10.4444V8.89405C10.9424 8.88888 10.9424 8.88371 10.9424 8.88371C10.9475 8.75451 10.901 8.63565 10.8183 8.53746C10.7356 8.43927 10.6219 8.37725 10.4979 8.36175C9.97078 8.29456 9.44365 8.1602 8.93719 7.97415C8.84416 7.93797 8.7408 7.93281 8.64778 7.95348C8.54959 7.97415 8.46173 8.02066 8.38938 8.09301L7.73822 8.74934C7.57285 8.91472 7.31961 8.94573 7.11806 8.83203C5.74339 8.05167 4.60644 6.90955 3.82091 5.54004C3.71238 5.32299 3.74339 5.06976 3.90876 4.90438L4.56509 4.24805C4.63228 4.18087 4.67879 4.09301 4.69946 3.99482C4.72013 3.89663 4.71496 3.79844 4.67879 3.70542C4.48757 3.19896 4.35837 2.67182 4.28602 2.13952C4.27052 2.02066 4.2085 1.90697 4.11548 1.82428C4.02246 1.74676 3.90359 1.70025 3.77956 1.70025Z" fill="white"/>
<path d="M10.286 11.9948L10.1514 13.2376L10.1617 13.2386L10.286 11.9948ZM5.59352 10.3256L6.27438 9.2772L6.26353 9.2703L5.59352 10.3256ZM2.3377 7.06976L3.39301 6.39972L3.38717 6.39069L2.3377 7.06976ZM0.67362 2.36691L-0.571006 2.48269L-0.570305 2.49024L-0.569512 2.49777L0.67362 2.36691ZM0.745972 1.72609L-0.442821 1.33973V1.33973L0.745972 1.72609ZM1.58835 0.801023L1.08884 -0.344899L1.07789 -0.339999L1.58835 0.801023ZM4.79248 1.04392L3.97899 1.99299L3.98042 1.99421L4.79248 1.04392ZM5.31445 1.99999L6.55325 1.83296L6.55256 1.82803L5.31445 1.99999ZM5.65036 3.34366L6.82256 2.90951L6.82135 2.9063L5.65036 3.34366ZM5.71238 4.21188L4.49476 3.92921L4.49235 3.93957L4.49013 3.94997L5.71238 4.21188ZM4.92685 5.34883L4.04297 4.46494L3.33139 5.17652L3.87463 6.02362L4.92685 5.34883ZM7.29894 7.72092L6.62674 8.77479L7.47304 9.31459L8.18283 8.6048L7.29894 7.72092ZM7.67104 7.34883L8.55492 8.23271L8.55492 8.23271L7.67104 7.34883ZM8.44106 6.93539L8.68199 8.16195L8.6925 8.15989L8.70297 8.15764L8.44106 6.93539ZM9.30928 6.99741L9.74664 5.82641L9.74342 5.82522L9.30928 6.99741ZM10.6478 7.33332L10.4789 8.57186L10.4804 8.57206L10.6478 7.33332ZM11.6194 7.86562L12.5769 7.06199L12.5684 7.05213L11.6194 7.86562ZM11.9863 8.89921L10.7367 8.86498L10.7363 8.88209V8.89921H11.9863ZM11.8571 11.0698L12.9982 11.5802L13.003 11.5692L11.8571 11.0698ZM11.485 11.5917L12.3228 12.5194L12.3304 12.5125L12.3379 12.5055L11.485 11.5917ZM10.932 11.9173L10.5457 10.7285L10.5356 10.7318L10.5257 10.7352L10.932 11.9173ZM2.01212 1.74676L2.46084 2.91344L2.49891 2.8988L2.53594 2.88171L2.01212 1.74676ZM1.83641 1.86562L2.72029 2.74951L2.74354 2.72626L2.76553 2.70183L1.83641 1.86562ZM1.72788 2.05167L2.92261 2.41928L2.92632 2.40721L2.92979 2.39507L1.72788 2.05167ZM1.70204 2.26356L0.455221 2.35261L0.456771 2.37432L0.459077 2.39597L1.70204 2.26356ZM3.20592 6.51162L4.2607 5.84081L4.25698 5.83503L3.20592 6.51162ZM6.15166 9.45735L6.83323 8.40944L6.82245 8.40259L6.15166 9.45735ZM10.3894 10.9664L10.2523 12.2089L10.2689 12.2107L10.2856 12.2121L10.3894 10.9664ZM10.5909 10.9406L10.2233 9.74583L10.2233 9.74583L10.5909 10.9406ZM10.777 10.832L11.5685 11.7995L11.5685 11.7995L10.777 10.832ZM10.901 10.6563L9.76606 10.1325L9.74897 10.1695L9.73433 10.2076L10.901 10.6563ZM10.9424 8.88371L9.69335 8.83374L9.69235 8.85872V8.88371H10.9424ZM10.8183 8.53746L11.7745 7.73229L11.7745 7.73228L10.8183 8.53746ZM10.4979 8.36175L10.3399 9.60172L10.3429 9.60209L10.4979 8.36175ZM8.93719 7.97415L8.48413 9.13916L8.49511 9.14342L8.50616 9.14749L8.93719 7.97415ZM8.64778 7.95348L8.90531 9.17674L8.91894 9.17371L8.64778 7.95348ZM8.38938 8.09301L7.50549 7.20912L7.50201 7.21263L8.38938 8.09301ZM7.73822 8.74934L8.62211 9.63323L8.62559 9.62973L7.73822 8.74934ZM7.11806 8.83203L6.50097 9.9191L6.50391 9.92075L7.11806 8.83203ZM3.82091 5.54004L2.70287 6.09906L2.71884 6.131L2.73661 6.16198L3.82091 5.54004ZM3.90876 4.90438L3.02488 4.0205L3.02488 4.0205L3.90876 4.90438ZM4.69946 3.99482L3.47627 3.73731L3.47627 3.73731L4.69946 3.99482ZM4.67879 3.70542L3.5093 4.14696L3.51378 4.15847L4.67879 3.70542ZM4.28602 2.13952L3.0465 2.3012L3.04741 2.30788L4.28602 2.13952ZM4.11548 1.82428L4.94594 0.890018L4.93103 0.876769L4.91571 0.864003L4.11548 1.82428ZM10.4307 10.75C10.4184 10.75 10.4111 10.75 10.4044 10.7499C10.3982 10.7499 10.3952 10.7498 10.3941 10.7498C10.3923 10.7498 10.399 10.7499 10.4104 10.751L10.1617 13.2386C10.2839 13.2508 10.3894 13.25 10.4307 13.25V10.75ZM10.4207 10.7521C8.94625 10.5923 7.51059 10.0801 6.27434 9.27725L4.91269 11.3739C6.47748 12.3901 8.28729 13.0356 10.1514 13.2375L10.4207 10.7521ZM6.26353 9.2703C5.11638 8.54196 4.12131 7.54689 3.39297 6.39975L1.28244 7.73977C2.20784 9.19728 3.466 10.4554 4.92351 11.3808L6.26353 9.2703ZM3.38717 6.39069C2.58352 5.14869 2.07173 3.70837 1.91675 2.23606L-0.569512 2.49777C-0.37307 4.36397 0.272768 6.17946 1.28824 7.74882L3.38717 6.39069ZM1.91825 2.25114C1.91395 2.20491 1.9181 2.16372 1.93476 2.11245L-0.442821 1.33973C-0.560525 1.7019 -0.60805 2.08448 -0.571006 2.48269L1.91825 2.25114ZM1.93476 2.11245C1.94153 2.09164 1.95836 2.05617 1.99918 2.01097L0.143925 0.335259C-0.104663 0.61048 -0.315216 0.9471 -0.442821 1.33973L1.93476 2.11245ZM1.99918 2.01097C2.0198 1.98814 2.05034 1.96373 2.09881 1.94205L1.07789 -0.339999C0.733591 -0.18597 0.412709 0.037676 0.143925 0.335259L1.99918 2.01097ZM2.08783 1.94689C2.14128 1.92359 2.1837 1.91666 2.21884 1.91666V-0.583344C1.81987 -0.583344 1.43851 -0.497257 1.08887 -0.344846L2.08783 1.94689ZM2.21884 1.91666H3.76923V-0.583344H2.21884V1.91666ZM3.76923 1.91666C3.84359 1.91666 3.92435 1.94615 3.97899 1.99299L5.60597 0.0948467C5.0818 -0.354443 4.41838 -0.583344 3.76923 -0.583344V1.91666ZM3.98042 1.99421C4.0306 2.03709 4.06641 2.10053 4.07633 2.17195L6.55256 1.82803C6.45912 1.15526 6.12284 0.536536 5.60455 0.0936285L3.98042 1.99421ZM4.07566 2.16702C4.14995 2.71806 4.28612 3.26359 4.47937 3.78102L6.82135 2.9063C6.6942 2.56585 6.60297 2.20182 6.55324 1.83296L4.07566 2.16702ZM4.47818 3.7778C4.50385 3.84712 4.50209 3.89761 4.49476 3.92921L6.93 4.49454C7.05703 3.94733 7.0036 3.39834 6.82255 2.90952L4.47818 3.7778ZM4.49013 3.94997C4.47746 4.00908 4.4476 4.06032 4.41506 4.09285L6.18283 5.86062C6.56373 5.47972 6.82327 4.99348 6.93463 4.47379L4.49013 3.94997ZM4.41506 4.09285L4.04297 4.46494L5.81073 6.23271L6.18283 5.86062L4.41506 4.09285ZM3.87463 6.02362C4.58029 7.12396 5.51512 8.06576 6.62674 8.77479L7.97114 6.66705C7.17062 6.15645 6.49305 5.4755 5.97907 4.67404L3.87463 6.02362ZM8.18283 8.6048L8.55492 8.23271L6.78715 6.46494L6.41506 6.83704L8.18283 8.6048ZM8.55492 8.23271C8.59545 8.19218 8.64191 8.16982 8.68199 8.16195L8.20013 5.70883C7.6614 5.81465 7.1704 6.0817 6.78715 6.46494L8.55492 8.23271ZM8.70297 8.15764C8.76223 8.14495 8.82046 8.14934 8.87513 8.16959L9.74342 5.82522C9.23996 5.63875 8.69871 5.6018 8.17915 5.71314L8.70297 8.15764ZM8.87192 8.1684C9.38888 8.36148 9.93378 8.49753 10.4789 8.57186L10.8167 6.09478C10.4522 6.04509 10.0876 5.95375 9.74664 5.82642L8.87192 8.1684ZM10.4804 8.57206C10.5493 8.58137 10.6154 8.61504 10.6703 8.67911L12.5684 7.05213C12.1272 6.5374 11.5112 6.18863 10.8152 6.09458L10.4804 8.57206ZM10.6619 8.66921C10.7179 8.73591 10.7383 8.80794 10.7367 8.86498L13.2358 8.93345C13.2549 8.23597 13.0066 7.57415 12.5768 7.06203L10.6619 8.66921ZM10.7363 8.89921V10.4444H13.2363V8.89921H10.7363ZM10.7363 10.4444C10.7363 10.4954 10.7281 10.5315 10.7112 10.5703L13.003 11.5692C13.1618 11.2049 13.2363 10.8276 13.2363 10.4444H10.7363ZM10.7161 10.5593C10.6959 10.6045 10.6642 10.6479 10.6321 10.6779L12.3379 12.5055C12.6158 12.2461 12.8426 11.9278 12.9981 11.5802L10.7161 10.5593ZM10.6471 10.6641C10.6019 10.7049 10.5665 10.7217 10.5457 10.7285L11.3184 13.1061C11.711 12.9785 12.0476 12.7679 12.3228 12.5194L10.6471 10.6641ZM10.5257 10.7352C10.4976 10.7448 10.4701 10.75 10.4307 10.75V13.25C10.7324 13.25 11.0356 13.2035 11.3384 13.0994L10.5257 10.7352ZM2.21884 0.450248C1.95476 0.450248 1.70956 0.509691 1.4883 0.611811L2.53594 2.88171C2.44905 2.92181 2.33822 2.95025 2.21884 2.95025V0.450248ZM1.5634 0.580078C1.32789 0.670657 1.0964 0.819294 0.907293 1.02942L2.76553 2.70183C2.66944 2.80859 2.56198 2.87454 2.46084 2.91344L1.5634 0.580078ZM0.952527 0.981739C0.746075 1.18819 0.603211 1.43795 0.525979 1.70827L2.92979 2.39507C2.8939 2.52068 2.82339 2.64641 2.72029 2.74951L0.952527 0.981739ZM0.53316 1.68406C0.473749 1.87715 0.437528 2.10491 0.455221 2.35261L2.94887 2.1745C2.95622 2.2775 2.94067 2.36056 2.92261 2.41928L0.53316 1.68406ZM0.459077 2.39597C0.640222 4.0964 1.22909 5.75006 2.15486 7.18821L4.25698 5.83503C3.53934 4.72021 3.08428 3.43847 2.94501 2.13114L0.459077 2.39597ZM2.15115 7.18241C2.99881 8.51529 4.14799 9.66446 5.48086 10.5121L6.82245 8.40259C5.79874 7.75154 4.91173 6.86454 4.26069 5.84082L2.15115 7.18241ZM5.47012 10.5052C6.90821 11.4406 8.56296 12.0224 10.2523 12.2089L10.5265 9.72394C9.21838 9.5796 7.93774 9.1279 6.83319 8.40949L5.47012 10.5052ZM10.2856 12.2121C10.5441 12.2336 10.7796 12.1903 10.9585 12.1353L10.2233 9.74583C10.2527 9.7368 10.286 9.72902 10.3245 9.72393C10.3615 9.71905 10.4191 9.71454 10.4932 9.72072L10.2856 12.2121ZM10.9585 12.1353C11.2528 12.0447 11.4627 11.886 11.5685 11.7995L9.98544 9.86458C9.98716 9.86317 10.0068 9.84699 10.0414 9.82609C10.0762 9.80508 10.1377 9.77219 10.2233 9.74583L10.9585 12.1353ZM11.5685 11.7995C11.8169 11.5962 11.9757 11.3443 12.0677 11.1051L9.73433 10.2076C9.77466 10.1027 9.85072 9.9748 9.98543 9.86458L11.5685 11.7995ZM12.036 11.1801C12.1666 10.8971 12.1924 10.6305 12.1924 10.4444H9.69235C9.69235 10.4031 9.69743 10.2812 9.76606 10.1325L12.036 11.1801ZM12.1924 10.4444V8.89405H9.69235V10.4444H12.1924ZM12.1924 8.89405C12.1924 8.89404 12.1924 8.89403 12.1924 8.89402C12.1924 8.89401 12.1924 8.894 12.1924 8.89399C12.1924 8.89398 12.1924 8.89397 12.1924 8.89396C12.1924 8.89395 12.1924 8.89394 12.1924 8.89393C12.1924 8.89392 12.1924 8.89391 12.1924 8.8939C12.1924 8.89389 12.1924 8.89388 12.1924 8.89386C12.1924 8.89386 12.1924 8.89384 12.1924 8.89384C12.1924 8.89382 12.1924 8.89381 12.1924 8.8938C12.1924 8.89379 12.1924 8.89378 12.1924 8.89377C12.1924 8.89376 12.1924 8.89375 12.1924 8.89374C12.1924 8.89373 12.1924 8.89372 12.1924 8.89371C12.1924 8.8937 12.1924 8.89369 12.1924 8.89368C12.1924 8.89367 12.1924 8.89366 12.1924 8.89365C12.1924 8.89364 12.1924 8.89363 12.1924 8.89362C12.1924 8.89361 12.1924 8.8936 12.1924 8.89359C12.1924 8.89358 12.1924 8.89357 12.1924 8.89356C12.1924 8.89355 12.1924 8.89354 12.1924 8.89353C12.1924 8.89352 12.1924 8.89351 12.1924 8.8935C12.1924 8.89349 12.1924 8.89348 12.1924 8.89347C12.1924 8.89346 12.1924 8.89345 12.1924 8.89344C12.1924 8.89343 12.1924 8.89342 12.1924 8.89341C12.1924 8.8934 12.1924 8.89339 12.1924 8.89338C12.1924 8.89337 12.1924 8.89336 12.1924 8.89335C12.1924 8.89334 12.1924 8.89333 12.1924 8.89332C12.1924 8.89331 12.1924 8.8933 12.1924 8.89329C12.1924 8.89328 12.1924 8.89327 12.1924 8.89326C12.1924 8.89325 12.1924 8.89324 12.1924 8.89323C12.1924 8.89322 12.1924 8.89321 12.1924 8.8932C12.1924 8.89319 12.1924 8.89318 12.1924 8.89317C12.1924 8.89316 12.1924 8.89315 12.1924 8.89314C12.1924 8.89313 12.1924 8.89312 12.1924 8.89311C12.1924 8.8931 12.1924 8.89309 12.1924 8.89308C12.1924 8.89307 12.1924 8.89306 12.1924 8.89305C12.1924 8.89304 12.1924 8.89303 12.1924 8.89302C12.1924 8.89301 12.1924 8.893 12.1924 8.89299C12.1924 8.89298 12.1924 8.89297 12.1924 8.89296C12.1924 8.89295 12.1924 8.89294 12.1924 8.89293C12.1924 8.89292 12.1924 8.89291 12.1924 8.8929C12.1924 8.89289 12.1924 8.89288 12.1924 8.89287C12.1924 8.89286 12.1924 8.89285 12.1924 8.89284C12.1924 8.89283 12.1924 8.89282 12.1924 8.89281C12.1924 8.8928 12.1924 8.89279 12.1924 8.89278C12.1924 8.89277 12.1924 8.89276 12.1924 8.89275C12.1924 8.89274 12.1924 8.89273 12.1924 8.89272C12.1924 8.89271 12.1924 8.8927 12.1924 8.89269C12.1924 8.89268 12.1924 8.89267 12.1924 8.89266C12.1924 8.89265 12.1924 8.89264 12.1924 8.89263C12.1924 8.89262 12.1924 8.89261 12.1924 8.8926C12.1924 8.89259 12.1924 8.89258 12.1924 8.89257C12.1924 8.89256 12.1924 8.89255 12.1924 8.89254C12.1924 8.89253 12.1924 8.89252 12.1924 8.89251C12.1924 8.8925 12.1924 8.89249 12.1924 8.89248C12.1924 8.89247 12.1924 8.89246 12.1924 8.89245C12.1924 8.89244 12.1924 8.89243 12.1924 8.89242C12.1924 8.89241 12.1924 8.8924 12.1924 8.89239C12.1924 8.89238 12.1924 8.89237 12.1924 8.89236C12.1924 8.89235 12.1924 8.89234 12.1924 8.89233C12.1924 8.89232 12.1924 8.89231 12.1924 8.8923C12.1924 8.89229 12.1924 8.89228 12.1924 8.89227C12.1924 8.89226 12.1924 8.89225 12.1924 8.89224C12.1924 8.89223 12.1924 8.89222 12.1924 8.89221C12.1924 8.8922 12.1924 8.89219 12.1924 8.89218C12.1924 8.89217 12.1924 8.89216 12.1924 8.89215C12.1924 8.89214 12.1924 8.89213 12.1924 8.89212C12.1924 8.89211 12.1924 8.8921 12.1924 8.89209C12.1924 8.89208 12.1924 8.89207 12.1924 8.89206C12.1924 8.89205 12.1924 8.89204 12.1924 8.89203C12.1924 8.89202 12.1924 8.89201 12.1924 8.892C12.1924 8.89199 12.1924 8.89198 12.1924 8.89197C12.1924 8.89196 12.1924 8.89195 12.1924 8.89194C12.1924 8.89193 12.1924 8.89192 12.1924 8.89191C12.1924 8.8919 12.1924 8.89189 12.1924 8.89188C12.1924 8.89187 12.1924 8.89186 12.1924 8.89185C12.1924 8.89184 12.1924 8.89183 12.1924 8.89182C12.1924 8.89181 12.1924 8.8918 12.1924 8.89179C12.1924 8.89178 12.1924 8.89177 12.1924 8.89176C12.1924 8.89175 12.1924 8.89174 12.1924 8.89173C12.1924 8.89172 12.1924 8.89171 12.1924 8.8917C12.1924 8.89169 12.1924 8.89168 12.1924 8.89167C12.1924 8.89166 12.1924 8.89165 12.1924 8.89164C12.1924 8.89163 12.1924 8.89162 12.1924 8.89161C12.1924 8.8916 12.1924 8.89159 12.1924 8.89158C12.1924 8.89157 12.1924 8.89157 12.1924 8.89155C12.1924 8.89155 12.1924 8.89154 12.1924 8.89153C12.1924 8.89152 12.1924 8.89151 12.1924 8.8915C12.1924 8.89149 12.1924 8.89148 12.1924 8.89147C12.1924 8.89146 12.1924 8.89145 12.1924 8.89144C12.1924 8.89143 12.1924 8.89142 12.1924 8.89141C12.1924 8.8914 12.1924 8.89139 12.1924 8.89138C12.1924 8.89137 12.1924 8.89136 12.1924 8.89135C12.1924 8.89134 12.1924 8.89133 12.1924 8.89132C12.1924 8.89131 12.1924 8.8913 12.1924 8.89129C12.1924 8.89128 12.1924 8.89127 12.1924 8.89126C12.1924 8.89125 12.1924 8.89124 12.1924 8.89123C12.1924 8.89122 12.1924 8.89121 12.1924 8.8912C12.1924 8.89119 12.1924 8.89118 12.1924 8.89117C12.1924 8.89116 12.1924 8.89115 12.1924 8.89114C12.1924 8.89113 12.1924 8.89112 12.1924 8.89112C12.1924 8.89111 12.1924 8.8911 12.1924 8.89109C12.1924 8.89108 12.1924 8.89107 12.1924 8.89106C12.1924 8.89105 12.1924 8.89104 12.1924 8.89103C12.1924 8.89102 12.1924 8.89101 12.1924 8.891C12.1924 8.89099 12.1924 8.89098 12.1924 8.89097C12.1924 8.89096 12.1924 8.89095 12.1924 8.89094C12.1924 8.89093 12.1924 8.89092 12.1924 8.89091C12.1924 8.8909 12.1924 8.89089 12.1924 8.89088C12.1924 8.89087 12.1924 8.89086 12.1924 8.89085C12.1924 8.89084 12.1924 8.89083 12.1924 8.89082C12.1924 8.89081 12.1924 8.89081 12.1924 8.8908C12.1924 8.89079 12.1924 8.89078 12.1924 8.89077C12.1924 8.89076 12.1924 8.89075 12.1924 8.89074C12.1924 8.89073 12.1924 8.89072 12.1924 8.89071C12.1924 8.8907 12.1924 8.89069 12.1924 8.89068C12.1924 8.89067 12.1924 8.89066 12.1924 8.89065C12.1924 8.89064 12.1924 8.89063 12.1924 8.89062C12.1924 8.89061 12.1924 8.8906 12.1924 8.89059C12.1924 8.89058 12.1924 8.89057 12.1924 8.89056C12.1924 8.89056 12.1924 8.89055 12.1924 8.89054C12.1924 8.89053 12.1924 8.89052 12.1924 8.89051C12.1924 8.8905 12.1924 8.89049 12.1924 8.89048C12.1924 8.89047 12.1924 8.89046 12.1924 8.89045C12.1924 8.89044 12.1924 8.89043 12.1924 8.89042C12.1924 8.89041 12.1924 8.8904 12.1924 8.89039C12.1924 8.89038 12.1924 8.89037 12.1924 8.89036C12.1924 8.89036 12.1924 8.89035 12.1924 8.89034C12.1924 8.89033 12.1924 8.89032 12.1924 8.89031C12.1924 8.8903 12.1924 8.89029 12.1924 8.89028C12.1924 8.89027 12.1924 8.89026 12.1924 8.89025C12.1924 8.89024 12.1924 8.89023 12.1924 8.89022C12.1924 8.89021 12.1924 8.8902 12.1924 8.89019C12.1924 8.89019 12.1924 8.89018 12.1924 8.89017C12.1924 8.89016 12.1924 8.89015 12.1924 8.89014C12.1924 8.89013 12.1924 8.89012 12.1924 8.89011C12.1924 8.8901 12.1924 8.89009 12.1924 8.89008C12.1924 8.89007 12.1924 8.89006 12.1924 8.89005C12.1924 8.89004 12.1924 8.89003 12.1924 8.89003C12.1924 8.89002 12.1924 8.89001 12.1924 8.89C12.1924 8.88999 12.1924 8.88998 12.1924 8.88997C12.1924 8.88996 12.1924 8.88995 12.1924 8.88994C12.1924 8.88993 12.1924 8.88992 12.1924 8.88991C12.1924 8.8899 12.1924 8.88989 12.1924 8.88988C12.1924 8.88988 12.1924 8.88987 12.1924 8.88986C12.1924 8.88985 12.1924 8.88984 12.1924 8.88983C12.1924 8.88982 12.1924 8.88981 12.1924 8.8898C12.1924 8.88979 12.1924 8.88978 12.1924 8.88977C12.1924 8.88976 12.1924 8.88975 12.1924 8.88975C12.1924 8.88974 12.1924 8.88973 12.1924 8.88972C12.1924 8.88971 12.1924 8.8897 12.1924 8.88969C12.1924 8.88968 12.1924 8.88967 12.1924 8.88966C12.1924 8.88965 12.1924 8.88964 12.1924 8.88963C12.1924 8.88963 12.1924 8.88962 12.1924 8.88961C12.1924 8.8896 12.1924 8.88959 12.1924 8.88958C12.1924 8.88957 12.1924 8.88956 12.1924 8.88955C12.1924 8.88954 12.1924 8.88953 12.1924 8.88952C12.1924 8.88951 12.1924 8.88951 12.1924 8.8895C12.1924 8.88949 12.1924 8.88948 12.1924 8.88947C12.1924 8.88946 12.1924 8.88945 12.1924 8.88944C12.1924 8.88943 12.1924 8.88942 12.1924 8.88941C12.1924 8.88941 12.1924 8.8894 12.1924 8.88939C12.1924 8.88938 12.1924 8.88937 12.1924 8.88936C12.1924 8.88935 12.1924 8.88934 12.1924 8.88933C12.1924 8.88932 12.1924 8.88931 12.1924 8.88931C12.1924 8.8893 12.1924 8.88929 12.1924 8.88928C12.1924 8.88927 12.1924 8.88926 12.1924 8.88925C12.1924 8.88924 12.1924 8.88923 12.1924 8.88922C12.1924 8.88921 12.1924 8.8892 12.1924 8.8892C12.1924 8.88919 12.1924 8.88918 12.1924 8.88917C12.1924 8.88916 12.1924 8.88915 12.1924 8.88914C12.1924 8.88913 12.1924 8.88912 12.1924 8.88911C12.1924 8.88911 12.1924 8.8891 12.1924 8.88909C12.1924 8.88908 12.1924 8.88907 12.1924 8.88906C12.1924 8.88905 12.1924 8.88904 12.1924 8.88903C12.1924 8.88902 12.1924 8.88902 12.1924 8.88901C12.1924 8.889 12.1924 8.88899 12.1924 8.88898C12.1924 8.88897 12.1924 8.88896 12.1924 8.88895C12.1924 8.88894 12.1924 8.88894 12.1924 8.88893C12.1924 8.88892 12.1924 8.88891 12.1924 8.8889C12.1924 8.88889 12.1924 8.88888 12.1924 8.88887C12.1924 8.88886 12.1924 8.88886 12.1924 8.88885C12.1924 8.88884 12.1924 8.88883 12.1924 8.88882C12.1924 8.88881 12.1924 8.8888 12.1924 8.88879C12.1924 8.88879 12.1924 8.88878 12.1924 8.88877C12.1924 8.88876 12.1924 8.88875 12.1924 8.88874C12.1924 8.88873 12.1924 8.88872 12.1924 8.88871C12.1924 8.88871 12.1924 8.8887 12.1924 8.88869C12.1924 8.88868 12.1924 8.88867 12.1924 8.88866C12.1924 8.88865 12.1924 8.88864 12.1924 8.88864C12.1924 8.88863 12.1924 8.88862 12.1924 8.88861C12.1924 8.8886 12.1924 8.88859 12.1924 8.88858C12.1924 8.88857 12.1924 8.88857 12.1924 8.88856C12.1924 8.88855 12.1924 8.88854 12.1924 8.88853C12.1924 8.88852 12.1924 8.88851 12.1924 8.8885C12.1924 8.8885 12.1924 8.88849 12.1924 8.88848C12.1924 8.88847 12.1924 8.88846 12.1924 8.88845C12.1924 8.88844 12.1924 8.88844 12.1924 8.88843C12.1924 8.88842 12.1924 8.88841 12.1924 8.8884C12.1924 8.88839 12.1924 8.88838 12.1924 8.88838C12.1924 8.88837 12.1924 8.88836 12.1924 8.88835C12.1924 8.88834 12.1924 8.88833 12.1924 8.88832C12.1924 8.88832 12.1924 8.88831 12.1924 8.8883C12.1924 8.88829 12.1924 8.88828 12.1924 8.88827C12.1924 8.88826 12.1924 8.88826 12.1924 8.88825C12.1924 8.88824 12.1924 8.88823 12.1924 8.88822C12.1924 8.88821 12.1924 8.8882 12.1924 8.8882C12.1924 8.88819 12.1924 8.88818 12.1924 8.88817C12.1924 8.88816 12.1924 8.88815 12.1924 8.88815C12.1924 8.88814 12.1924 8.88813 12.1924 8.88812C12.1924 8.88811 12.1924 8.8881 12.1924 8.88809C12.1924 8.88809 12.1924 8.88808 12.1924 8.88807C12.1924 8.88806 12.1924 8.88805 12.1924 8.88804C12.1924 8.88804 12.1924 8.88803 12.1924 8.88802C12.1924 8.88801 12.1924 8.888 12.1924 8.88799C12.1924 8.88799 12.1924 8.88798 12.1924 8.88797C12.1924 8.88796 12.1924 8.88795 12.1924 8.88794C12.1924 8.88794 12.1924 8.88793 12.1924 8.88792C12.1924 8.88791 12.1924 8.8879 12.1924 8.88789C12.1924 8.88789 12.1924 8.88788 12.1924 8.88787C12.1924 8.88786 12.1924 8.88785 12.1924 8.88784C12.1924 8.88784 12.1924 8.88783 12.1924 8.88782C12.1924 8.88781 12.1924 8.8878 12.1924 8.88779C12.1924 8.88779 12.1924 8.88778 12.1924 8.88777C12.1924 8.88776 12.1924 8.88775 12.1924 8.88774C12.1924 8.88774 12.1924 8.88773 12.1924 8.88772C12.1924 8.88771 12.1924 8.8877 12.1924 8.8877C12.1924 8.88769 12.1924 8.88768 12.1924 8.88767C12.1924 8.88766 12.1924 8.88766 12.1924 8.88765C12.1924 8.88764 12.1924 8.88763 12.1924 8.88762C12.1924 8.88762 12.1924 8.88761 12.1924 8.8876C12.1924 8.88759 12.1924 8.88758 12.1924 8.88757C12.1924 8.88757 12.1924 8.88756 12.1924 8.88755C12.1924 8.88754 12.1924 8.88753 12.1924 8.88753C12.1924 8.88752 12.1924 8.88751 12.1924 8.8875C12.1924 8.88749 12.1924 8.88749 12.1924 8.88748C12.1924 8.88747 12.1924 8.88746 12.1924 8.88745C12.1924 8.88745 12.1924 8.88744 12.1924 8.88743C12.1924 8.88742 12.1924 8.88741 12.1924 8.88741C12.1924 8.8874 12.1924 8.88739 12.1924 8.88738C12.1924 8.88737 12.1924 8.88737 12.1924 8.88736C12.1924 8.88735 12.1924 8.88734 12.1924 8.88733C12.1924 8.88733 12.1924 8.88732 12.1924 8.88731C12.1924 8.8873 12.1924 8.8873 12.1924 8.88729C12.1924 8.88728 12.1924 8.88727 12.1924 8.88726C12.1924 8.88726 12.1924 8.88725 12.1924 8.88724C12.1924 8.88723 12.1924 8.88723 12.1924 8.88722C12.1924 8.88721 12.1924 8.8872 12.1924 8.88719C12.1924 8.88719 12.1924 8.88718 12.1924 8.88717C12.1924 8.88716 12.1924 8.88715 12.1924 8.88715C12.1924 8.88714 12.1924 8.88713 12.1924 8.88712C12.1924 8.88712 12.1924 8.88711 12.1924 8.8871C12.1924 8.88709 12.1924 8.88709 12.1924 8.88708C12.1924 8.88707 12.1924 8.88706 12.1924 8.88705C12.1924 8.88705 12.1924 8.88704 12.1924 8.88703C12.1924 8.88702 12.1924 8.88702 12.1924 8.88701C12.1924 8.887 12.1924 8.88699 12.1924 8.88699C12.1924 8.88698 12.1924 8.88697 12.1924 8.88696C12.1924 8.88696 12.1924 8.88695 12.1924 8.88694C12.1924 8.88693 12.1924 8.88693 12.1924 8.88692C12.1924 8.88691 12.1924 8.8869 12.1924 8.8869C12.1924 8.88689 12.1924 8.88688 12.1924 8.88687C12.1924 8.88686 12.1924 8.88686 12.1924 8.88685C12.1924 8.88684 12.1924 8.88684 12.1924 8.88683C12.1924 8.88682 12.1924 8.88681 12.1924 8.88681C12.1924 8.8868 12.1924 8.88679 12.1924 8.88678C12.1924 8.88678 12.1924 8.88677 12.1924 8.88676C12.1924 8.88675 12.1924 8.88675 12.1924 8.88674C12.1924 8.88673 12.1924 8.88672 12.1924 8.88672C12.1924 8.88671 12.1924 8.8867 12.1924 8.88669C12.1924 8.88669 12.1924 8.88668 12.1924 8.88667C12.1924 8.88667 12.1924 8.88666 12.1924 8.88665C12.1924 8.88664 12.1924 8.88664 12.1924 8.88663C12.1924 8.88662 12.1924 8.88661 12.1924 8.88661C12.1924 8.8866 12.1924 8.88659 12.1924 8.88659C12.1924 8.88658 12.1924 8.88657 12.1924 8.88656C12.1924 8.88656 12.1924 8.88655 12.1924 8.88654C12.1924 8.88653 12.1924 8.88653 12.1924 8.88652C12.1924 8.88651 12.1924 8.88651 12.1924 8.8865C12.1924 8.88649 12.1924 8.88648 12.1924 8.88648C12.1924 8.88647 12.1924 8.88646 12.1924 8.88646C12.1924 8.88645 12.1924 8.88644 12.1924 8.88643C12.1924 8.88643 12.1924 8.88642 12.1924 8.88641C12.1924 8.88641 12.1924 8.8864 12.1924 8.88639C12.1924 8.88638 12.1924 8.88638 12.1924 8.88637C12.1924 8.88636 12.1924 8.88636 12.1924 8.88635C12.1924 8.88634 12.1924 8.88634 12.1924 8.88633C12.1924 8.88632 12.1924 8.88631 12.1924 8.88631C12.1924 8.8863 12.1924 8.88629 12.1924 8.88629C12.1924 8.88628 12.1924 8.88627 12.1924 8.88627C12.1924 8.88626 12.1924 8.88625 12.1924 8.88624C12.1924 8.88624 12.1924 8.88623 12.1924 8.88622C12.1924 8.88622 12.1924 8.88621 12.1924 8.8862C12.1924 8.8862 12.1924 8.88619 12.1924 8.88618C12.1924 8.88618 12.1924 8.88617 12.1924 8.88616C12.1924 8.88616 12.1924 8.88615 12.1924 8.88614C12.1924 8.88614 12.1924 8.88613 12.1924 8.88612C12.1924 8.88612 12.1924 8.88611 12.1924 8.8861C12.1924 8.8861 12.1924 8.88609 12.1924 8.88608C12.1924 8.88608 12.1924 8.88607 12.1924 8.88606C12.1924 8.88605 12.1924 8.88605 12.1924 8.88604C12.1924 8.88603 12.1924 8.88603 12.1924 8.88602C12.1924 8.88601 12.1924 8.88601 12.1924 8.886C12.1924 8.88599 12.1924 8.88599 12.1924 8.88598C12.1924 8.88597 12.1924 8.88597 12.1924 8.88596C12.1924 8.88596 12.1924 8.88595 12.1924 8.88594C12.1924 8.88594 12.1924 8.88593 12.1924 8.88592C12.1924 8.88592 12.1924 8.88591 12.1924 8.8859C12.1924 8.8859 12.1924 8.88589 12.1924 8.88588C12.1924 8.88588 12.1924 8.88587 12.1924 8.88586C12.1924 8.88586 12.1924 8.88585 12.1924 8.88585C12.1924 8.88584 12.1924 8.88583 12.1924 8.88583C12.1924 8.88582 12.1924 8.88581 12.1924 8.88581C12.1924 8.8858 12.1924 8.88579 12.1924 8.88579C12.1924 8.88578 12.1924 8.88577 12.1924 8.88577C12.1924 8.88576 12.1924 8.88576 12.1924 8.88575C12.1924 8.88574 12.1924 8.88574 12.1924 8.88573C12.1924 8.88572 12.1924 8.88572 12.1924 8.88571C12.1924 8.8857 12.1924 8.8857 12.1924 8.88569C12.1924 8.88569 12.1924 8.88568 12.1924 8.88567C12.1924 8.88567 12.1924 8.88566 12.1924 8.88566C12.1924 8.88565 12.1924 8.88564 12.1924 8.88564C12.1924 8.88563 12.1924 8.88562 12.1924 8.88562C12.1924 8.88561 12.1924 8.88561 12.1924 8.8856C12.1924 8.88559 12.1924 8.88559 12.1924 8.88558C12.1924 8.88558 12.1924 8.88557 12.1924 8.88556C12.1924 8.88556 12.1924 8.88555 12.1924 8.88554C12.1924 8.88554 12.1924 8.88553 12.1924 8.88553C12.1924 8.88552 12.1924 8.88552 12.1924 8.88551C12.1924 8.8855 12.1924 8.8855 12.1924 8.88549C12.1924 8.88548 12.1924 8.88548 12.1924 8.88547C12.1924 8.88547 12.1924 8.88546 12.1924 8.88546C12.1924 8.88545 12.1924 8.88544 12.1924 8.88544C12.1924 8.88543 12.1924 8.88543 12.1924 8.88542C12.1924 8.88541 12.1924 8.88541 12.1924 8.8854C12.1924 8.8854 12.1924 8.88539 12.1924 8.88538C12.1924 8.88538 12.1924 8.88537 12.1924 8.88537C12.1924 8.88536 12.1924 8.88536 12.1924 8.88535C12.1924 8.88534 12.1924 8.88534 12.1924 8.88533C12.1924 8.88533 12.1924 8.88532 12.1924 8.88531C12.1924 8.88531 12.1924 8.8853 12.1924 8.8853C12.1924 8.88529 12.1924 8.88529 12.1924 8.88528C12.1924 8.88528 12.1924 8.88527 12.1924 8.88526C12.1924 8.88526 12.1924 8.88525 12.1924 8.88525C12.1924 8.88524 12.1924 8.88524 12.1924 8.88523C12.1924 8.88523 12.1924 8.88522 12.1924 8.88521C12.1924 8.88521 12.1924 8.8852 12.1924 8.8852C12.1924 8.88519 12.1924 8.88519 12.1924 8.88518C12.1924 8.88517 12.1924 8.88517 12.1924 8.88516C12.1924 8.88516 12.1924 8.88515 12.1924 8.88515C12.1924 8.88514 12.1924 8.88514 12.1924 8.88513C12.1924 8.88513 12.1924 8.88512 12.1924 8.88511C12.1924 8.88511 12.1924 8.8851 12.1924 8.8851C12.1924 8.88509 12.1924 8.88509 12.1924 8.88508C12.1924 8.88508 12.1924 8.88507 12.1924 8.88507C12.1924 8.88506 12.1924 8.88506 12.1924 8.88505C12.1924 8.88505 12.1924 8.88504 12.1924 8.88503C12.1924 8.88503 12.1924 8.88502 12.1924 8.88502C12.1924 8.88501 12.1924 8.88501 12.1924 8.885C12.1924 8.885 12.1924 8.88499 12.1924 8.88499C12.1924 8.88498 12.1924 8.88498 12.1924 8.88497C12.1924 8.88497 12.1924 8.88496 12.1924 8.88496C12.1924 8.88495 12.1924 8.88495 12.1924 8.88494C12.1924 8.88494 12.1924 8.88493 12.1924 8.88493C12.1924 8.88492 12.1924 8.88492 12.1924 8.88491C12.1924 8.88491 12.1924 8.8849 12.1924 8.8849C12.1924 8.88489 12.1924 8.88489 12.1924 8.88488C12.1924 8.88488 12.1924 8.88487 12.1924 8.88487C12.1924 8.88486 12.1924 8.88486 12.1924 8.88485C12.1924 8.88485 12.1924 8.88484 12.1924 8.88484C12.1924 8.88483 12.1924 8.88483 12.1924 8.88482C12.1924 8.88482 12.1924 8.88481 12.1924 8.88481C12.1924 8.8848 12.1924 8.8848 12.1924 8.88479C12.1924 8.88479 12.1924 8.88478 12.1924 8.88478C12.1924 8.88477 12.1924 8.88477 12.1924 8.88476C12.1924 8.88476 12.1924 8.88475 12.1924 8.88475C12.1924 8.88474 12.1924 8.88474 12.1924 8.88474C12.1924 8.88473 12.1924 8.88473 12.1924 8.88472C12.1924 8.88472 12.1924 8.88471 12.1924 8.88471C12.1924 8.8847 12.1924 8.8847 12.1924 8.88469C12.1924 8.88469 12.1924 8.88468 12.1924 8.88468C12.1924 8.88468 12.1924 8.88467 12.1924 8.88467C12.1924 8.88466 12.1924 8.88466 12.1924 8.88465C12.1924 8.88465 12.1924 8.88464 12.1924 8.88464C12.1924 8.88463 12.1924 8.88463 12.1924 8.88463C12.1924 8.88462 12.1924 8.88462 12.1924 8.88461C12.1924 8.88461 12.1924 8.8846 12.1924 8.8846C12.1924 8.88459 12.1924 8.88459 12.1924 8.88459C12.1924 8.88458 12.1924 8.88458 12.1924 8.88457C12.1924 8.88457 12.1924 8.88456 12.1924 8.88456C12.1924 8.88455 12.1924 8.88455 12.1924 8.88455C12.1924 8.88454 12.1924 8.88454 12.1924 8.88453C12.1924 8.88453 12.1924 8.88453 12.1924 8.88452C12.1924 8.88452 12.1924 8.88451 12.1924 8.88451C12.1924 8.8845 12.1924 8.8845 12.1924 8.8845C12.1924 8.88449 12.1924 8.88449 12.1924 8.88448C12.1924 8.88448 12.1924 8.88447 12.1924 8.88447C12.1924 8.88447 12.1924 8.88446 12.1924 8.88446C12.1924 8.88445 12.1924 8.88445 12.1924 8.88445C12.1924 8.88444 12.1924 8.88444 12.1924 8.88443C12.1924 8.88443 12.1924 8.88443 12.1924 8.88442C12.1924 8.88442 12.1924 8.88441 12.1924 8.88441C12.1924 8.88441 12.1924 8.8844 12.1924 8.8844C12.1924 8.88439 12.1924 8.88439 12.1924 8.88439C12.1924 8.88438 12.1924 8.88438 12.1924 8.88437C12.1924 8.88437 12.1924 8.88437 12.1924 8.88436C12.1924 8.88436 12.1924 8.88436 12.1924 8.88435C12.1924 8.88435 12.1924 8.88434 12.1924 8.88434C12.1924 8.88434 12.1924 8.88433 12.1924 8.88433C12.1924 8.88433 12.1924 8.88432 12.1924 8.88432C12.1924 8.88431 12.1924 8.88431 12.1924 8.88431C12.1924 8.8843 12.1924 8.8843 12.1924 8.8843C12.1924 8.88429 12.1924 8.88429 12.1924 8.88428C12.1924 8.88428 12.1924 8.88428 12.1924 8.88427C12.1924 8.88427 12.1924 8.88427 12.1924 8.88426C12.1924 8.88426 12.1924 8.88426 12.1924 8.88425C12.1924 8.88425 12.1924 8.88425 12.1924 8.88424C12.1924 8.88424 12.1924 8.88424 12.1924 8.88423C12.1924 8.88423 12.1924 8.88422 12.1924 8.88422C12.1924 8.88422 12.1924 8.88421 12.1924 8.88421C12.1924 8.88421 12.1924 8.8842 12.1924 8.8842C12.1924 8.8842 12.1924 8.88419 12.1924 8.88419C12.1924 8.88419 12.1924 8.88418 12.1924 8.88418C12.1924 8.88418 12.1924 8.88417 12.1924 8.88417C12.1924 8.88417 12.1924 8.88416 12.1924 8.88416C12.1924 8.88416 12.1924 8.88416 12.1924 8.88415C12.1924 8.88415 12.1924 8.88415 12.1924 8.88414C12.1924 8.88414 12.1924 8.88414 12.1924 8.88413C12.1924 8.88413 12.1924 8.88413 12.1924 8.88412C12.1924 8.88412 12.1924 8.88412 12.1924 8.88411C12.1924 8.88411 12.1924 8.88411 12.1924 8.8841C12.1924 8.8841 12.1924 8.8841 12.1924 8.8841C12.1924 8.88409 12.1924 8.88409 12.1924 8.88409C12.1924 8.88408 12.1924 8.88408 12.1924 8.88408C12.1924 8.88408 12.1924 8.88407 12.1924 8.88407C12.1924 8.88407 12.1924 8.88406 12.1924 8.88406C12.1924 8.88406 12.1924 8.88406 12.1924 8.88405C12.1924 8.88405 12.1924 8.88405 12.1924 8.88404C12.1924 8.88404 12.1924 8.88404 12.1924 8.88404C12.1924 8.88403 12.1924 8.88403 12.1924 8.88403C12.1924 8.88402 12.1924 8.88402 12.1924 8.88402C12.1924 8.88402 12.1924 8.88401 12.1924 8.88401C12.1924 8.88401 12.1924 8.88401 12.1924 8.884C12.1924 8.884 12.1924 8.884 12.1924 8.884C12.1924 8.88399 12.1924 8.88399 12.1924 8.88399C12.1924 8.88398 12.1924 8.88398 12.1924 8.88398C12.1924 8.88398 12.1924 8.88397 12.1924 8.88397C12.1924 8.88397 12.1924 8.88397 12.1924 8.88396C12.1924 8.88396 12.1924 8.88396 12.1924 8.88396C12.1924 8.88395 12.1924 8.88395 12.1924 8.88395C12.1924 8.88395 12.1924 8.88394 12.1924 8.88394C12.1924 8.88394 12.1924 8.88394 12.1924 8.88394C12.1924 8.88393 12.1924 8.88393 12.1924 8.88393C12.1924 8.88393 12.1924 8.88392 12.1924 8.88392C12.1924 8.88392 12.1924 8.88392 12.1924 8.88391C12.1924 8.88391 12.1924 8.88391 12.1924 8.88391C12.1924 8.88391 12.1924 8.8839 12.1924 8.8839C12.1924 8.8839 12.1924 8.8839 12.1924 8.88389C12.1924 8.88389 12.1924 8.88389 12.1924 8.88389C12.1924 8.88389 12.1924 8.88389 12.1924 8.88388C12.1924 8.88388 12.1924 8.88388 12.1924 8.88388C12.1924 8.88387 12.1924 8.88387 12.1924 8.88387C12.1924 8.88387 12.1924 8.88387 12.1924 8.88386C12.1924 8.88386 12.1924 8.88386 12.1924 8.88386C12.1924 8.88386 12.1924 8.88385 12.1924 8.88385C12.1924 8.88385 12.1924 8.88385 12.1924 8.88385C12.1924 8.88385 12.1924 8.88384 12.1924 8.88384C12.1924 8.88384 12.1924 8.88384 12.1924 8.88384C12.1924 8.88383 12.1924 8.88383 12.1924 8.88383C12.1924 8.88383 12.1924 8.88383 12.1924 8.88383C12.1924 8.88383 12.1924 8.88382 12.1924 8.88382C12.1924 8.88382 12.1924 8.88382 12.1924 8.88382C12.1924 8.88381 12.1924 8.88381 12.1924 8.88381C12.1924 8.88381 12.1924 8.88381 12.1924 8.88381C12.1924 8.88381 12.1924 8.8838 12.1924 8.8838C12.1924 8.8838 12.1924 8.8838 12.1924 8.8838C12.1924 8.8838 12.1924 8.88379 12.1924 8.88379C12.1924 8.88379 12.1924 8.88379 12.1924 8.88379C12.1924 8.88379 12.1924 8.88379 12.1924 8.88379C12.1924 8.88378 12.1924 8.88378 12.1924 8.88378C12.1924 8.88378 12.1924 8.88378 12.1924 8.88378C12.1924 8.88378 12.1924 8.88377 12.1924 8.88377C12.1924 8.88377 12.1924 8.88377 12.1924 8.88377C12.1924 8.88377 12.1924 8.88377 12.1924 8.88377C12.1924 8.88377 12.1924 8.88376 12.1924 8.88376C12.1924 8.88376 12.1924 8.88376 12.1924 8.88376C12.1924 8.88376 12.1924 8.88376 12.1924 8.88376C12.1924 8.88375 12.1924 8.88375 12.1924 8.88375C12.1924 8.88375 12.1924 8.88375 12.1924 8.88375C12.1924 8.88375 12.1924 8.88375 12.1924 8.88375C12.1924 8.88375 12.1924 8.88375 12.1924 8.88374C12.1924 8.88374 12.1924 8.88374 12.1924 8.88374C12.1924 8.88374 12.1924 8.88374 12.1924 8.88374C12.1924 8.88374 12.1924 8.88374 12.1924 8.88374C12.1924 8.88374 12.1924 8.88373 12.1924 8.88373C12.1924 8.88373 12.1924 8.88373 12.1924 8.88373C12.1924 8.88373 12.1924 8.88373 12.1924 8.88373C12.1924 8.88373 12.1924 8.88373 12.1924 8.88373C12.1924 8.88373 12.1924 8.88373 12.1924 8.88373C12.1924 8.88373 12.1924 8.88372 12.1924 8.88372V8.88372C12.1924 8.88372 12.1924 8.88372 12.1924 8.88372C12.1924 8.88372 12.1924 8.88372 12.1924 8.88372V8.88372C12.1924 8.88372 12.1924 8.88372 12.1924 8.88372C12.1924 8.88372 12.1924 8.88372 12.1924 8.88371C12.1924 8.88371 12.1924 8.88371 12.1924 8.88371C12.1924 8.88371 12.1924 8.88371 12.1924 8.88371C12.1924 8.88371 12.1924 8.88371 12.1924 8.88371C12.1924 8.88371 12.1924 8.88371 12.1924 8.88371C12.1924 8.88371 12.1924 8.88371 10.9424 8.88371C9.69235 8.88371 9.69235 8.88371 9.69235 8.88371C9.69235 8.88371 9.69235 8.88371 9.69235 8.88371C9.69235 8.88371 9.69235 8.88371 9.69235 8.88371C9.69235 8.88371 9.69235 8.88371 9.69235 8.88371C9.69235 8.88371 9.69235 8.88371 9.69235 8.88371C9.69235 8.88372 9.69235 8.88372 9.69235 8.88372C9.69235 8.88372 9.69235 8.88372 9.69235 8.88372V8.88372C9.69235 8.88372 9.69235 8.88372 9.69235 8.88372C9.69235 8.88372 9.69235 8.88372 9.69235 8.88372V8.88372C9.69235 8.88372 9.69235 8.88373 9.69235 8.88373C9.69235 8.88373 9.69235 8.88373 9.69235 8.88373C9.69235 8.88373 9.69235 8.88373 9.69235 8.88373C9.69235 8.88373 9.69235 8.88373 9.69235 8.88373C9.69235 8.88373 9.69235 8.88373 9.69235 8.88373C9.69235 8.88373 9.69235 8.88374 9.69235 8.88374C9.69235 8.88374 9.69235 8.88374 9.69235 8.88374C9.69235 8.88374 9.69235 8.88374 9.69235 8.88374C9.69235 8.88374 9.69235 8.88374 9.69235 8.88374C9.69235 8.88375 9.69235 8.88375 9.69235 8.88375C9.69235 8.88375 9.69235 8.88375 9.69235 8.88375C9.69235 8.88375 9.69235 8.88375 9.69235 8.88375C9.69235 8.88375 9.69235 8.88375 9.69235 8.88376C9.69235 8.88376 9.69235 8.88376 9.69235 8.88376C9.69235 8.88376 9.69235 8.88376 9.69235 8.88376C9.69235 8.88376 9.69235 8.88377 9.69235 8.88377C9.69235 8.88377 9.69235 8.88377 9.69235 8.88377C9.69235 8.88377 9.69235 8.88377 9.69235 8.88377C9.69235 8.88377 9.69235 8.88378 9.69235 8.88378C9.69235 8.88378 9.69235 8.88378 9.69235 8.88378C9.69235 8.88378 9.69235 8.88378 9.69235 8.88379C9.69235 8.88379 9.69235 8.88379 9.69235 8.88379C9.69235 8.88379 9.69235 8.88379 9.69235 8.88379C9.69235 8.88379 9.69235 8.8838 9.69235 8.8838C9.69235 8.8838 9.69235 8.8838 9.69235 8.8838C9.69235 8.8838 9.69235 8.88381 9.69235 8.88381C9.69235 8.88381 9.69235 8.88381 9.69235 8.88381C9.69235 8.88381 9.69235 8.88381 9.69235 8.88382C9.69235 8.88382 9.69235 8.88382 9.69235 8.88382C9.69235 8.88382 9.69235 8.88383 9.69235 8.88383C9.69235 8.88383 9.69235 8.88383 9.69235 8.88383C9.69235 8.88383 9.69235 8.88383 9.69235 8.88384C9.69235 8.88384 9.69235 8.88384 9.69235 8.88384C9.69235 8.88384 9.69235 8.88385 9.69235 8.88385C9.69235 8.88385 9.69235 8.88385 9.69235 8.88385C9.69235 8.88385 9.69235 8.88386 9.69235 8.88386C9.69235 8.88386 9.69235 8.88386 9.69235 8.88386C9.69235 8.88387 9.69235 8.88387 9.69235 8.88387C9.69235 8.88387 9.69235 8.88387 9.69235 8.88388C9.69235 8.88388 9.69235 8.88388 9.69235 8.88388C9.69235 8.88389 9.69235 8.88389 9.69235 8.88389C9.69235 8.88389 9.69235 8.88389 9.69235 8.88389C9.69235 8.8839 9.69235 8.8839 9.69235 8.8839C9.69235 8.8839 9.69235 8.88391 9.69235 8.88391C9.69235 8.88391 9.69235 8.88391 9.69235 8.88391C9.69235 8.88392 9.69235 8.88392 9.69235 8.88392C9.69235 8.88392 9.69235 8.88393 9.69235 8.88393C9.69235 8.88393 9.69235 8.88393 9.69235 8.88394C9.69235 8.88394 9.69235 8.88394 9.69235 8.88394C9.69235 8.88394 9.69235 8.88395 9.69235 8.88395C9.69235 8.88395 9.69235 8.88395 9.69235 8.88396C9.69235 8.88396 9.69235 8.88396 9.69235 8.88396C9.69235 8.88397 9.69235 8.88397 9.69235 8.88397C9.69235 8.88397 9.69235 8.88398 9.69235 8.88398C9.69235 8.88398 9.69235 8.88398 9.69235 8.88399C9.69235 8.88399 9.69235 8.88399 9.69235 8.884C9.69235 8.884 9.69235 8.884 9.69235 8.884C9.69235 8.88401 9.69235 8.88401 9.69235 8.88401C9.69235 8.88401 9.69235 8.88402 9.69235 8.88402C9.69235 8.88402 9.69235 8.88402 9.69235 8.88403C9.69235 8.88403 9.69235 8.88403 9.69235 8.88404C9.69235 8.88404 9.69235 8.88404 9.69235 8.88404C9.69235 8.88405 9.69235 8.88405 9.69235 8.88405C9.69235 8.88406 9.69235 8.88406 9.69235 8.88406C9.69235 8.88406 9.69235 8.88407 9.69235 8.88407C9.69235 8.88407 9.69235 8.88408 9.69235 8.88408C9.69235 8.88408 9.69235 8.88408 9.69235 8.88409C9.69235 8.88409 9.69235 8.88409 9.69235 8.8841C9.69235 8.8841 9.69235 8.8841 9.69235 8.8841C9.69235 8.88411 9.69235 8.88411 9.69235 8.88411C9.69235 8.88412 9.69235 8.88412 9.69235 8.88412C9.69235 8.88413 9.69235 8.88413 9.69235 8.88413C9.69235 8.88414 9.69235 8.88414 9.69235 8.88414C9.69235 8.88415 9.69235 8.88415 9.69235 8.88415C9.69235 8.88416 9.69235 8.88416 9.69235 8.88416C9.69235 8.88416 9.69235 8.88417 9.69235 8.88417C9.69235 8.88417 9.69235 8.88418 9.69235 8.88418C9.69235 8.88418 9.69235 8.88419 9.69235 8.88419C9.69235 8.88419 9.69235 8.8842 9.69235 8.8842C9.69235 8.8842 9.69235 8.88421 9.69235 8.88421C9.69235 8.88421 9.69235 8.88422 9.69235 8.88422C9.69235 8.88422 9.69235 8.88423 9.69235 8.88423C9.69235 8.88424 9.69235 8.88424 9.69235 8.88424C9.69235 8.88425 9.69235 8.88425 9.69235 8.88425C9.69235 8.88426 9.69235 8.88426 9.69235 8.88426C9.69235 8.88427 9.69235 8.88427 9.69235 8.88427C9.69235 8.88428 9.69235 8.88428 9.69235 8.88428C9.69235 8.88429 9.69235 8.88429 9.69235 8.8843C9.69235 8.8843 9.69235 8.8843 9.69235 8.88431C9.69235 8.88431 9.69235 8.88431 9.69235 8.88432C9.69235 8.88432 9.69235 8.88433 9.69235 8.88433C9.69235 8.88433 9.69235 8.88434 9.69235 8.88434C9.69235 8.88434 9.69235 8.88435 9.69235 8.88435C9.69235 8.88436 9.69235 8.88436 9.69235 8.88436C9.69235 8.88437 9.69235 8.88437 9.69235 8.88437C9.69235 8.88438 9.69235 8.88438 9.69235 8.88439C9.69235 8.88439 9.69235 8.88439 9.69235 8.8844C9.69235 8.8844 9.69235 8.88441 9.69235 8.88441C9.69235 8.88441 9.69235 8.88442 9.69235 8.88442C9.69235 8.88443 9.69235 8.88443 9.69235 8.88443C9.69235 8.88444 9.69235 8.88444 9.69235 8.88445C9.69235 8.88445 9.69235 8.88445 9.69235 8.88446C9.69235 8.88446 9.69235 8.88447 9.69235 8.88447C9.69235 8.88447 9.69235 8.88448 9.69235 8.88448C9.69235 8.88449 9.69235 8.88449 9.69235 8.8845C9.69235 8.8845 9.69235 8.8845 9.69235 8.88451C9.69235 8.88451 9.69235 8.88452 9.69235 8.88452C9.69235 8.88453 9.69235 8.88453 9.69235 8.88453C9.69235 8.88454 9.69235 8.88454 9.69235 8.88455C9.69235 8.88455 9.69235 8.88455 9.69235 8.88456C9.69235 8.88456 9.69235 8.88457 9.69235 8.88457C9.69235 8.88458 9.69235 8.88458 9.69235 8.88459C9.69235 8.88459 9.69235 8.88459 9.69235 8.8846C9.69235 8.8846 9.69235 8.88461 9.69235 8.88461C9.69235 8.88462 9.69235 8.88462 9.69235 8.88463C9.69235 8.88463 9.69235 8.88463 9.69235 8.88464C9.69235 8.88464 9.69235 8.88465 9.69235 8.88465C9.69235 8.88466 9.69235 8.88466 9.69235 8.88467C9.69235 8.88467 9.69235 8.88468 9.69235 8.88468C9.69235 8.88468 9.69235 8.88469 9.69235 8.88469C9.69235 8.8847 9.69235 8.8847 9.69235 8.88471C9.69235 8.88471 9.69235 8.88472 9.69235 8.88472C9.69235 8.88473 9.69235 8.88473 9.69235 8.88474C9.69235 8.88474 9.69235 8.88474 9.69235 8.88475C9.69235 8.88475 9.69235 8.88476 9.69235 8.88476C9.69235 8.88477 9.69235 8.88477 9.69235 8.88478C9.69235 8.88478 9.69235 8.88479 9.69235 8.88479C9.69235 8.8848 9.69235 8.8848 9.69235 8.88481C9.69235 8.88481 9.69235 8.88482 9.69235 8.88482C9.69235 8.88483 9.69235 8.88483 9.69235 8.88484C9.69235 8.88484 9.69235 8.88485 9.69235 8.88485C9.69235 8.88486 9.69235 8.88486 9.69235 8.88487C9.69235 8.88487 9.69235 8.88488 9.69235 8.88488C9.69235 8.88489 9.69235 8.88489 9.69235 8.8849C9.69235 8.8849 9.69235 8.88491 9.69235 8.88491C9.69235 8.88492 9.69235 8.88492 9.69235 8.88493C9.69235 8.88493 9.69235 8.88494 9.69235 8.88494C9.69235 8.88495 9.69235 8.88495 9.69235 8.88496C9.69235 8.88496 9.69235 8.88497 9.69235 8.88497C9.69235 8.88498 9.69235 8.88498 9.69235 8.88499C9.69235 8.88499 9.69235 8.885 9.69235 8.885C9.69235 8.88501 9.69235 8.88501 9.69235 8.88502C9.69235 8.88502 9.69235 8.88503 9.69235 8.88503C9.69235 8.88504 9.69235 8.88505 9.69235 8.88505C9.69235 8.88506 9.69235 8.88506 9.69235 8.88507C9.69235 8.88507 9.69235 8.88508 9.69235 8.88508C9.69235 8.88509 9.69235 8.88509 9.69235 8.8851C9.69235 8.8851 9.69235 8.88511 9.69235 8.88511C9.69235 8.88512 9.69235 8.88513 9.69235 8.88513C9.69235 8.88514 9.69235 8.88514 9.69235 8.88515C9.69235 8.88515 9.69235 8.88516 9.69235 8.88516C9.69235 8.88517 9.69235 8.88517 9.69235 8.88518C9.69235 8.88519 9.69235 8.88519 9.69235 8.8852C9.69235 8.8852 9.69235 8.88521 9.69235 8.88521C9.69235 8.88522 9.69235 8.88523 9.69235 8.88523C9.69235 8.88524 9.69235 8.88524 9.69235 8.88525C9.69235 8.88525 9.69235 8.88526 9.69235 8.88526C9.69235 8.88527 9.69235 8.88528 9.69235 8.88528C9.69235 8.88529 9.69235 8.88529 9.69235 8.8853C9.69235 8.8853 9.69235 8.88531 9.69235 8.88531C9.69235 8.88532 9.69235 8.88533 9.69235 8.88533C9.69235 8.88534 9.69235 8.88534 9.69235 8.88535C9.69235 8.88536 9.69235 8.88536 9.69235 8.88537C9.69235 8.88537 9.69235 8.88538 9.69235 8.88538C9.69235 8.88539 9.69235 8.8854 9.69235 8.8854C9.69235 8.88541 9.69235 8.88541 9.69235 8.88542C9.69235 8.88543 9.69235 8.88543 9.69235 8.88544C9.69235 8.88544 9.69235 8.88545 9.69235 8.88546C9.69235 8.88546 9.69235 8.88547 9.69235 8.88547C9.69235 8.88548 9.69235 8.88548 9.69235 8.88549C9.69235 8.8855 9.69235 8.8855 9.69235 8.88551C9.69235 8.88552 9.69235 8.88552 9.69235 8.88553C9.69235 8.88553 9.69235 8.88554 9.69235 8.88554C9.69235 8.88555 9.69235 8.88556 9.69235 8.88556C9.69235 8.88557 9.69235 8.88558 9.69235 8.88558C9.69235 8.88559 9.69235 8.88559 9.69235 8.8856C9.69235 8.88561 9.69235 8.88561 9.69235 8.88562C9.69235 8.88562 9.69235 8.88563 9.69235 8.88564C9.69235 8.88564 9.69235 8.88565 9.69235 8.88566C9.69235 8.88566 9.69235 8.88567 9.69235 8.88567C9.69235 8.88568 9.69235 8.88569 9.69235 8.88569C9.69235 8.8857 9.69235 8.8857 9.69235 8.88571C9.69235 8.88572 9.69235 8.88572 9.69235 8.88573C9.69235 8.88574 9.69235 8.88574 9.69235 8.88575C9.69235 8.88576 9.69235 8.88576 9.69235 8.88577C9.69235 8.88577 9.69235 8.88578 9.69235 8.88579C9.69235 8.88579 9.69235 8.8858 9.69235 8.88581C9.69235 8.88581 9.69235 8.88582 9.69235 8.88583C9.69235 8.88583 9.69235 8.88584 9.69235 8.88585C9.69235 8.88585 9.69235 8.88586 9.69235 8.88586C9.69235 8.88587 9.69235 8.88588 9.69235 8.88588C9.69235 8.88589 9.69235 8.8859 9.69235 8.8859C9.69235 8.88591 9.69235 8.88592 9.69235 8.88592C9.69235 8.88593 9.69235 8.88594 9.69235 8.88594C9.69235 8.88595 9.69235 8.88596 9.69235 8.88596C9.69235 8.88597 9.69235 8.88597 9.69235 8.88598C9.69235 8.88599 9.69235 8.88599 9.69235 8.886C9.69235 8.88601 9.69235 8.88601 9.69235 8.88602C9.69235 8.88603 9.69235 8.88603 9.69235 8.88604C9.69235 8.88605 9.69235 8.88605 9.69235 8.88606C9.69235 8.88607 9.69235 8.88608 9.69235 8.88608C9.69235 8.88609 9.69235 8.8861 9.69235 8.8861C9.69235 8.88611 9.69235 8.88612 9.69235 8.88612C9.69235 8.88613 9.69235 8.88614 9.69235 8.88614C9.69235 8.88615 9.69235 8.88616 9.69235 8.88616C9.69235 8.88617 9.69235 8.88618 9.69235 8.88618C9.69235 8.88619 9.69235 8.8862 9.69235 8.8862C9.69235 8.88621 9.69235 8.88622 9.69235 8.88622C9.69235 8.88623 9.69235 8.88624 9.69235 8.88624C9.69235 8.88625 9.69235 8.88626 9.69235 8.88627C9.69235 8.88627 9.69235 8.88628 9.69235 8.88629C9.69235 8.88629 9.69235 8.8863 9.69235 8.88631C9.69235 8.88631 9.69235 8.88632 9.69235 8.88633C9.69235 8.88634 9.69235 8.88634 9.69235 8.88635C9.69235 8.88636 9.69235 8.88636 9.69235 8.88637C9.69235 8.88638 9.69235 8.88638 9.69235 8.88639C9.69235 8.8864 9.69235 8.88641 9.69235 8.88641C9.69235 8.88642 9.69235 8.88643 9.69235 8.88643C9.69235 8.88644 9.69235 8.88645 9.69235 8.88646C9.69235 8.88646 9.69235 8.88647 9.69235 8.88648C9.69235 8.88648 9.69235 8.88649 9.69235 8.8865C9.69235 8.88651 9.69235 8.88651 9.69235 8.88652C9.69235 8.88653 9.69235 8.88653 9.69235 8.88654C9.69235 8.88655 9.69235 8.88656 9.69235 8.88656C9.69235 8.88657 9.69235 8.88658 9.69235 8.88659C9.69235 8.88659 9.69235 8.8866 9.69235 8.88661C9.69235 8.88661 9.69235 8.88662 9.69235 8.88663C9.69235 8.88664 9.69235 8.88664 9.69235 8.88665C9.69235 8.88666 9.69235 8.88667 9.69235 8.88667C9.69235 8.88668 9.69235 8.88669 9.69235 8.88669C9.69235 8.8867 9.69235 8.88671 9.69235 8.88672C9.69235 8.88672 9.69235 8.88673 9.69235 8.88674C9.69235 8.88675 9.69235 8.88675 9.69235 8.88676C9.69235 8.88677 9.69235 8.88678 9.69235 8.88678C9.69235 8.88679 9.69235 8.8868 9.69235 8.88681C9.69235 8.88681 9.69235 8.88682 9.69235 8.88683C9.69235 8.88684 9.69235 8.88684 9.69235 8.88685C9.69235 8.88686 9.69235 8.88686 9.69235 8.88687C9.69235 8.88688 9.69235 8.88689 9.69235 8.8869C9.69235 8.8869 9.69235 8.88691 9.69235 8.88692C9.69235 8.88693 9.69235 8.88693 9.69235 8.88694C9.69235 8.88695 9.69235 8.88696 9.69235 8.88696C9.69235 8.88697 9.69235 8.88698 9.69235 8.88699C9.69235 8.88699 9.69235 8.887 9.69235 8.88701C9.69235 8.88702 9.69235 8.88702 9.69235 8.88703C9.69235 8.88704 9.69235 8.88705 9.69235 8.88705C9.69235 8.88706 9.69235 8.88707 9.69235 8.88708C9.69235 8.88709 9.69235 8.88709 9.69235 8.8871C9.69235 8.88711 9.69235 8.88712 9.69235 8.88712C9.69235 8.88713 9.69235 8.88714 9.69235 8.88715C9.69235 8.88715 9.69235 8.88716 9.69235 8.88717C9.69235 8.88718 9.69235 8.88719 9.69235 8.88719C9.69235 8.8872 9.69235 8.88721 9.69235 8.88722C9.69235 8.88723 9.69235 8.88723 9.69235 8.88724C9.69235 8.88725 9.69235 8.88726 9.69235 8.88726C9.69235 8.88727 9.69235 8.88728 9.69235 8.88729C9.69235 8.8873 9.69235 8.8873 9.69235 8.88731C9.69235 8.88732 9.69235 8.88733 9.69235 8.88733C9.69235 8.88734 9.69235 8.88735 9.69235 8.88736C9.69235 8.88737 9.69235 8.88737 9.69235 8.88738C9.69235 8.88739 9.69235 8.8874 9.69235 8.88741C9.69235 8.88741 9.69235 8.88742 9.69235 8.88743C9.69235 8.88744 9.69235 8.88745 9.69235 8.88745C9.69235 8.88746 9.69235 8.88747 9.69235 8.88748C9.69235 8.88749 9.69235 8.88749 9.69235 8.8875C9.69235 8.88751 9.69235 8.88752 9.69235 8.88753C9.69235 8.88753 9.69235 8.88754 9.69235 8.88755C9.69235 8.88756 9.69235 8.88757 9.69235 8.88757C9.69235 8.88758 9.69235 8.88759 9.69235 8.8876C9.69235 8.88761 9.69235 8.88762 9.69235 8.88762C9.69235 8.88763 9.69235 8.88764 9.69235 8.88765C9.69235 8.88766 9.69235 8.88766 9.69235 8.88767C9.69235 8.88768 9.69235 8.88769 9.69235 8.8877C9.69235 8.8877 9.69235 8.88771 9.69235 8.88772C9.69235 8.88773 9.69235 8.88774 9.69235 8.88774C9.69235 8.88775 9.69235 8.88776 9.69235 8.88777C9.69235 8.88778 9.69235 8.88779 9.69235 8.88779C9.69235 8.8878 9.69235 8.88781 9.69235 8.88782C9.69235 8.88783 9.69235 8.88784 9.69235 8.88784C9.69235 8.88785 9.69235 8.88786 9.69235 8.88787C9.69235 8.88788 9.69235 8.88789 9.69235 8.88789C9.69235 8.8879 9.69235 8.88791 9.69235 8.88792C9.69235 8.88793 9.69235 8.88794 9.69235 8.88794C9.69235 8.88795 9.69235 8.88796 9.69235 8.88797C9.69235 8.88798 9.69235 8.88799 9.69235 8.88799C9.69235 8.888 9.69235 8.88801 9.69235 8.88802C9.69235 8.88803 9.69235 8.88804 9.69235 8.88804C9.69235 8.88805 9.69235 8.88806 9.69235 8.88807C9.69235 8.88808 9.69235 8.88809 9.69235 8.88809C9.69235 8.8881 9.69235 8.88811 9.69235 8.88812C9.69235 8.88813 9.69235 8.88814 9.69235 8.88815C9.69235 8.88815 9.69235 8.88816 9.69235 8.88817C9.69235 8.88818 9.69235 8.88819 9.69235 8.8882C9.69235 8.8882 9.69235 8.88821 9.69235 8.88822C9.69235 8.88823 9.69235 8.88824 9.69235 8.88825C9.69235 8.88826 9.69235 8.88826 9.69235 8.88827C9.69235 8.88828 9.69235 8.88829 9.69235 8.8883C9.69235 8.88831 9.69235 8.88832 9.69235 8.88832C9.69235 8.88833 9.69235 8.88834 9.69235 8.88835C9.69235 8.88836 9.69235 8.88837 9.69235 8.88838C9.69235 8.88838 9.69235 8.88839 9.69235 8.8884C9.69235 8.88841 9.69235 8.88842 9.69235 8.88843C9.69235 8.88844 9.69235 8.88844 9.69235 8.88845C9.69235 8.88846 9.69235 8.88847 9.69235 8.88848C9.69235 8.88849 9.69235 8.8885 9.69235 8.8885C9.69235 8.88851 9.69235 8.88852 9.69235 8.88853C9.69235 8.88854 9.69235 8.88855 9.69235 8.88856C9.69235 8.88857 9.69235 8.88857 9.69235 8.88858C9.69235 8.88859 9.69235 8.8886 9.69235 8.88861C9.69235 8.88862 9.69235 8.88863 9.69235 8.88864C9.69235 8.88864 9.69235 8.88865 9.69235 8.88866C9.69235 8.88867 9.69235 8.88868 9.69235 8.88869C9.69235 8.8887 9.69235 8.88871 9.69235 8.88871C9.69235 8.88872 9.69235 8.88873 9.69235 8.88874C9.69235 8.88875 9.69235 8.88876 9.69235 8.88877C9.69235 8.88878 9.69235 8.88879 9.69235 8.88879C9.69235 8.8888 9.69235 8.88881 9.69235 8.88882C9.69235 8.88883 9.69235 8.88884 9.69235 8.88885C9.69235 8.88886 9.69235 8.88886 9.69235 8.88887C9.69235 8.88888 9.69235 8.88889 9.69235 8.8889C9.69235 8.88891 9.69235 8.88892 9.69235 8.88893C9.69235 8.88894 9.69235 8.88894 9.69235 8.88895C9.69235 8.88896 9.69235 8.88897 9.69235 8.88898C9.69235 8.88899 9.69235 8.889 9.69235 8.88901C9.69235 8.88902 9.69235 8.88902 9.69235 8.88903C9.69235 8.88904 9.69235 8.88905 9.69235 8.88906C9.69235 8.88907 9.69235 8.88908 9.69235 8.88909C9.69235 8.8891 9.69235 8.88911 9.69235 8.88911C9.69235 8.88912 9.69235 8.88913 9.69235 8.88914C9.69235 8.88915 9.69235 8.88916 9.69235 8.88917C9.69235 8.88918 9.69235 8.88919 9.69235 8.8892C9.69235 8.8892 9.69235 8.88921 9.69235 8.88922C9.69235 8.88923 9.69235 8.88924 9.69235 8.88925C9.69235 8.88926 9.69235 8.88927 9.69235 8.88928C9.69235 8.88929 9.69235 8.8893 9.69235 8.88931C9.69235 8.88931 9.69235 8.88932 9.69235 8.88933C9.69235 8.88934 9.69235 8.88935 9.69235 8.88936C9.69235 8.88937 9.69235 8.88938 9.69235 8.88939C9.69235 8.8894 9.69235 8.88941 9.69235 8.88941C9.69235 8.88942 9.69235 8.88943 9.69235 8.88944C9.69235 8.88945 9.69235 8.88946 9.69235 8.88947C9.69235 8.88948 9.69235 8.88949 9.69235 8.8895C9.69235 8.88951 9.69235 8.88951 9.69235 8.88952C9.69235 8.88953 9.69235 8.88954 9.69235 8.88955C9.69235 8.88956 9.69235 8.88957 9.69235 8.88958C9.69235 8.88959 9.69235 8.8896 9.69235 8.88961C9.69235 8.88962 9.69235 8.88963 9.69235 8.88963C9.69235 8.88964 9.69235 8.88965 9.69235 8.88966C9.69235 8.88967 9.69235 8.88968 9.69235 8.88969C9.69235 8.8897 9.69235 8.88971 9.69235 8.88972C9.69235 8.88973 9.69235 8.88974 9.69235 8.88975C9.69235 8.88975 9.69235 8.88976 9.69235 8.88977C9.69235 8.88978 9.69235 8.88979 9.69235 8.8898C9.69235 8.88981 9.69235 8.88982 9.69235 8.88983C9.69235 8.88984 9.69235 8.88985 9.69235 8.88986C9.69235 8.88987 9.69235 8.88988 9.69235 8.88988C9.69235 8.88989 9.69235 8.8899 9.69235 8.88991C9.69235 8.88992 9.69235 8.88993 9.69235 8.88994C9.69235 8.88995 9.69235 8.88996 9.69235 8.88997C9.69235 8.88998 9.69235 8.88999 9.69235 8.89C9.69235 8.89001 9.69235 8.89002 9.69235 8.89003C9.69235 8.89003 9.69235 8.89004 9.69235 8.89005C9.69235 8.89006 9.69235 8.89007 9.69235 8.89008C9.69235 8.89009 9.69235 8.8901 9.69235 8.89011C9.69235 8.89012 9.69235 8.89013 9.69235 8.89014C9.69235 8.89015 9.69235 8.89016 9.69235 8.89017C9.69235 8.89018 9.69235 8.89019 9.69235 8.89019C9.69235 8.8902 9.69235 8.89021 9.69235 8.89022C9.69235 8.89023 9.69235 8.89024 9.69235 8.89025C9.69235 8.89026 9.69235 8.89027 9.69235 8.89028C9.69235 8.89029 9.69235 8.8903 9.69235 8.89031C9.69235 8.89032 9.69235 8.89033 9.69235 8.89034C9.69235 8.89035 9.69235 8.89036 9.69235 8.89036C9.69235 8.89037 9.69235 8.89038 9.69235 8.89039C9.69235 8.8904 9.69235 8.89041 9.69235 8.89042C9.69235 8.89043 9.69235 8.89044 9.69235 8.89045C9.69235 8.89046 9.69235 8.89047 9.69235 8.89048C9.69235 8.89049 9.69235 8.8905 9.69235 8.89051C9.69235 8.89052 9.69235 8.89053 9.69235 8.89054C9.69235 8.89055 9.69235 8.89056 9.69235 8.89056C9.69235 8.89057 9.69235 8.89058 9.69235 8.89059C9.69235 8.8906 9.69235 8.89061 9.69235 8.89062C9.69235 8.89063 9.69235 8.89064 9.69235 8.89065C9.69235 8.89066 9.69235 8.89067 9.69235 8.89068C9.69235 8.89069 9.69235 8.8907 9.69235 8.89071C9.69235 8.89072 9.69235 8.89073 9.69235 8.89074C9.69235 8.89075 9.69235 8.89076 9.69235 8.89077C9.69235 8.89078 9.69235 8.89079 9.69235 8.8908C9.69235 8.89081 9.69235 8.89081 9.69235 8.89082C9.69235 8.89083 9.69235 8.89084 9.69235 8.89085C9.69235 8.89086 9.69235 8.89087 9.69235 8.89088C9.69235 8.89089 9.69235 8.8909 9.69235 8.89091C9.69235 8.89092 9.69235 8.89093 9.69235 8.89094C9.69235 8.89095 9.69235 8.89096 9.69235 8.89097C9.69235 8.89098 9.69235 8.89099 9.69235 8.891C9.69235 8.89101 9.69235 8.89102 9.69235 8.89103C9.69235 8.89104 9.69235 8.89105 9.69235 8.89106C9.69235 8.89107 9.69235 8.89108 9.69235 8.89109C9.69235 8.8911 9.69235 8.89111 9.69235 8.89112C9.69235 8.89112 9.69235 8.89113 9.69235 8.89114C9.69235 8.89115 9.69235 8.89116 9.69235 8.89117C9.69235 8.89118 9.69235 8.89119 9.69235 8.8912C9.69235 8.89121 9.69235 8.89122 9.69235 8.89123C9.69235 8.89124 9.69235 8.89125 9.69235 8.89126C9.69235 8.89127 9.69235 8.89128 9.69235 8.89129C9.69235 8.8913 9.69235 8.89131 9.69235 8.89132C9.69235 8.89133 9.69235 8.89134 9.69235 8.89135C9.69235 8.89136 9.69235 8.89137 9.69235 8.89138C9.69235 8.89139 9.69235 8.8914 9.69235 8.89141C9.69235 8.89142 9.69235 8.89143 9.69235 8.89144C9.69235 8.89145 9.69235 8.89146 9.69235 8.89147C9.69235 8.89148 9.69235 8.89149 9.69235 8.8915C9.69235 8.89151 9.69235 8.89152 9.69235 8.89153C9.69235 8.89154 9.69235 8.89155 9.69235 8.89155C9.69235 8.89157 9.69235 8.89157 9.69235 8.89158C9.69235 8.89159 9.69235 8.8916 9.69235 8.89161C9.69235 8.89162 9.69235 8.89163 9.69235 8.89164C9.69235 8.89165 9.69235 8.89166 9.69235 8.89167C9.69235 8.89168 9.69235 8.89169 9.69235 8.8917C9.69235 8.89171 9.69235 8.89172 9.69235 8.89173C9.69235 8.89174 9.69235 8.89175 9.69235 8.89176C9.69235 8.89177 9.69235 8.89178 9.69235 8.89179C9.69235 8.8918 9.69235 8.89181 9.69235 8.89182C9.69235 8.89183 9.69235 8.89184 9.69235 8.89185C9.69235 8.89186 9.69235 8.89187 9.69235 8.89188C9.69235 8.89189 9.69235 8.8919 9.69235 8.89191C9.69235 8.89192 9.69235 8.89193 9.69235 8.89194C9.69235 8.89195 9.69235 8.89196 9.69235 8.89197C9.69235 8.89198 9.69235 8.89199 9.69235 8.892C9.69235 8.89201 9.69235 8.89202 9.69235 8.89203C9.69235 8.89204 9.69235 8.89205 9.69235 8.89206C9.69235 8.89207 9.69235 8.89208 9.69235 8.89209C9.69235 8.8921 9.69235 8.89211 9.69235 8.89212C9.69235 8.89213 9.69235 8.89214 9.69235 8.89215C9.69235 8.89216 9.69235 8.89217 9.69235 8.89218C9.69235 8.89219 9.69235 8.8922 9.69235 8.89221C9.69235 8.89222 9.69235 8.89223 9.69235 8.89224C9.69235 8.89225 9.69235 8.89226 9.69235 8.89227C9.69235 8.89228 9.69235 8.89229 9.69235 8.8923C9.69235 8.89231 9.69235 8.89232 9.69235 8.89233C9.69235 8.89234 9.69235 8.89235 9.69235 8.89236C9.69235 8.89237 9.69235 8.89238 9.69235 8.89239C9.69235 8.8924 9.69235 8.89241 9.69235 8.89242C9.69235 8.89243 9.69235 8.89244 9.69235 8.89245C9.69235 8.89246 9.69235 8.89247 9.69235 8.89248C9.69235 8.89249 9.69235 8.8925 9.69235 8.89251C9.69235 8.89252 9.69235 8.89253 9.69235 8.89254C9.69235 8.89255 9.69235 8.89256 9.69235 8.89257C9.69235 8.89258 9.69235 8.89259 9.69235 8.8926C9.69235 8.89261 9.69235 8.89262 9.69235 8.89263C9.69235 8.89264 9.69235 8.89265 9.69235 8.89266C9.69235 8.89267 9.69235 8.89268 9.69235 8.89269C9.69235 8.8927 9.69235 8.89271 9.69235 8.89272C9.69235 8.89273 9.69235 8.89274 9.69235 8.89275C9.69235 8.89276 9.69235 8.89277 9.69235 8.89278C9.69235 8.89279 9.69235 8.8928 9.69235 8.89281C9.69235 8.89282 9.69235 8.89283 9.69235 8.89284C9.69235 8.89285 9.69235 8.89286 9.69235 8.89287C9.69235 8.89288 9.69235 8.89289 9.69235 8.8929C9.69235 8.89291 9.69235 8.89292 9.69235 8.89293C9.69235 8.89294 9.69235 8.89295 9.69235 8.89296C9.69235 8.89297 9.69235 8.89298 9.69235 8.89299C9.69235 8.893 9.69235 8.89301 9.69235 8.89302C9.69235 8.89303 9.69235 8.89304 9.69235 8.89305C9.69235 8.89306 9.69235 8.89307 9.69235 8.89308C9.69235 8.89309 9.69235 8.8931 9.69235 8.89311C9.69235 8.89312 9.69235 8.89313 9.69235 8.89314C9.69235 8.89315 9.69235 8.89316 9.69235 8.89317C9.69235 8.89318 9.69235 8.89319 9.69235 8.8932C9.69235 8.89321 9.69235 8.89322 9.69235 8.89323C9.69235 8.89324 9.69235 8.89325 9.69235 8.89326C9.69235 8.89327 9.69235 8.89328 9.69235 8.89329C9.69235 8.8933 9.69235 8.89331 9.69235 8.89332C9.69235 8.89333 9.69235 8.89334 9.69235 8.89335C9.69235 8.89336 9.69235 8.89337 9.69235 8.89338C9.69235 8.89339 9.69235 8.8934 9.69235 8.89341C9.69235 8.89342 9.69235 8.89343 9.69235 8.89344C9.69235 8.89345 9.69235 8.89346 9.69235 8.89347C9.69235 8.89348 9.69235 8.89349 9.69235 8.8935C9.69235 8.89351 9.69235 8.89352 9.69235 8.89353C9.69235 8.89354 9.69235 8.89355 9.69235 8.89356C9.69235 8.89357 9.69235 8.89358 9.69235 8.89359C9.69235 8.8936 9.69235 8.89361 9.69235 8.89362C9.69235 8.89363 9.69235 8.89364 9.69235 8.89365C9.69235 8.89366 9.69235 8.89367 9.69235 8.89368C9.69235 8.89369 9.69235 8.8937 9.69235 8.89371C9.69235 8.89372 9.69235 8.89373 9.69235 8.89374C9.69235 8.89375 9.69235 8.89376 9.69235 8.89377C9.69235 8.89378 9.69235 8.89379 9.69235 8.8938C9.69235 8.89381 9.69235 8.89382 9.69235 8.89384C9.69235 8.89384 9.69235 8.89386 9.69235 8.89386C9.69235 8.89388 9.69235 8.89389 9.69235 8.8939C9.69235 8.89391 9.69235 8.89392 9.69235 8.89393C9.69235 8.89394 9.69235 8.89395 9.69235 8.89396C9.69235 8.89397 9.69235 8.89398 9.69235 8.89399C9.69235 8.894 9.69235 8.89401 9.69235 8.89402C9.69235 8.89403 9.69235 8.89404 9.69235 8.89405H12.1924ZM12.1914 8.93368C12.2105 8.45556 12.0326 8.03882 11.7745 7.73229L9.86218 9.34263C9.76943 9.23248 9.68456 9.05346 9.69335 8.83374L12.1914 8.93368ZM11.7745 7.73228C11.493 7.39801 11.0953 7.17669 10.653 7.1214L10.3429 9.60209C10.1486 9.57781 9.9783 9.48052 9.86219 9.34263L11.7745 7.73228ZM10.6559 7.12178C10.2311 7.06763 9.79546 6.95776 9.36821 6.80081L8.50616 9.14749C9.09184 9.36263 9.71049 9.5215 10.3399 9.60172L10.6559 7.12178ZM9.39025 6.80915C9.04998 6.67682 8.69318 6.6629 8.37662 6.73324L8.91894 9.17371C8.78843 9.20271 8.63835 9.19913 8.48413 9.13916L9.39025 6.80915ZM8.39026 6.73029C8.06061 6.79969 7.75347 6.96116 7.5055 7.20913L9.27327 8.9769C9.17 9.08016 9.03857 9.14861 8.9053 9.17666L8.39026 6.73029ZM7.50201 7.21263L6.85085 7.86896L8.62559 9.62973L9.27675 8.9734L7.50201 7.21263ZM6.85434 7.86546C7.09523 7.62456 7.45685 7.58797 7.73222 7.74331L6.50391 9.92075C7.18238 10.3035 8.05046 10.2049 8.6221 9.63323L6.85434 7.86546ZM7.73516 7.74497C6.55837 7.07695 5.58135 6.09692 4.9052 4.91811L2.73661 6.16198C3.63152 7.72218 4.92841 9.02639 6.50097 9.91909L7.73516 7.74497ZM4.93894 4.98102C5.04486 5.19287 5.04752 5.53339 4.79265 5.78827L3.02488 4.0205C2.43925 4.60613 2.3799 5.4531 2.70287 6.09906L4.93894 4.98102ZM4.79265 5.78827L5.44898 5.13194L3.68121 3.36417L3.02488 4.0205L4.79265 5.78827ZM5.44898 5.13194C5.69834 4.88257 5.85524 4.57252 5.92265 4.25233L3.47627 3.73731C3.50234 3.6135 3.56621 3.47917 3.68121 3.36417L5.44898 5.13194ZM5.92265 4.25233C5.98776 3.94306 5.97722 3.59546 5.84379 3.25236L3.51378 4.15847C3.4527 4.00142 3.45251 3.8502 3.47627 3.73731L5.92265 4.25233ZM5.84822 3.2639C5.69241 2.85123 5.58513 2.41627 5.52463 1.97117L3.04741 2.30788C3.13162 2.92738 3.28273 3.54668 3.50936 4.14693L5.84822 3.2639ZM5.52552 1.97785C5.46886 1.54342 5.25054 1.16077 4.94594 0.890018L3.28503 2.75854C3.16647 2.65316 3.07218 2.49791 3.04652 2.3012L5.52552 1.97785ZM4.91571 0.864003C4.61381 0.612421 4.21591 0.450248 3.77956 0.450248V2.95025C3.59128 2.95025 3.4311 2.8811 3.31525 2.78456L4.91571 0.864003ZM3.77956 0.450248H2.21884V2.95025H3.77956V0.450248Z" fill="#C5C6D0" mask="url(#path-1-inside-1_9518_1222)"/>
</svg>
