<svg xmlns="http://www.w3.org/2000/svg" width="12" height="12" fill="none" viewBox="0 0 12 12"><mask id="a" fill="#fff"><path d="M10.43 12q-.068.001-.144-.005a10.8 10.8 0 0 1-4.692-1.67A10.6 10.6 0 0 1 2.338 7.07 10.8 10.8 0 0 1 .674 2.367q-.03-.332.072-.64c.067-.208.18-.394.326-.554A1.57 1.57 0 0 1 2.219.667h1.55c.362 0 .734.129 1.023.377.285.243.47.584.522.956.062.46.176.915.336 1.344.104.279.13.578.062.868a1.54 1.54 0 0 1-.413.765l-.372.372A7.8 7.8 0 0 0 7.299 7.72l.372-.372c.212-.212.48-.357.77-.414.29-.062.59-.04.868.062a6.3 6.3 0 0 0 1.339.336A1.55 1.55 0 0 1 11.986 8.9v1.545a1.54 1.54 0 0 1-.501 1.148c-.16.144-.346.258-.553.325a1.5 1.5 0 0 1-.501.083M3.78 1.7H2.219a.5.5 0 0 0-.207.047.46.46 0 0 0-.176.119.4.4 0 0 0-.108.186.6.6 0 0 0-.026.212 9.8 9.8 0 0 0 1.504 4.248 9.65 9.65 0 0 0 2.946 2.945 9.8 9.8 0 0 0 4.237 1.51.6.6 0 0 0 .202-.026.6.6 0 0 0 .186-.109.4.4 0 0 0 .124-.176.5.5 0 0 0 .041-.212v-1.56a.5.5 0 0 0-.124-.347.5.5 0 0 0-.32-.175 7.2 7.2 0 0 1-1.56-.388.5.5 0 0 0-.29-.02.5.5 0 0 0-.259.139l-.65.656a.516.516 0 0 1-.62.083A8.84 8.84 0 0 1 3.82 5.54a.545.545 0 0 1 .088-.636l.656-.656a.5.5 0 0 0 .134-.253.5.5 0 0 0-.02-.29 7.2 7.2 0 0 1-.393-1.565.52.52 0 0 0-.17-.316.53.53 0 0 0-.336-.124"/></mask><path fill="#fff" d="M10.43 12q-.068.001-.144-.005a10.8 10.8 0 0 1-4.692-1.67A10.6 10.6 0 0 1 2.338 7.07 10.8 10.8 0 0 1 .674 2.367q-.03-.332.072-.64c.067-.208.18-.394.326-.554A1.57 1.57 0 0 1 2.219.667h1.55c.362 0 .734.129 1.023.377.285.243.47.584.522.956.062.46.176.915.336 1.344.104.279.13.578.062.868a1.54 1.54 0 0 1-.413.765l-.372.372A7.8 7.8 0 0 0 7.299 7.72l.372-.372c.212-.212.48-.357.77-.414.29-.062.59-.04.868.062a6.3 6.3 0 0 0 1.339.336A1.55 1.55 0 0 1 11.986 8.9v1.545a1.54 1.54 0 0 1-.501 1.148c-.16.144-.346.258-.553.325a1.5 1.5 0 0 1-.501.083M3.78 1.7H2.219a.5.5 0 0 0-.207.047.46.46 0 0 0-.176.119.4.4 0 0 0-.108.186.6.6 0 0 0-.026.212 9.8 9.8 0 0 0 1.504 4.248 9.65 9.65 0 0 0 2.946 2.945 9.8 9.8 0 0 0 4.237 1.51.6.6 0 0 0 .202-.026.6.6 0 0 0 .186-.109.4.4 0 0 0 .124-.176.5.5 0 0 0 .041-.212v-1.56a.5.5 0 0 0-.124-.347.5.5 0 0 0-.32-.175 7.2 7.2 0 0 1-1.56-.388.5.5 0 0 0-.29-.02.5.5 0 0 0-.259.139l-.65.656a.516.516 0 0 1-.62.083A8.84 8.84 0 0 1 3.82 5.54a.545.545 0 0 1 .088-.636l.656-.656a.5.5 0 0 0 .134-.253.5.5 0 0 0-.02-.29 7.2 7.2 0 0 1-.393-1.565.52.52 0 0 0-.17-.316.53.53 0 0 0-.336-.124"/><path fill="#C5C6D0" d="m10.286 11.995-.135 1.243h.01zm-4.692-1.67.68-1.048-.01-.007zM2.338 7.07l1.055-.67-.006-.01zM.674 2.367l-1.245.116v.007l.001.008zm.072-.64L-.443 1.34zM1.588.8l-.5-1.146-.01.005zm3.204.243-.813.949.001.001zM5.314 2l1.24-.167-.001-.005zm.336 1.344 1.173-.434-.002-.004zm.062.868-1.217-.283-.003.01-.002.011zm-.785 1.137-.884-.884-.712.712.544.847zM7.299 7.72l-.672 1.054.846.54.71-.71zm.372-.372.884.884zm.77-.414.241 1.227.01-.002.011-.002zm.868.062.438-1.17-.004-.002zm1.339.336-.17 1.239h.002zm.971.533.958-.804-.009-.01zm.367 1.033-1.25-.034v.034zm-.129 2.17 1.141.511.005-.01zm-.372.523.838.927.007-.007.008-.007zm-.553.325-.386-1.188-.01.003-.01.003zm-8.92-10.17.449 1.166.038-.014.037-.017zm-.176.119.884.884.024-.024.022-.024zm-.108.186 1.195.367.003-.012.004-.012zm-.026.212-1.247.089.002.021.002.022zm1.504 4.248L4.26 5.84l-.004-.006zm2.946 2.945.681-1.048-.01-.006zm4.237 1.51-.137 1.242.017.002.017.001zm.202-.026-.368-1.195zm.186-.109.792.967zm.124-.176-1.135-.524-.017.037-.015.039zm.041-1.772-1.249-.05v.05zm-.124-.347.957-.805zm-.32-.175-.158 1.24h.003zm-1.56-.388L8.483 9.14l.011.004.011.004zm-.29-.02.257 1.223.014-.003zm-.259.139-.884-.884-.003.004zm-.65.656.883.884.004-.003zm-.62.083L6.5 9.919l.003.002zM3.82 5.54l-1.118.56.016.031.018.031zm.088-.636-.884-.883zm.79-.91-1.223-.257zm-.02-.289-1.17.442.005.011zM4.286 2.14l-1.24.161.001.007zm-.17-.316.83-.934L4.93.877 4.916.864zm6.315 8.926h-.037l.016.001-.248 2.488c.122.012.227.011.269.011zm-.01.002a9.54 9.54 0 0 1-4.147-1.475l-1.361 2.097a12.04 12.04 0 0 0 5.238 1.864zM6.264 9.27A9.4 9.4 0 0 1 3.393 6.4l-2.11 1.34a11.9 11.9 0 0 0 3.64 3.64zM3.387 6.39a9.5 9.5 0 0 1-1.47-4.154l-2.487.262a12 12 0 0 0 1.858 5.25zM1.918 2.252a.3.3 0 0 1 .017-.139L-.443 1.34A2.8 2.8 0 0 0-.57 2.483zm.017-.139a.3.3 0 0 1 .064-.101L.144.335C-.105.61-.316.947-.443 1.34zm.064-.101a.3.3 0 0 1 .1-.069L1.078-.34a2.8 2.8 0 0 0-.934.675zm.089-.064a.3.3 0 0 1 .13-.03v-2.5c-.398 0-.78.086-1.13.238zm.13-.03H3.77v-2.5H2.22zm1.551 0c.075 0 .155.03.21.076L5.606.095a2.84 2.84 0 0 0-1.837-.678zm.211.077a.3.3 0 0 1 .096.178l2.477-.344A2.8 2.8 0 0 0 5.605.094zm.096.173a7.5 7.5 0 0 0 .403 1.614l2.342-.875a5 5 0 0 1-.268-1.073zm.402 1.61c.026.07.024.12.017.152l2.435.566a2.76 2.76 0 0 0-.107-1.585zm.012.173a.3.3 0 0 1-.075.143L6.183 5.86c.38-.381.64-.868.752-1.387zm-.075.143-.372.372 1.768 1.768.372-.372zm-.54 1.93a9.1 9.1 0 0 0 2.752 2.752L7.97 6.667a6.6 6.6 0 0 1-1.99-1.993zm4.308 2.582.372-.372-1.768-1.768-.372.372zm.372-.372a.25.25 0 0 1 .127-.071L8.2 5.709a2.75 2.75 0 0 0-1.413.756zm.148-.075a.3.3 0 0 1 .172.012l.868-2.345a2.8 2.8 0 0 0-1.564-.112zm.169.01a7.5 7.5 0 0 0 1.607.404l.338-2.477a5 5 0 0 1-1.07-.269zm1.608.404a.3.3 0 0 1 .19.107l1.898-1.627a2.8 2.8 0 0 0-1.753-.957zm.182.097a.3.3 0 0 1 .075.196l2.499.068a2.8 2.8 0 0 0-.66-1.871zm.074.23v1.545h2.5V8.9zm0 1.545a.3.3 0 0 1-.025.126l2.292 1a2.8 2.8 0 0 0 .233-1.126zm-.02.115a.4.4 0 0 1-.084.119l1.706 1.827c.278-.259.505-.577.66-.925zm-.069.105a.3.3 0 0 1-.101.065l.772 2.377c.393-.127.73-.338 1.005-.587zm-.121.071a.3.3 0 0 1-.095.015v2.5c.301 0 .605-.046.907-.15zM2.219.45c-.264 0-.51.06-.73.162l1.047 2.27a.8.8 0 0 1-.317.068zm-.656.13a1.7 1.7 0 0 0-.656.45l1.859 1.672a.8.8 0 0 1-.305.211zm-.61.402c-.207.206-.35.456-.427.726l2.404.687a.8.8 0 0 1-.21.355zm-.42.702c-.06.193-.095.42-.078.669l2.494-.179a.7.7 0 0 1-.026.245zm-.074.712c.181 1.7.77 3.354 1.696 4.792l2.102-1.353a8.56 8.56 0 0 1-1.312-3.704zm1.692 4.786a10.9 10.9 0 0 0 3.33 3.33l1.341-2.11a8.4 8.4 0 0 1-2.561-2.561zm3.32 3.323a11 11 0 0 0 4.781 1.704l.274-2.485a8.5 8.5 0 0 1-3.693-1.315zm4.815 1.707c.258.022.494-.022.673-.077l-.736-2.39a.8.8 0 0 1 .27-.025zm.673-.077c.294-.09.504-.249.61-.335L9.985 9.865a.8.8 0 0 1 .238-.119zm.61-.335a1.67 1.67 0 0 0 .499-.695l-2.334-.897a.83.83 0 0 1 .251-.343zm.467-.62c.13-.283.156-.55.156-.736h-2.5a.8.8 0 0 1 .074-.312zm.156-.736v-1.55h-2.5v1.55zm0-1.55v-.009h-2.5v.01zm0 .04a1.75 1.75 0 0 0-.418-1.202l-1.912 1.61a.75.75 0 0 1-.169-.508zm-.418-1.202a1.75 1.75 0 0 0-1.121-.61l-.31 2.48a.75.75 0 0 1-.48-.26zm-1.118-.61A6 6 0 0 1 9.368 6.8l-.862 2.346a8.4 8.4 0 0 0 1.834.455zM9.39 6.809a1.76 1.76 0 0 0-1.013-.076l.542 2.44a.75.75 0 0 1-.435-.034zm-1-.079c-.33.07-.637.231-.885.48l1.768 1.767a.74.74 0 0 1-.368.2zm-.888.483-.651.656 1.775 1.76.65-.656zm-.648.652a.734.734 0 0 1 .878-.122L6.504 9.921a1.766 1.766 0 0 0 2.118-.288zm.881-.12a7.6 7.6 0 0 1-2.83-2.827L2.737 6.162A10.1 10.1 0 0 0 6.5 9.919zM4.94 4.981a.71.71 0 0 1-.146.807L3.025 4.021c-.586.585-.645 1.432-.322 2.078zm-.146.807.656-.656-1.768-1.768-.656.657zm.656-.656c.25-.25.406-.56.474-.88l-2.447-.515a.75.75 0 0 1 .205-.373zm.474-.88a1.75 1.75 0 0 0-.08-1l-2.33.906a.75.75 0 0 1-.037-.42zm-.075-.988a6 6 0 0 1-.323-1.293l-2.478.337c.085.62.236 1.239.462 1.839zm-.322-1.286A1.77 1.77 0 0 0 4.946.89L3.285 2.759a.73.73 0 0 1-.238-.458zM4.916.864A1.78 1.78 0 0 0 3.78.45v2.5a.72.72 0 0 1-.465-.165zM3.78.45H2.219v2.5h1.56z" mask="url(#a)"/></svg>