<svg xmlns="http://www.w3.org/2000/svg" width="24" height="24" fill="none" viewBox="0 0 24 24"><path fill="#fff" fill-rule="evenodd" d="M19.072 5.266a.91.91 0 0 0-1.286 1.286 8.183 8.183 0 0 1 0 11.57.91.91 0 1 0 1.286 1.286 10 10 0 0 0 0-14.142Zm-3.21 3.21a.91.91 0 0 0-1.286 1.285 3.637 3.637 0 0 1 0 5.143.91.91 0 1 0 1.287 1.285 5.455 5.455 0 0 0 0-7.713Zm-3.861-2.503a.91.91 0 0 0-1.477-.71L6.227 8.7H2.909A.91.91 0 0 0 2 9.61v5.455a.91.91 0 0 0 .91.909h3.317l4.297 3.437a.91.91 0 0 0 1.477-.71V5.973Zm-4.887 4.346 3.069-2.455v8.946l-3.07-2.455a.909.909 0 0 0-.567-.2H3.818V10.52h2.728a.91.91 0 0 0 .568-.2Z" clip-rule="evenodd"/></svg>