<svg xmlns="http://www.w3.org/2000/svg" width="20" height="20" fill="none" viewBox="0 0 20 20"><path fill="#EFF0FA" fill-rule="evenodd" d="M10 2.5a.68.68 0 0 1 .611.38l1.949 3.947 4.357.637a.682.682 0 0 1 .377 1.163l-3.152 3.07.744 4.338a.682.682 0 0 1-.99.718L10 14.704l-3.896 2.05a.682.682 0 0 1-.99-.72l.744-4.337-3.152-3.07a.682.682 0 0 1 .377-1.163l4.357-.637L9.39 2.88A.682.682 0 0 1 10 2.5Zm0 2.222-1.495 3.03a.682.682 0 0 1-.513.373l-3.345.489 2.42 2.357c.16.156.234.382.196.603l-.571 3.33 2.99-1.573a.682.682 0 0 1 .635 0l2.991 1.572-.57-3.329a.682.682 0 0 1 .195-.603l2.42-2.357-3.345-.49a.682.682 0 0 1-.513-.372L10 4.722Z" clip-rule="evenodd"/></svg>