<svg xmlns="http://www.w3.org/2000/svg" width="24" height="24" fill="none" viewBox="0 0 24 24"><path fill="#fff" fill-rule="evenodd" d="M12 2.462a2.392 2.392 0 0 1 2.125 1.126h.125a1.313 1.313 0 0 1 1.299 1.125h1.514a1.875 1.875 0 0 1 1.875 1.875v5.625a.75.75 0 0 1-1.5 0V6.588a.375.375 0 0 0-.375-.375h-1.5v.938a1.313 1.313 0 0 1-1.313 1.312h-4.5a1.313 1.313 0 0 1-1.313-1.312v-.938h-1.5a.375.375 0 0 0-.375.375v5.625a.75.75 0 0 1-1.5 0V6.588a1.875 1.875 0 0 1 1.875-1.875h1.514A1.312 1.312 0 0 1 9.75 3.588h.129a2.393 2.393 0 0 1 2.12-1.126ZM9.936 6.963h4.126V5.088h-.41a.75.75 0 0 1-.712-.515.892.892 0 0 0-.898-.611.751.751 0 0 1-.084 0 .893.893 0 0 0-.897.611.75.75 0 0 1-.712.515h-.412v1.875Zm-.296 6.02 1.414 3.89a1.032 1.032 0 0 0 1.919.066l1.32-2.968.335.672.001.002a1.033 1.033 0 0 0 .922.568h4.886a.75.75 0 0 0 0-1.5H15.84l-.65-1.302a1.031 1.031 0 0 0-1.865.042l-1.255 2.824-1.393-3.83a1.033 1.033 0 0 0-1.892-.109L7.6 13.713H3.562a.75.75 0 0 0 0 1.5h4.326a1.034 1.034 0 0 0 .922-.568l.001-.002.83-1.66Zm-3.829 2.98a.75.75 0 0 1 .75.75v2.25a.375.375 0 0 0 .375.375h10.125a.375.375 0 0 0 .375-.375v-2.25a.75.75 0 0 1 1.5 0v2.25a1.875 1.875 0 0 1-1.875 1.875H6.938a1.875 1.875 0 0 1-1.875-1.875v-2.25a.75.75 0 0 1 .75-.75Z" clip-rule="evenodd"/></svg>