<svg width="16" height="16" viewBox="0 0 16 16" fill="none" xmlns="http://www.w3.org/2000/svg">
<g id="Tick,Check in Circle">
<g id="Vector">
<path d="M10.0221 7.29476C10.2351 7.08175 10.2351 6.73639 10.0221 6.52338C9.80906 6.31036 9.46369 6.31036 9.25068 6.52338L7.45456 8.3195L6.74934 7.61428C6.53633 7.40127 6.19097 7.40127 5.97795 7.61428C5.76494 7.8273 5.76494 8.17266 5.97795 8.38567L7.06886 9.47658C7.28187 9.6896 7.62724 9.6896 7.84025 9.47658L10.0221 7.29476Z" fill="#C5C6D0"/>
<path fill-rule="evenodd" clip-rule="evenodd" d="M8 2C4.68621 2 2 4.68621 2 8C2 11.3138 4.68621 14 8 14C11.3138 14 14 11.3138 14 8C14 4.68621 11.3138 2 8 2ZM3.09091 8C3.09091 5.2887 5.2887 3.09091 8 3.09091C10.7113 3.09091 12.9091 5.2887 12.9091 8C12.9091 10.7113 10.7113 12.9091 8 12.9091C5.2887 12.9091 3.09091 10.7113 3.09091 8Z" fill="#C5C6D0"/>
</g>
</g>
</svg>
