<svg width="17" height="17" viewBox="0 0 17 17" fill="none" xmlns="http://www.w3.org/2000/svg">
<g id="Icon">
<path id="Vector" d="M1.33325 1.33334L15.4999 15.5" stroke="#C5C6D0" stroke-width="1.5" stroke-linecap="round" stroke-linejoin="round"/>
<path id="Vector_2" d="M8.4165 11.9583V15.5" stroke="#C5C6D0" stroke-width="1.5" stroke-linecap="round" stroke-linejoin="round"/>
<path id="Vector_3" d="M6.29159 6.29167V7.53834C6.29145 7.8019 6.21779 8.06019 6.07889 8.28418C5.93999 8.50817 5.74136 8.68897 5.50534 8.80626L4.2445 9.44376C4.00848 9.56104 3.80985 9.74184 3.67095 9.96583C3.53205 10.1898 3.45839 10.4481 3.45825 10.7117V11.9583H11.9583" stroke="#C5C6D0" stroke-width="1.5" stroke-linecap="round" stroke-linejoin="round"/>
<path id="Vector_4" d="M10.5416 6.5325V4.16667H11.25C11.6257 4.16667 11.986 4.01741 12.2517 3.75174C12.5174 3.48606 12.6666 3.12573 12.6666 2.75C12.6666 2.37428 12.5174 2.01394 12.2517 1.74827C11.986 1.48259 11.6257 1.33334 11.25 1.33334H5.50537" stroke="#C5C6D0" stroke-width="1.5" stroke-linecap="round" stroke-linejoin="round"/>
</g>
</svg>
