<svg width="25" height="22" viewBox="0 0 25 22" fill="none" xmlns="http://www.w3.org/2000/svg">
<path d="M17.0867 3.6853C16.8747 3.47323 16.8747 3.12939 17.0867 2.91731L19.4892 0.514891C19.7012 0.302816 20.0451 0.302816 20.2571 0.514891C20.4692 0.726966 20.4692 1.07081 20.2571 1.28288L17.8547 3.6853C17.6427 3.89738 17.2988 3.89738 17.0867 3.6853Z" fill="#EFF0FA"/>
<path d="M0.172439 6.92939C-0.0396362 7.14147 -0.0396362 7.48531 0.172439 7.69738C0.384513 7.90946 0.728355 7.90946 0.940429 7.69738L7.32016 1.31765C7.53224 1.10557 7.53224 0.761732 7.32017 0.549657C7.10809 0.337582 6.76425 0.337582 6.55217 0.549657L0.172439 6.92939Z" fill="#EFF0FA"/>
<path d="M0.222811 2.57832C0.0107365 2.79039 0.0107365 3.13423 0.222811 3.34631C0.434886 3.55838 0.778727 3.55838 0.990802 3.34631L3.01245 1.32466C3.22453 1.11258 3.22453 0.768742 3.01245 0.556667C2.80038 0.344593 2.45653 0.344593 2.24446 0.556667L0.222811 2.57832Z" fill="#EFF0FA"/>
<path d="M0.159056 12.0114C-0.0530187 11.7993 -0.0530187 11.4555 0.159056 11.2434L10.8179 0.584539C11.03 0.372465 11.3738 0.372465 11.5859 0.584539C11.798 0.796614 11.798 1.14046 11.5859 1.35253L0.927047 12.0114C0.714972 12.2235 0.371131 12.2235 0.159056 12.0114Z" fill="#EFF0FA"/>
<path d="M13.849 1.85449C13.6369 2.06656 13.6369 2.41041 13.849 2.62248C14.0611 2.83455 14.4049 2.83455 14.617 2.62248L15.9169 1.32253C16.129 1.11045 16.129 0.766612 15.9169 0.554538C15.7048 0.342463 15.361 0.342463 15.1489 0.554538L13.849 1.85449Z" fill="#EFF0FA"/>
<path d="M0.176004 16.2954C-0.036071 16.0833 -0.036071 15.7395 0.176004 15.5274L5.43458 10.2688C5.64666 10.0568 5.9905 10.0568 6.20257 10.2688C6.41465 10.4809 6.41465 10.8248 6.20257 11.0368L0.943994 16.2954C0.73192 16.5075 0.388079 16.5075 0.176004 16.2954Z" fill="#EFF0FA"/>
<path d="M0.163081 19.841C-0.0489935 20.0531 -0.0489935 20.3969 0.163081 20.609C0.375156 20.8211 0.718997 20.8211 0.931072 20.609L7.03813 14.5019C7.25021 14.2899 7.25021 13.946 7.03813 13.734C6.82606 13.5219 6.48222 13.5219 6.27014 13.734L0.163081 19.841Z" fill="#EFF0FA"/>
<path d="M18.4764 5.82835C18.2643 6.04042 18.2643 6.38426 18.4764 6.59634C18.6884 6.80841 19.0323 6.80841 19.2443 6.59634L24.4063 1.43439C24.6184 1.22231 24.6184 0.87847 24.4063 0.666396C24.1942 0.454321 23.8504 0.454321 23.6383 0.666396L18.4764 5.82835Z" fill="#EFF0FA"/>
<path d="M18.4511 10.9225C18.2391 10.7104 18.2391 10.3666 18.4511 10.1545L23.6572 4.94843C23.8693 4.73636 24.2131 4.73636 24.4252 4.94843C24.6373 5.16051 24.6373 5.50435 24.4252 5.71642L19.2191 10.9225C19.007 11.1346 18.6632 11.1346 18.4511 10.9225Z" fill="#EFF0FA"/>
<path d="M18.8586 14.0478C18.6465 14.2599 18.6465 14.6037 18.8586 14.8158C19.0706 15.0279 19.4145 15.0279 19.6266 14.8158L24.4353 10.0071C24.6473 9.79501 24.6473 9.45117 24.4353 9.23909C24.2232 9.02702 23.8793 9.02702 23.6673 9.23909L18.8586 14.0478Z" fill="#EFF0FA"/>
<path d="M20.2119 17.7633C19.9998 17.5512 19.9998 17.2074 20.2119 16.9953L23.7396 13.4676C23.9517 13.2555 24.2955 13.2555 24.5076 13.4676C24.7197 13.6796 24.7197 14.0235 24.5076 14.2355L20.9799 17.7633C20.7678 17.9754 20.4239 17.9754 20.2119 17.7633Z" fill="#EFF0FA"/>
<path d="M21.2995 19.9007C21.0875 20.1128 21.0875 20.4567 21.2995 20.6687C21.5116 20.8808 21.8554 20.8808 22.0675 20.6687L24.4505 18.2857C24.6626 18.0737 24.6626 17.7298 24.4505 17.5177C24.2385 17.3057 23.8946 17.3057 23.6825 17.5177L21.2995 19.9007Z" fill="#EFF0FA"/>
<path fill-rule="evenodd" clip-rule="evenodd" d="M9.15259 5.44191C10.0064 4.5881 11.1644 4.10844 12.3719 4.10844C13.5793 4.10844 14.7373 4.5881 15.5911 5.44191C16.4449 6.29571 16.9246 7.45371 16.9246 8.66117C16.9246 9.86863 16.4449 11.0266 15.5911 11.8804C14.7373 12.7342 13.5793 13.2139 12.3719 13.2139C11.1644 13.2139 10.0064 12.7342 9.15259 11.8804C8.29879 11.0266 7.81913 9.86863 7.81913 8.66117C7.81913 7.45371 8.29879 6.29571 9.15259 5.44191ZM12.3719 5.7376C11.5965 5.7376 10.8529 6.04561 10.3046 6.59389C9.7563 7.14217 9.44828 7.88579 9.44828 8.66117C9.44828 9.43656 9.7563 10.1802 10.3046 10.7285C10.8529 11.2767 11.5965 11.5848 12.3719 11.5848C13.1472 11.5848 13.8909 11.2767 14.4391 10.7285C14.9874 10.1802 15.2954 9.43656 15.2954 8.66117C15.2954 7.88579 14.9874 7.14217 14.4391 6.59389C13.8909 6.04561 13.1472 5.7376 12.3719 5.7376Z" fill="#EFF0FA"/>
<path d="M8.70746 17.179C9.67932 16.2071 10.9975 15.6612 12.3719 15.6612C13.7463 15.6612 15.0644 16.2071 16.0363 17.179C16.8991 18.0418 17.4263 19.1775 17.5337 20.3832C17.5736 20.8313 17.9693 21.1622 18.4174 21.1223C18.8655 21.0824 19.1964 20.6867 19.1564 20.2386C19.0152 18.6538 18.3223 17.1611 17.1883 16.027C15.9109 14.7496 14.1784 14.032 12.3719 14.032C10.5654 14.032 8.83286 14.7496 7.55547 16.027C6.42141 17.1611 5.72856 18.6538 5.58734 20.2386C5.5474 20.6867 5.87829 21.0824 6.32639 21.1223C6.7745 21.1622 7.17013 20.8313 7.21006 20.3832C7.3175 19.1775 7.84467 18.0418 8.70746 17.179Z" fill="#EFF0FA"/>
</svg>
