<svg xmlns="http://www.w3.org/2000/svg" width="12" height="10" fill="none" viewBox="0 0 12 10"><path fill="#E0ECFF" fill-opacity=".8" fill-rule="evenodd" d="M1.287 5.187a8.52 8.52 0 0 1-.217-.354 9.338 9.338 0 0 1 1.232-1.658C3.198 2.22 4.45 1.333 6 1.333c1.55 0 2.802.887 3.698 1.842a9.337 9.337 0 0 1 1.232 1.658 9.337 9.337 0 0 1-1.232 1.658C8.802 7.447 7.55 8.333 6 8.333c-1.55 0-2.802-.886-3.698-1.842a9.338 9.338 0 0 1-1.015-1.304ZM11.5 4.833l.447-.224-.447.224Zm.447-.224a.5.5 0 0 1 0 .448l-.447-.224.447.225-.002.004-.006.011-.02.04-.076.137a10.334 10.334 0 0 1-1.416 1.925C9.447 8.22 7.95 9.333 6 9.333c-1.95 0-3.448-1.113-4.427-2.158A10.338 10.338 0 0 1 .08 5.112a3.68 3.68 0 0 1-.02-.039l-.006-.01-.001-.004-.001-.002.447-.224-.447.224a.5.5 0 0 1 0-.447l.446.223a33.153 33.153 0 0 1-.446-.224v-.001l.002-.004.006-.01a3.801 3.801 0 0 1 .096-.178 10.338 10.338 0 0 1 1.416-1.925C2.553 1.446 4.05.333 6 .333c1.95 0 3.448 1.113 4.427 2.158a10.334 10.334 0 0 1 1.492 2.063l.02.04.006.01.001.004.001.001ZM5 4.833a1 1 0 1 1 2 0 1 1 0 0 1-2 0Zm1-2a2 2 0 1 0 0 4 2 2 0 0 0 0-4Z" clip-rule="evenodd"/></svg>