<svg xmlns="http://www.w3.org/2000/svg" width="16" height="16" fill="none" viewBox="0 0 16 16"><path fill="#fff" fill-rule="evenodd" d="M3.287 8.187a8.533 8.533 0 0 1-.217-.354 9.338 9.338 0 0 1 1.232-1.658C5.198 5.22 6.45 4.333 8 4.333c1.55 0 2.802.887 3.698 1.842a9.337 9.337 0 0 1 1.232 1.658 9.337 9.337 0 0 1-1.232 1.658c-.896.956-2.148 1.842-3.698 1.842-1.55 0-2.802-.886-3.698-1.842a9.338 9.338 0 0 1-1.015-1.304ZM13.5 7.833l.447-.224-.447.224Zm.447-.224a.5.5 0 0 1 0 .448l-.447-.224.447.225v.001l-.002.003-.006.011-.02.04-.076.137a10.335 10.335 0 0 1-1.416 1.925C11.447 11.22 9.95 12.333 8 12.333c-1.95 0-3.448-1.113-4.427-2.158A10.339 10.339 0 0 1 2.08 8.112a3.803 3.803 0 0 1-.02-.039l-.006-.01-.001-.004-.001-.002.447-.224-.447.224a.5.5 0 0 1 0-.447l.447.223a32.812 32.812 0 0 1-.447-.224v-.001l.002-.004.006-.01a3.681 3.681 0 0 1 .096-.178 10.338 10.338 0 0 1 1.416-1.925C4.553 4.447 6.05 3.333 8 3.333c1.95 0 3.448 1.114 4.427 2.158a10.334 10.334 0 0 1 1.492 2.064l.02.038.006.011.001.004.001.001ZM7 7.833a1 1 0 1 1 2 0 1 1 0 0 1-2 0Zm1-2a2 2 0 1 0 0 4 2 2 0 0 0 0-4Z" clip-rule="evenodd"/></svg>