<svg xmlns="http://www.w3.org/2000/svg" width="64" height="64" fill="none" viewBox="0 0 64 64"><g clip-path="url(#a)"><path fill="#FFAB00" d="M9.195 16.575c.007-.006.015-.008.022-.014v-.003l-.022.017Zm5.214-2.848c-1.526-1.525-3.164-1.268-4.427-.004L8.17 36.973c0 .22.02.438.032.657l13.043-13.043c-5.458 1.425-3.854-3.131-5.748-4.31.002 0 2.093-3.369-1.088-6.55Z"/><path fill="#FFAB00" d="M55.312 28.232a2.666 2.666 0 0 0-3.77 0l-7.71 7.709-.856-1.029 12.808-12.808a3.333 3.333 0 1 0-4.714-4.714L38.688 29.772l-.857-1.029L51.07 15.504a3.333 3.333 0 1 0-4.714-4.714L33.542 23.604l-.857-1.029 9.765-9.764c1.233-1.233 1.468-3.244.365-4.594a3.334 3.334 0 0 0-4.945-.255L8.202 37.63a10.661 10.661 0 0 0 3.094 6.926l10.075 10.075a8 8 0 0 0 11.314 0l22.627-22.628a2.666 2.666 0 0 0 0-3.77Z"/><path fill="#fff" d="M38.813 11.733a2 2 0 1 0 2.829-2.829 2 2 0 0 0-2.829 2.829Zm8.485 2.828a2 2 0 1 0 2.829-2.829 2 2 0 0 0-2.829 2.829Zm4.715 6.599a2 2 0 1 0 2.828-2.828 2 2 0 0 0-2.828 2.829Zm.471 9.9a1.334 1.334 0 1 0 1.886-1.885 1.334 1.334 0 0 0-1.886 1.886Z"/></g><defs><clipPath id="a"><path fill="#fff" d="M0 0h64v64H0z"/></clipPath></defs></svg>