<svg xmlns="http://www.w3.org/2000/svg" width="24" height="24" fill="none" viewBox="0 0 24 24"><path fill="#fff" fill-rule="evenodd" d="M7.475 7.475A6.4 6.4 0 0 1 18.4 12v.8h-1.6a2.4 2.4 0 0 0-2.4 2.4v2.4a2.4 2.4 0 0 0 2.4 2.4h.8a2.4 2.4 0 0 0 2.4-2.4V12a8 8 0 0 0-16 0v5.6A2.4 2.4 0 0 0 6.4 20h.8a2.4 2.4 0 0 0 2.4-2.4v-2.4a2.4 2.4 0 0 0-2.4-2.4H5.6V12a6.4 6.4 0 0 1 1.875-4.525ZM5.6 14.4v3.2a.8.8 0 0 0 .8.8h.8a.8.8 0 0 0 .8-.8v-2.4a.8.8 0 0 0-.8-.8H5.6Zm12.8 0h-1.6a.8.8 0 0 0-.8.8v2.4a.8.8 0 0 0 .8.8h.8a.8.8 0 0 0 .8-.8v-3.2Z" clip-rule="evenodd"/></svg>