<svg width="24" height="24" viewBox="0 0 24 24" fill="none" xmlns="http://www.w3.org/2000/svg">
<path fill-rule="evenodd" clip-rule="evenodd" d="M9.95455 5C9.71173 5 9.48145 5.10786 9.326 5.29439L7.52587 7.45455H5.45455C4.80356 7.45455 4.17924 7.71315 3.71892 8.17346C3.2586 8.63378 3 9.2581 3 9.90909V17.2727C3 17.9237 3.2586 18.548 3.71892 19.0084C4.17924 19.4687 4.80356 19.7273 5.45455 19.7273H18.5455C19.1964 19.7273 19.8208 19.4687 20.2811 19.0084C20.7414 18.548 21 17.9237 21 17.2727V9.90909C21 9.2581 20.7414 8.63378 20.2811 8.17346C19.8208 7.71315 19.1964 7.45455 18.5455 7.45455H16.4741L14.674 5.29439C14.5185 5.10786 14.2883 5 14.0455 5H9.95455ZM8.53764 8.79651L10.3378 6.63636H13.6622L15.4624 8.79651C15.6178 8.98305 15.8481 9.09091 16.0909 9.09091H18.5455C18.7625 9.09091 18.9706 9.17711 19.124 9.33055C19.2774 9.48399 19.3636 9.6921 19.3636 9.90909V17.2727C19.3636 17.4897 19.2774 17.6978 19.124 17.8513C18.9706 18.0047 18.7624 18.0909 18.5455 18.0909H5.45455C5.23755 18.0909 5.02944 18.0047 4.876 17.8513C4.72256 17.6978 4.63636 17.4897 4.63636 17.2727V9.90909C4.63636 9.69209 4.72256 9.48399 4.876 9.33055C5.02944 9.17711 5.23755 9.09091 5.45455 9.09091H7.90909C8.15191 9.09091 8.38219 8.98305 8.53764 8.79651ZM10.3637 13.1819C10.3637 12.2781 11.0963 11.5455 12 11.5455C12.9038 11.5455 13.6364 12.2781 13.6364 13.1819C13.6364 14.0856 12.9038 14.8182 12 14.8182C11.0963 14.8182 10.3637 14.0856 10.3637 13.1819ZM12 9.90915C10.1925 9.90915 8.72729 11.3744 8.72729 13.1819C8.72729 14.9894 10.1925 16.4546 12 16.4546C13.8075 16.4546 15.2727 14.9894 15.2727 13.1819C15.2727 11.3744 13.8075 9.90915 12 9.90915Z" fill="white"/>
</svg>
