<svg width="10" height="10" viewBox="0 0 10 10" fill="none" xmlns="http://www.w3.org/2000/svg">
<path fill-rule="evenodd" clip-rule="evenodd" d="M1.31818 5C1.31818 2.96659 2.96659 1.31818 5 1.31818C7.03341 1.31818 8.68182 2.96659 8.68182 5C8.68182 7.03341 7.03341 8.68182 5 8.68182C2.96659 8.68182 1.31818 7.03341 1.31818 5ZM5 0.5C2.51472 0.5 0.5 2.51472 0.5 5C0.5 7.48528 2.51472 9.5 5 9.5C7.48528 9.5 9.5 7.48528 9.5 5C9.5 2.51472 7.48528 0.5 5 0.5ZM5.40909 2.54546C5.40909 2.31952 5.22593 2.13637 4.99999 2.13637C4.77406 2.13637 4.5909 2.31952 4.5909 2.54546V5C4.5909 5.07667 4.61245 5.1518 4.65309 5.21682L5.67581 6.85318C5.79556 7.04478 6.04795 7.10302 6.23954 6.98327C6.43113 6.86353 6.48938 6.61114 6.36963 6.41955L5.40909 4.88268V2.54546Z" fill="#E0ECFF" fill-opacity="0.8"/>
</svg>
