<svg width="16" height="16" viewBox="0 0 16 16" fill="none" xmlns="http://www.w3.org/2000/svg">
<path fill-rule="evenodd" clip-rule="evenodd" d="M8.04975 0.408011C8.20487 0.683243 8.18384 1.02392 7.99604 1.27798C7.31136 2.20427 6.98189 3.34555 7.06755 4.49423C7.15321 5.64291 7.64831 6.72269 8.46281 7.53719C9.27731 8.35169 10.3571 8.84679 11.5058 8.93245C12.6545 9.01811 13.7957 8.68864 14.722 8.00396L15.1985 8.64852L15.9966 8.72228C15.8565 10.2382 15.2876 11.683 14.3563 12.8874C13.4251 14.0918 12.1702 15.0061 10.7383 15.5233C9.30641 16.0405 7.75685 16.1392 6.27092 15.8079C4.78498 15.4766 3.42414 14.7289 2.34763 13.6524C1.27111 12.5759 0.523448 11.215 0.19212 9.72908C-0.139207 8.24315 -0.0404938 6.69359 0.47671 5.26171C0.993914 3.82984 1.90822 2.57487 3.11263 1.64366C4.31705 0.712447 5.76176 0.143509 7.27772 0.00341429C7.59232 -0.025658 7.89464 0.13278 8.04975 0.408011ZM14.045 10.1663C13.2009 10.4717 12.2955 10.5989 11.3866 10.5311C9.85498 10.4169 8.41527 9.75672 7.32928 8.67072C6.24328 7.58473 5.58314 6.14502 5.46893 4.61344C5.40115 3.70453 5.52831 2.7991 5.8337 1.95499C5.21042 2.1805 4.62275 2.50241 4.09316 2.91187C3.12963 3.65684 2.39819 4.66081 1.98443 5.80631C1.57066 6.95181 1.49169 8.19146 1.75676 9.38021C2.02182 10.569 2.61995 11.6576 3.48116 12.5188C4.34237 13.3801 5.43105 13.9782 6.61979 14.2432C7.80854 14.5083 9.04819 14.4293 10.1937 14.0156C11.3392 13.6018 12.3432 12.8704 13.0881 11.9068C13.4976 11.3772 13.8195 10.7896 14.045 10.1663Z" fill="white"/>
</svg>
