<svg width="18" height="18" viewBox="0 0 18 18" fill="none" xmlns="http://www.w3.org/2000/svg">
<path fill-rule="evenodd" clip-rule="evenodd" d="M6.54547 5.72729C6.0936 5.72729 5.72729 6.0936 5.72729 6.54547V11.4546C5.72729 11.9064 6.0936 12.2727 6.54547 12.2727H11.4546C11.9064 12.2727 12.2727 11.9064 12.2727 11.4546V6.54547C12.2727 6.0936 11.9064 5.72729 11.4546 5.72729H6.54547ZM7.36365 10.6364V7.36365H10.6364V10.6364H7.36365Z" fill="#CC525F"/>
<path fill-rule="evenodd" clip-rule="evenodd" d="M9 0C4.02944 0 0 4.02944 0 9C0 13.9706 4.02944 18 9 18C13.9706 18 18 13.9706 18 9C18 4.02944 13.9706 0 9 0ZM1.63636 9C1.63636 4.93318 4.93318 1.63636 9 1.63636C13.0668 1.63636 16.3636 4.93318 16.3636 9C16.3636 13.0668 13.0668 16.3636 9 16.3636C4.93318 16.3636 1.63636 13.0668 1.63636 9Z" fill="#CC525F"/>
</svg>
