<svg width="24" height="24" viewBox="0 0 24 24" fill="none" xmlns="http://www.w3.org/2000/svg">
<path d="M5.58223 14.6051C5.58374 14.6157 5.5856 14.6263 5.58779 14.6369C5.96645 16.4523 6.58679 17.9632 7.57638 19.0243C8.58283 20.1034 9.92999 20.6732 11.6528 20.6732C12.9212 20.6732 14.0029 20.4148 14.919 19.8708C15.8314 19.3291 16.5431 18.5256 17.1096 17.4926C17.9087 16.2101 18.4579 14.478 18.8934 13.0471C18.9279 12.938 18.9649 12.8226 19.0029 12.704C19.0916 12.4274 19.1858 12.1336 19.2658 11.8635C19.3757 11.4928 19.4807 11.0984 19.4968 10.8223C19.5199 10.468 19.416 10.1302 19.1859 9.87253C18.9565 9.61577 18.6342 9.47484 18.2854 9.45126C17.8939 9.42321 17.5444 9.52736 17.2445 9.77729C16.9669 10.0086 16.7601 10.3418 16.5806 10.7175L16.5806 10.7175L16.5784 10.7222L15.8969 12.1876L16.2107 4.99191C16.211 4.98465 16.2111 4.97739 16.2111 4.97012C16.2111 4.18282 15.5862 3.5579 14.7989 3.5579C14.0221 3.5579 13.4033 4.17687 13.3946 4.95362L13.2734 6.97643L13.1885 3.90463C13.1845 3.1209 12.5611 2.5 11.7763 2.5C10.9941 2.5 10.372 3.12776 10.372 3.91222H10.3718L10.3722 3.9262L10.4775 7.69202L10.0699 4.46558C10.0517 3.70239 9.43379 3.09596 8.66596 3.09596C7.8815 3.09596 7.25374 3.71805 7.25374 4.50032C7.25374 4.51811 7.25469 4.53589 7.25659 4.55358L7.7496 9.15541L7.31563 6.90123C7.28823 6.14649 6.67403 5.54952 5.91222 5.54952C5.12776 5.54952 4.5 6.17162 4.5 6.95388C4.5 6.97742 4.50166 7.00092 4.50497 7.02422L5.58223 14.6051ZM15.8513 13.3154C15.8512 13.3154 15.851 13.3143 15.8506 13.3118C15.8511 13.3141 15.8513 13.3153 15.8513 13.3154Z" stroke="white" stroke-linecap="round" stroke-linejoin="round"/>
</svg>
