<svg width="24" height="24" viewBox="0 0 24 24" fill="none" xmlns="http://www.w3.org/2000/svg">
<path d="M3.04609 4.10675C2.75319 3.81385 2.75319 3.33898 3.04609 3.04609C3.33898 2.75319 3.81385 2.75319 4.10675 3.04609L20.9539 19.8933C21.2468 20.1862 21.2468 20.661 20.9539 20.9539C20.661 21.2468 20.1862 21.2468 19.8933 20.9539L3.04609 4.10675Z" fill="white"/>
<path d="M4.02608 7.20805L5.08721 14.6755C5.09023 14.6967 5.09394 14.7179 5.09833 14.7389C5.48598 16.5975 6.13295 18.2096 7.21073 19.3653C8.32222 20.5571 9.80749 21.1732 11.6528 21.1732C12.9902 21.1732 14.1649 20.9002 15.1743 20.3007C15.5766 20.0619 15.9409 19.7782 16.2717 19.4537L15.5646 18.7465C14.5901 19.6986 13.3263 20.1732 11.6528 20.1732C8.45219 20.1732 6.81659 18.0794 6.07727 14.5348L5.20343 8.3854L4.02608 7.20805Z" fill="white"/>
<path d="M7.03674 8.09738L6.81659 6.95388C6.81659 6.45058 6.41553 6.04952 5.91223 6.04952C5.6535 6.04952 5.42297 6.15228 5.25839 6.31903L4.55127 5.61192C4.89773 5.26365 5.37916 5.04952 5.91223 5.04952C5.98296 5.04952 6.05276 5.05333 6.12143 5.06076L8.01686 6.95619L8.27139 9.33204L7.03674 8.09738Z" fill="white"/>
<path d="M7.5425 10.7245L7.74264 11.764C7.88964 11.6679 8.08864 11.5552 8.27656 11.4585L7.5425 10.7245Z" fill="white"/>
<path d="M16.4957 17.5563L17.2208 18.2815C17.3328 18.1091 17.4395 17.9303 17.5414 17.7452C17.701 17.488 17.8507 17.2146 17.9914 16.9308L17.2418 16.1811C17.0683 16.5578 16.8812 16.9151 16.6779 17.24C16.6187 17.3484 16.5579 17.4539 16.4957 17.5563Z" fill="white"/>
<path d="M12.8474 9.66544L12.6886 3.91222C12.6886 3.40106 12.2875 3 11.7763 3C11.273 3 10.872 3.40106 10.872 3.91222L10.9807 7.79867L9.84331 6.66132L9.57033 4.50032C9.57033 3.99702 9.16927 3.59596 8.66597 3.59596C8.15481 3.59596 7.75375 3.99702 7.75375 4.50032L7.76232 4.58033L6.91381 3.73181C7.20911 3.05951 7.88165 2.59596 8.66597 2.59596C9.19829 2.59596 9.67802 2.81181 10.0228 3.16118C10.3111 2.47783 10.9827 2 11.7763 2C12.6814 2 13.431 2.6148 13.6342 3.4535C13.9549 3.20532 14.3581 3.0579 14.7989 3.0579C15.8624 3.0579 16.7111 3.90668 16.7111 4.97012C16.7111 4.98465 16.7108 4.99918 16.7102 5.01369L16.4989 9.85977C16.6206 9.68919 16.7605 9.5298 16.9244 9.39318C17.3296 9.05554 17.8083 8.91603 18.3201 8.95247C18.7818 8.98391 19.2318 9.17341 19.5588 9.53943C19.8872 9.90714 20.0262 10.3802 19.9959 10.8531C19.9755 11.1963 19.8521 11.6451 19.7452 12.0056C19.6635 12.2812 19.5664 12.5842 19.477 12.8631C19.4398 12.9793 19.4039 13.0912 19.371 13.1953C19.1602 13.8877 18.9177 14.6695 18.6271 15.4451L17.8465 14.6645C18.0561 14.0684 18.2432 13.4662 18.4159 12.8991C18.452 12.7848 18.4901 12.6659 18.5288 12.5449C18.7434 11.8756 18.9778 11.1445 18.9978 10.7915C19.0293 10.3197 18.7226 9.98151 18.2507 9.95006C17.7081 9.91074 17.37 10.2253 17.0318 10.9331L16.1058 12.9239L15.3953 12.2133L15.7111 4.97012C15.7111 4.45897 15.3101 4.0579 14.7989 4.0579C14.2956 4.0579 13.8946 4.45897 13.8946 4.97012L13.5697 10.3877L12.8474 9.66544Z" fill="white"/>
<path d="M10.15 9.08935L11.0417 9.98101L11.063 10.7443C10.8271 10.7679 10.5991 10.7994 10.371 10.8387L10.15 9.08935Z" fill="white"/>
</svg>
