<svg width="48" height="48" viewBox="0 0 48 48" fill="none" xmlns="http://www.w3.org/2000/svg">
<path fill-rule="evenodd" clip-rule="evenodd" d="M13.5861 12.7938C14.2252 12.1546 14.2251 11.1183 13.5858 10.4792C12.9465 9.84013 11.9102 9.84029 11.2712 10.4795C7.89604 13.8557 6 18.4341 6 23.208C6 27.9819 7.89604 32.5603 11.2712 35.9365C11.9102 36.5757 12.9465 36.5759 13.5858 35.9368C14.2251 35.2978 14.2252 34.2615 13.5861 33.6222C10.8247 30.8599 9.27336 27.1139 9.27336 23.208C9.27336 19.3021 10.8247 15.5561 13.5861 12.7938ZM36.7288 10.4795C36.0898 9.84029 35.0535 9.84013 34.4142 10.4792C33.7749 11.1183 33.7748 12.1546 34.4139 12.7938C37.1753 15.5561 38.7266 19.3021 38.7266 23.208C38.7266 27.1139 37.1753 30.8599 34.4139 33.6222C33.7748 34.2615 33.7749 35.2978 34.4142 35.9368C35.0535 36.5759 36.0898 36.5757 36.7288 35.9365C40.104 32.5603 42 27.9819 42 23.208C42 18.4341 40.104 13.8557 36.7288 10.4795ZM18.2171 17.4101C18.8567 16.7713 18.8572 15.735 18.2184 15.0955C17.5796 14.4559 16.5433 14.4554 15.9038 15.0942C14.8386 16.1582 13.9936 17.4217 13.417 18.8126C12.8405 20.2034 12.5437 21.6942 12.5437 23.1998C12.5437 24.7054 12.8405 26.1963 13.417 27.5871C13.9936 28.9779 14.8386 30.2415 15.9038 31.3055C16.5433 31.9443 17.5796 31.9437 18.2184 31.3042C18.8572 30.6647 18.8567 29.6284 18.2171 28.9896C17.4563 28.2296 16.8527 27.327 16.4408 26.3336C16.029 25.3401 15.8171 24.2753 15.8171 23.1998C15.8171 22.1244 16.029 21.0595 16.4408 20.0661C16.8527 19.0726 17.4563 18.1701 18.2171 17.4101ZM32.0962 15.1105C31.4567 14.4717 30.4204 14.4723 29.7816 15.1118C29.1428 15.7513 29.1433 16.7876 29.7829 17.4264C30.5437 18.1865 31.1473 19.089 31.5592 20.0824C31.971 21.0759 32.1829 22.1408 32.1829 23.2162C32.1829 24.2916 31.971 25.3565 31.5592 26.35C31.1473 27.3434 30.5437 28.2459 29.7829 29.006C29.1433 29.6448 29.1428 30.6811 29.7816 31.3206C30.4204 31.9601 31.4567 31.9607 32.0962 31.3219C33.1614 30.2578 34.0064 28.9943 34.583 27.6035C35.1596 26.2126 35.4563 24.7218 35.4563 23.2162C35.4563 21.7106 35.1596 20.2198 34.583 18.8289C34.0064 17.4381 33.1614 16.1746 32.0962 15.1105ZM22.3633 23.2081C22.3633 22.3042 23.0961 21.5714 24 21.5714C24.9039 21.5714 25.6366 22.3042 25.6366 23.2081C25.6366 24.112 24.9039 24.8448 24 24.8448C23.0961 24.8448 22.3633 24.112 22.3633 23.2081ZM24 18.298C21.2882 18.298 19.0899 20.4963 19.0899 23.2081C19.0899 25.9198 21.2882 28.1181 24 28.1181C26.7117 28.1181 28.91 25.9198 28.91 23.2081C28.91 20.4963 26.7117 18.298 24 18.298Z" fill="white"/>
</svg>
