<svg width="24" height="24" viewBox="0 0 24 24" fill="none" xmlns="http://www.w3.org/2000/svg">
<path fill-rule="evenodd" clip-rule="evenodd" d="M16.8513 3.23964C16.5317 2.92012 16.0137 2.92012 15.6942 3.23964C15.3747 3.55916 15.3747 4.0772 15.6942 4.39672L17.5702 6.27271H8.09091C7.00593 6.27271 5.96539 6.70372 5.1982 7.47091C4.431 8.2381 4 9.27864 4 10.3636V11.1818C4 11.6337 4.36631 12 4.81818 12C5.27005 12 5.63636 11.6337 5.63636 11.1818V10.3636C5.63636 9.71263 5.89497 9.08831 6.35528 8.62799C6.8156 8.16768 7.43992 7.90907 8.09091 7.90907H17.5702L15.6942 9.7851C15.3747 10.1046 15.3747 10.6227 15.6942 10.9422C16.0137 11.2617 16.5317 11.2617 16.8513 10.9422L20.124 7.66945C20.2738 7.51968 20.3533 7.32628 20.3627 7.13016C20.3633 7.11708 20.3636 7.104 20.3636 7.09091L20.3636 7.09089C20.3636 6.97554 20.3398 6.86577 20.2967 6.76624C20.2623 6.68657 20.2146 6.61125 20.1537 6.54365C20.143 6.53179 20.132 6.52024 20.1207 6.50903L16.8513 3.23964ZM8.66945 13.0578C8.98897 13.3774 8.98897 13.8954 8.66945 14.2149L6.79346 16.0909H16.2727C16.9237 16.0909 17.548 15.8323 18.0084 15.372C18.4687 14.9117 18.7273 14.2873 18.7273 13.6364V12.8182C18.7273 12.3663 19.0936 12 19.5455 12C19.9973 12 20.3636 12.3663 20.3636 12.8182V13.6364C20.3636 14.7213 19.9326 15.7619 19.1654 16.5291C18.3982 17.2963 17.3577 17.7273 16.2727 17.7273H6.79344L8.66945 19.6033C8.98897 19.9228 8.98897 20.4409 8.66945 20.7604C8.34993 21.0799 7.83189 21.0799 7.51237 20.7604L4.23964 17.4876C4.07988 17.3279 4 17.1185 4 16.9091C4 16.7964 4.02279 16.689 4.064 16.5913C4.09986 16.5061 4.15079 16.4258 4.21678 16.3543C4.22507 16.3454 4.23356 16.3366 4.24223 16.328L7.51237 13.0578C7.83189 12.7383 8.34993 12.7383 8.66945 13.0578Z" fill="white"/>
</svg>
