<svg width="24" height="24" viewBox="0 0 24 24" fill="none" xmlns="http://www.w3.org/2000/svg">
<path d="M15.8151 6.51395C15.656 6.35489 15.656 6.09701 15.8151 5.93795L17.6169 4.13614C17.7759 3.97708 18.0338 3.97708 18.1929 4.13614C18.3519 4.29519 18.3519 4.55307 18.1929 4.71213L16.391 6.51395C16.232 6.673 15.9741 6.673 15.8151 6.51395Z" fill="white"/>
<path d="M3.12933 8.94701C2.97027 9.10607 2.97027 9.36395 3.12933 9.52301C3.28838 9.68206 3.54627 9.68206 3.70532 9.52301L8.49012 4.73821C8.64918 4.57915 8.64918 4.32127 8.49012 4.16221C8.33107 4.00316 8.07319 4.00316 7.91413 4.16221L3.12933 8.94701Z" fill="white"/>
<path d="M3.16711 5.68371C3.00805 5.84276 3.00805 6.10064 3.16711 6.2597C3.32616 6.41876 3.58405 6.41876 3.7431 6.2597L5.25934 4.74346C5.41839 4.58441 5.41839 4.32653 5.25934 4.16747C5.10028 4.00841 4.8424 4.00841 4.68334 4.16747L3.16711 5.68371Z" fill="white"/>
<path d="M3.11929 12.7585C2.96024 12.5995 2.96024 12.3416 3.11929 12.1825L11.1135 4.18837C11.2725 4.02932 11.5304 4.02932 11.6894 4.18837C11.8485 4.34743 11.8485 4.60531 11.6894 4.76437L3.69529 12.7585C3.53623 12.9176 3.27835 12.9176 3.11929 12.7585Z" fill="white"/>
<path d="M13.3867 5.14084C13.2277 5.29989 13.2277 5.55777 13.3867 5.71683C13.5458 5.87589 13.8037 5.87589 13.9627 5.71683L14.9377 4.74187C15.0967 4.58281 15.0967 4.32493 14.9377 4.16587C14.7786 4.00682 14.5208 4.00682 14.3617 4.16587L13.3867 5.14084Z" fill="white"/>
<path d="M3.132 15.9715C2.97295 15.8125 2.97295 15.5546 3.132 15.3955L7.07593 11.4516C7.23499 11.2925 7.49287 11.2925 7.65193 11.4516C7.81098 11.6107 7.81098 11.8685 7.65193 12.0276L3.708 15.9715C3.54894 16.1306 3.29106 16.1306 3.132 15.9715Z" fill="white"/>
<path d="M3.12231 18.6307C2.96325 18.7898 2.96325 19.0477 3.12231 19.2067C3.28137 19.3658 3.53925 19.3658 3.6983 19.2067L8.2786 14.6264C8.43765 14.4674 8.43765 14.2095 8.2786 14.0504C8.11954 13.8914 7.86166 13.8914 7.70261 14.0504L3.12231 18.6307Z" fill="white"/>
<path d="M16.8573 8.12123C16.6982 8.28028 16.6982 8.53817 16.8573 8.69722C17.0163 8.85628 17.2742 8.85628 17.4333 8.69722L21.3047 4.82576C21.4638 4.6667 21.4638 4.40882 21.3047 4.24977C21.1457 4.09071 20.8878 4.09071 20.7287 4.24977L16.8573 8.12123Z" fill="white"/>
<path d="M16.8383 11.9418C16.6793 11.7828 16.6793 11.5249 16.8383 11.3658L20.7429 7.46129C20.9019 7.30224 21.1598 7.30224 21.3189 7.46129C21.4779 7.62035 21.4779 7.87823 21.3189 8.03729L17.4143 11.9418C17.2553 12.1009 16.9974 12.1009 16.8383 11.9418Z" fill="white"/>
<path d="M17.1439 14.2858C16.9849 14.4449 16.9849 14.7028 17.1439 14.8618C17.303 15.0209 17.5609 15.0209 17.7199 14.8618L21.3264 11.2553C21.4855 11.0962 21.4855 10.8383 21.3264 10.6793C21.1674 10.5202 20.9095 10.5202 20.7505 10.6793L17.1439 14.2858Z" fill="white"/>
<path d="M18.1589 17.0724C17.9998 16.9134 17.9998 16.6555 18.1589 16.4965L20.8047 13.8506C20.9638 13.6916 21.2217 13.6916 21.3807 13.8506C21.5398 14.0097 21.5398 14.2676 21.3807 14.4266L18.7349 17.0724C18.5758 17.2315 18.318 17.2315 18.1589 17.0724Z" fill="white"/>
<path d="M18.9746 18.6755C18.8156 18.8346 18.8156 19.0925 18.9746 19.2515C19.1337 19.4106 19.3916 19.4106 19.5506 19.2515L21.3379 17.4643C21.497 17.3052 21.497 17.0473 21.3379 16.8883C21.1788 16.7292 20.921 16.7292 20.7619 16.8883L18.9746 18.6755Z" fill="white"/>
<path fill-rule="evenodd" clip-rule="evenodd" d="M9.86444 7.8314C10.5048 7.19105 11.3733 6.8313 12.2789 6.8313C13.1845 6.8313 14.053 7.19105 14.6933 7.8314C15.3337 8.47175 15.6934 9.34026 15.6934 10.2459C15.6934 11.1514 15.3337 12.0199 14.6933 12.6603C14.053 13.3007 13.1845 13.6604 12.2789 13.6604C11.3733 13.6604 10.5048 13.3007 9.86444 12.6603C9.22409 12.0199 8.86435 11.1514 8.86435 10.2459C8.86435 9.34026 9.22409 8.47175 9.86444 7.8314ZM12.2789 8.05317C11.6974 8.05317 11.1396 8.28418 10.7284 8.69539C10.3172 9.1066 10.0862 9.66431 10.0862 10.2459C10.0862 10.8274 10.3172 11.3851 10.7284 11.7963C11.1396 12.2075 11.6974 12.4385 12.2789 12.4385C12.8604 12.4385 13.4182 12.2075 13.8294 11.7963C14.2406 11.3851 14.4716 10.8274 14.4716 10.2459C14.4716 9.66431 14.2406 9.1066 13.8294 8.69539C13.4182 8.28418 12.8604 8.05317 12.2789 8.05317Z" fill="white"/>
<path d="M9.53059 16.6342C10.2595 15.9053 11.2481 15.4958 12.2789 15.4958C13.3097 15.4958 14.2983 15.9053 15.0272 16.6342C15.6743 17.2813 16.0697 18.1331 16.1503 19.0374C16.1802 19.3735 16.4769 19.6216 16.813 19.5917C17.1491 19.5617 17.3973 19.265 17.3673 18.9289C17.2614 17.7403 16.7418 16.6208 15.8912 15.7702C14.9332 14.8122 13.6338 14.274 12.2789 14.274C10.924 14.274 9.62465 14.8122 8.6666 15.7702C7.81606 16.6208 7.29642 17.7403 7.1905 18.9289C7.16055 19.265 7.40872 19.5617 7.7448 19.5917C8.08087 19.6216 8.3776 19.3735 8.40754 19.0374C8.48813 18.1331 8.8835 17.2813 9.53059 16.6342Z" fill="white"/>
</svg>
