<?xml version="1.0" encoding="utf-8"?>
<!-- Generator: Adobe Illustrator 24.2.3, SVG Export Plug-In . SVG Version: 6.00 Build 0)  -->
<svg version="1.1" id="Layer_1" xmlns="http://www.w3.org/2000/svg" xmlns:xlink="http://www.w3.org/1999/xlink" x="0px" y="0px"
	 viewBox="0 0 4706 2130" style="enable-background:new 0 0 4706 2130;" xml:space="preserve">
<style type="text/css">
	.st0{fill:#2F80FF;}
</style>
<path class="st0" d="M152.7,1472.4h180.2V875.1l3-119.2l-3-3L230.2,817L114,887L93.1,717.2l324.7-214.5h120.7v969.7h175.8v149H152.7
	V1472.4z M1686.3,1065.7c0,101.3-7.9,188.2-23.8,260.7s-40.7,132.1-74.5,178.8c-32.8,45.7-75,79.4-126.6,101.3
	c-50.7,20.8-111.7,31.3-183.2,31.3c-72.5,0-134.6-10.4-186.2-31.3c-50.6-21.8-92.4-55.6-125.1-101.3c-32.8-46.7-57.1-106.3-73-178.8
	c-14.9-72.5-22.3-159.4-22.3-260.7c0-105.3,7.4-194.1,22.3-266.6c15.9-73.5,40.2-133.1,73-178.8s75-78.5,126.6-98.3
	c51.6-20.9,113.7-31.3,186.2-31.3c71.5,0,132.6,10.4,183.2,31.3c51.6,19.9,93.8,52.6,126.6,98.3c32.8,45.7,57.1,105.3,73,178.8
	C1678.4,871.6,1686.3,960.5,1686.3,1065.7z M1489.7,1062.8c0-81.4-4.5-147.5-13.4-198.1c-7.9-51.6-20.4-91.4-37.2-119.2
	c-16.9-28.8-38.7-48.2-65.6-58.1c-26.8-10.9-58.1-16.4-93.8-16.4c-36.7,0-68.5,5.5-95.3,16.4c-26.8,9.9-49.1,29.3-67,58.1
	c-16.9,28.8-29.8,69-38.7,120.7c-7.9,50.6-11.9,116.7-11.9,198.1c0,83.4,4,150.9,11.9,202.6c8.9,51.6,21.9,91.9,38.7,120.7
	c17.9,28.8,40.2,48.2,67,58.1s58.6,14.9,95.3,14.9c35.8,0,67-5,93.8-14.9c26.8-10.9,48.7-30.8,65.6-59.6
	c16.9-28.8,29.3-69,37.2-120.7C1485.2,1212.7,1489.7,1145.2,1489.7,1062.8z M2586.8,1065.7c0,101.3-7.9,188.2-23.8,260.7
	c-15.9,72.5-40.7,132.1-74.5,178.8c-32.8,45.7-75,79.4-126.6,101.3c-50.6,20.8-111.7,31.3-183.2,31.3c-72.5,0-134.6-10.4-186.2-31.3
	c-50.6-21.8-92.4-55.6-125.1-101.3c-32.8-46.7-57.1-106.3-73-178.8c-14.9-72.5-22.3-159.4-22.3-260.7c0-105.3,7.4-194.1,22.3-266.6
	c15.9-73.5,40.2-133.1,73-178.8s75-78.5,126.6-98.3c51.6-20.9,113.7-31.3,186.2-31.3c71.5,0,132.6,10.4,183.2,31.3
	c51.6,19.9,93.8,52.6,126.6,98.3s57.1,105.3,73,178.8C2578.9,871.6,2586.8,960.5,2586.8,1065.7z M2390.2,1062.8
	c0-81.4-4.5-147.5-13.4-198.1c-7.9-51.6-20.4-91.4-37.2-119.2c-16.9-28.8-38.7-48.2-65.5-58.1c-26.8-10.9-58.1-16.4-93.8-16.4
	c-36.8,0-68.5,5.5-95.3,16.4c-26.8,9.9-49.2,29.3-67,58.1c-16.9,28.8-29.8,69-38.7,120.7c-8,50.6-11.9,116.7-11.9,198.1
	c0,83.4,4,150.9,11.9,202.6c8.9,51.6,21.8,91.9,38.7,120.7c17.9,28.8,40.2,48.2,67,58.1s58.6,14.9,95.3,14.9c35.8,0,67-5,93.8-14.9
	c26.8-10.9,48.7-30.8,65.5-59.6c16.9-28.8,29.3-69,37.2-120.7C2385.7,1212.7,2390.2,1145.2,2390.2,1062.8z M3706.3,1621.4V1039
	c0-53.6-13.9-92.9-41.7-117.7c-27.8-25.8-66.5-38.7-116.2-38.7c-43.7,0-79.9,11.9-108.7,35.8c-28.8,23.8-43.2,60.6-43.2,110.2v592.9
	h-189.2v-592.9c0-53.6-14.4-91.4-43.2-113.2c-27.8-22.8-64-34.3-108.7-34.3c-31.8,0-62.6,7.4-92.4,22.3
	c-28.8,14.9-51.1,34.8-67,59.6v658.4h-189.2V729.1l135.5-8.9l32.8,89.4c30.8-31.8,66-56.1,105.8-73c39.7-17.9,81.4-26.8,125.1-26.8
	c114.2,0,194.1,42.7,239.8,128.1c28.8-44.7,64.5-77,107.3-96.8c43.7-20.9,92.4-31.3,146-31.3c43.7,0,83.4,7,119.2,20.9
	c36.7,12.9,68,33.3,93.8,61.1c26.8,26.8,47.2,60.6,61.1,101.3c14.9,40.7,22.3,88.4,22.3,143v585.4h-189.2V1621.4z M4612.9,1348.8
	c0,43.7-6.5,83.4-19.4,119.2c-12.9,35.8-32.8,66.5-59.6,92.4c-26.8,24.8-61.1,44.2-102.8,58.1c-41.7,13.9-91.4,20.8-149,20.8
	c-53.6,0-104.3-5.5-151.9-16.4c-46.7-10.9-88.9-27.8-126.6-50.6l22.3-160.9c34.8,22.8,76,40.2,123.6,52.1
	c47.7,11.9,91.9,17.9,132.6,17.9c54.6,0,93.9-10.9,117.7-32.8c24.8-21.8,37.2-49.2,37.2-81.9c0-28.8-10.9-51.1-32.8-67
	c-20.8-15.9-47.7-29.8-80.4-41.7c-32.8-11.9-68-23.3-105.8-34.3c-36.7-11.9-71.5-27.3-104.3-46.2c-32.8-19.9-60.1-45.7-81.9-77.5
	c-20.9-31.8-31.3-73.5-31.3-125.1c0-78.5,27.3-142,81.9-190.7c54.6-49.7,136.5-74.5,245.8-74.5c89.4,0,172.3,16.9,248.8,50.6
	l-16.4,157.9c-37.7-15.9-77.9-27.3-120.7-34.3c-41.7-7.9-79.9-11.9-114.7-11.9c-44.7,0-79.9,8.4-105.8,25.3
	c-24.8,16.9-37.2,40.2-37.2,70c0,26.8,10.4,47.7,31.3,62.6c21.9,13.9,48.7,26.3,80.4,37.2c31.8,10.9,66,22.3,102.8,34.3
	c37.7,10.9,72.5,26.3,104.3,46.2c31.8,18.9,58.1,44.2,79,76C4601.9,1255.4,4612.9,1297.1,4612.9,1348.8z"/>
</svg>
