<svg xmlns="http://www.w3.org/2000/svg" width="19" height="18" fill="none" viewBox="0 0 19 18"><path fill="#fff" fill-rule="evenodd" d="M17.67.25a.856.856 0 0 1 0 1.211l-1.107 1.107 1.963 1.963a.856.856 0 0 1 0 1.211L15.529 8.74a.856.856 0 0 1-1.21 0l-1.964-1.963-2.35 2.35a5.565 5.565 0 0 1-8.437 7.218l-.006-.007A5.565 5.565 0 0 1 8.78 7.93L16.46.251a.856.856 0 0 1 1.21 0Zm-2.318 3.53-1.786 1.785 1.358 1.357 1.785-1.785-1.357-1.358ZM2.79 15.143A3.852 3.852 0 0 1 8.24 9.7a3.853 3.853 0 1 1-5.45 5.444Zm0 0 .003.004-.007-.007.004.003Z" clip-rule="evenodd"/></svg>