<svg xmlns="http://www.w3.org/2000/svg" width="24" height="24" fill="none" viewBox="0 0 24 24"><path fill="#fff" fill-rule="evenodd" d="M6.55 5.7a.85.85 0 0 0-.85.85v11.9a.85.85 0 0 0 .85.85h3.4a.85.85 0 0 1 0 1.7h-3.4A2.55 2.55 0 0 1 4 18.45V6.55A2.55 2.55 0 0 1 6.55 4h3.4a.85.85 0 0 1 0 1.7h-3.4Zm8.749 1.949a.85.85 0 0 1 1.202 0l4.247 4.247a.853.853 0 0 1 .182.942.846.846 0 0 1-.182.266l-4.247 4.247a.85.85 0 1 1-1.202-1.202l2.799-2.799H9.95a.85.85 0 0 1 0-1.7h8.148l-2.799-2.799a.85.85 0 0 1 0-1.202Z" clip-rule="evenodd"/></svg>