<svg xmlns="http://www.w3.org/2000/svg" width="16" height="20" fill="none" viewBox="0 0 16 20"><path stroke="#F5F9FF" stroke-linecap="round" stroke-linejoin="round" stroke-opacity=".95" d="m1.582 12.605.006.032c.378 1.815.999 3.326 1.988 4.387 1.007 1.08 2.354 1.65 4.077 1.65 1.268 0 2.35-.26 3.266-.803.912-.542 1.624-1.345 2.19-2.378.8-1.283 1.349-3.015 1.784-4.446l.11-.343c.089-.277.183-.57.263-.84.11-.371.215-.766.23-1.042a1.28 1.28 0 0 0-.31-.95 1.307 1.307 0 0 0-.9-.42 1.41 1.41 0 0 0-1.041.325c-.278.232-.485.565-.664.94h0l-.003.005-.681 1.466.314-7.196V2.97c0-.787-.625-1.412-1.412-1.412a1.4 1.4 0 0 0-1.404 1.396l-.122 2.022-.084-3.071A1.403 1.403 0 0 0 7.776.5c-.782 0-1.404.628-1.404 1.412h0v.014l.105 3.766-.407-3.226a1.4 1.4 0 0 0-1.404-1.37 1.401 1.401 0 0 0-1.41 1.458l.494 4.601-.434-2.254A1.4 1.4 0 0 0 1.912 3.55C1.128 3.55.5 4.172.5 4.954a.5.5 0 0 0 .005.07l1.077 7.581Zm10.27-1.29-.001-.003a.05.05 0 0 1 0 .003Z"/></svg>