<svg width="24" height="24" viewBox="0 0 24 24" fill="none" xmlns="http://www.w3.org/2000/svg">
<path fill-rule="evenodd" clip-rule="evenodd" d="M6.79307 6.39691C7.11261 6.07728 7.11253 5.55913 6.7929 5.2396C6.47327 4.92007 5.95512 4.92014 5.63559 5.23977C3.94802 6.92785 3 9.21707 3 11.604C3 13.991 3.94802 16.2802 5.63559 17.9682C5.95512 18.2879 6.47327 18.288 6.7929 17.9684C7.11253 17.6489 7.11261 17.1307 6.79307 16.8111C5.41234 15.43 4.63668 13.557 4.63668 11.604C4.63668 9.65106 5.41234 7.77806 6.79307 6.39691ZM18.3644 5.23977C18.0449 4.92014 17.5267 4.92007 17.2071 5.2396C16.8875 5.55913 16.8874 6.07728 17.2069 6.39691C18.5877 7.77806 19.3633 9.65106 19.3633 11.604C19.3633 13.557 18.5877 15.43 17.2069 16.8111C16.8874 17.1307 16.8875 17.6489 17.2071 17.9684C17.5267 18.288 18.0449 18.2879 18.3644 17.9682C20.052 16.2802 21 13.991 21 11.604C21 9.21707 20.052 6.92785 18.3644 5.23977ZM9.10857 8.70504C9.42833 8.38563 9.42862 7.86749 9.10921 7.54773C8.78981 7.22797 8.27166 7.22768 7.9519 7.54709C7.4193 8.0791 6.99678 8.71087 6.7085 9.40629C6.42023 10.1017 6.27184 10.8471 6.27184 11.5999C6.27184 12.3527 6.42023 13.0981 6.7085 13.7935C6.99678 14.489 7.4193 15.1207 7.9519 15.6528C8.27166 15.9722 8.78981 15.9719 9.10921 15.6521C9.42862 15.3323 9.42833 14.8142 9.10857 14.4948C8.72814 14.1148 8.42634 13.6635 8.22042 13.1668C8.01451 12.6701 7.90853 12.1376 7.90853 11.5999C7.90853 11.0622 8.01451 10.5298 8.22042 10.033C8.42634 9.53631 8.72814 9.08505 9.10857 8.70504ZM16.0481 7.55527C15.7283 7.23587 15.2102 7.23615 14.8908 7.55591C14.5714 7.87567 14.5717 8.39382 14.8914 8.71322C15.2719 9.09323 15.5737 9.5445 15.7796 10.0412C15.9855 10.5379 16.0915 11.0704 16.0915 11.6081C16.0915 12.1458 15.9855 12.6783 15.7796 13.175C15.5737 13.6717 15.2719 14.123 14.8914 14.503C14.5717 14.8224 14.5714 15.3405 14.8908 15.6603C15.2102 15.98 15.7283 15.9803 16.0481 15.6609C16.5807 15.1289 17.0032 14.4971 17.2915 13.8017C17.5798 13.1063 17.7282 12.3609 17.7282 11.6081C17.7282 10.8553 17.5798 10.1099 17.2915 9.41447C17.0032 8.71906 16.5807 8.08728 16.0481 7.55527ZM11.1816 11.604C11.1816 11.1521 11.548 10.7857 12 10.7857C12.4519 10.7857 12.8183 11.1521 12.8183 11.604C12.8183 12.056 12.4519 12.4224 12 12.4224C11.548 12.4224 11.1816 12.056 11.1816 11.604ZM12 9.14902C10.6441 9.14902 9.54496 10.2482 9.54496 11.604C9.54496 12.9599 10.6441 14.0591 12 14.0591C13.3559 14.0591 14.455 12.9599 14.455 11.604C14.455 10.2482 13.3559 9.14902 12 9.14902Z" fill="white"/>
</svg>
