<svg width="15" height="15" viewBox="0 0 15 15" fill="none" xmlns="http://www.w3.org/2000/svg">
<path d="M7.50002 0C7.33426 0 7.17529 0.065848 7.05808 0.183058C6.94087 0.300269 6.87502 0.45924 6.87502 0.625V14.375C6.87502 14.5408 6.94087 14.6997 7.05808 14.8169C7.17529 14.9342 7.33426 15 7.50002 15C7.66578 15 7.82475 14.9342 7.94196 14.8169C8.05918 14.6997 8.12502 14.5408 8.12502 14.375V0.625C8.12502 0.45924 8.05918 0.300269 7.94196 0.183058C7.82475 0.065848 7.66578 0 7.50002 0Z" fill="#F5F9FF" fill-opacity="0.95"/>
<path d="M4.99998 1.25015C4.83422 1.25015 4.67525 1.316 4.55804 1.43321C4.44083 1.55042 4.37498 1.70939 4.37498 1.87515V13.1252C4.37498 13.2909 4.44083 13.4499 4.55804 13.5671C4.67525 13.6843 4.83422 13.7502 4.99998 13.7502C5.16574 13.7502 5.32471 13.6843 5.44192 13.5671C5.55913 13.4499 5.62498 13.2909 5.62498 13.1252V1.87515C5.62498 1.70939 5.55913 1.55042 5.44192 1.43321C5.32471 1.316 5.16574 1.25015 4.99998 1.25015Z" fill="#F5F9FF" fill-opacity="0.95"/>
<path d="M2.5 3.75C2.33424 3.75 2.17527 3.81585 2.05806 3.93306C1.94085 4.05027 1.875 4.20924 1.875 4.375V10.625C1.875 10.7908 1.94085 10.9497 2.05806 11.0669C2.17527 11.1842 2.33424 11.25 2.5 11.25C2.66576 11.25 2.82473 11.1842 2.94194 11.0669C3.05915 10.9497 3.125 10.7908 3.125 10.625V4.375C3.125 4.20924 3.05915 4.05027 2.94194 3.93306C2.82473 3.81585 2.66576 3.75 2.5 3.75Z" fill="#F5F9FF" fill-opacity="0.95"/>
<path d="M0.625 6.24985C0.45924 6.24985 0.300268 6.3157 0.183058 6.43291C0.065848 6.55012 0 6.70909 0 6.87485V8.12485C0 8.29061 0.065848 8.44958 0.183058 8.56679C0.300268 8.684 0.45924 8.74985 0.625 8.74985C0.79076 8.74985 0.949731 8.684 1.06694 8.56679C1.18415 8.44958 1.25 8.29061 1.25 8.12485V6.87485C1.25 6.70909 1.18415 6.55012 1.06694 6.43291C0.949731 6.3157 0.79076 6.24985 0.625 6.24985Z" fill="#F5F9FF" fill-opacity="0.95"/>
<path d="M10 1.25015C9.83424 1.25015 9.67527 1.316 9.55806 1.43321C9.44085 1.55042 9.375 1.70939 9.375 1.87515V13.1252C9.375 13.2909 9.44085 13.4499 9.55806 13.5671C9.67527 13.6843 9.83424 13.7502 10 13.7502C10.1658 13.7502 10.3247 13.6843 10.4419 13.5671C10.5592 13.4499 10.625 13.2909 10.625 13.1252V1.87515C10.625 1.70939 10.5592 1.55042 10.4419 1.43321C10.3247 1.316 10.1658 1.25015 10 1.25015Z" fill="#F5F9FF" fill-opacity="0.95"/>
<path d="M12.5 3.75C12.3342 3.75 12.1753 3.81585 12.0581 3.93306C11.9408 4.05027 11.875 4.20924 11.875 4.375V10.625C11.875 10.7908 11.9408 10.9497 12.0581 11.0669C12.1753 11.1842 12.3342 11.25 12.5 11.25C12.6658 11.25 12.8247 11.1842 12.9419 11.0669C13.0591 10.9497 13.125 10.7908 13.125 10.625V4.375C13.125 4.20924 13.0591 4.05027 12.9419 3.93306C12.8247 3.81585 12.6658 3.75 12.5 3.75Z" fill="#F5F9FF" fill-opacity="0.95"/>
<path d="M14.375 6.24985C14.2092 6.24985 14.0503 6.3157 13.9331 6.43291C13.8158 6.55012 13.75 6.70909 13.75 6.87485V8.12485C13.75 8.29061 13.8158 8.44958 13.9331 8.56679C14.0503 8.684 14.2092 8.74985 14.375 8.74985C14.5408 8.74985 14.6997 8.684 14.8169 8.56679C14.9341 8.44958 15 8.29061 15 8.12485V6.87485C15 6.70909 14.9341 6.55012 14.8169 6.43291C14.6997 6.3157 14.5408 6.24985 14.375 6.24985Z" fill="#F5F9FF" fill-opacity="0.95"/>
</svg>
