<svg xmlns="http://www.w3.org/2000/svg" width="19" height="18" fill="none" viewBox="0 0 19 18"><path fill="#fff" d="M16.203.327a.818.818 0 0 0-1.31.982 7.365 7.365 0 0 1 1.473 4.42.818.818 0 0 0 1.637 0 9.001 9.001 0 0 0-1.8-5.402ZM2.952.168a.818.818 0 0 1 .153 1.147 7.241 7.241 0 0 0-1.468 4.413.818.818 0 1 1-1.637 0C0 3.754.629 1.86 1.805.321A.818.818 0 0 1 2.952.168Z"/><path fill="#fff" fill-rule="evenodd" d="M9.001 0a5.728 5.728 0 0 0-5.728 5.728c0 2.744-.587 4.447-1.127 5.439a4.858 4.858 0 0 1-.72 1.018 2.47 2.47 0 0 1-.25.232l-.003.002a.818.818 0 0 0 .464 1.492h14.73a.818.818 0 0 0 .463-1.492l-.003-.002a2.487 2.487 0 0 1-.25-.232 4.86 4.86 0 0 1-.72-1.018c-.54-.992-1.127-2.695-1.127-5.439A5.728 5.728 0 0 0 9 0Zm5.606 12.275H3.395c.063-.102.125-.21.187-.324.687-1.26 1.328-3.238 1.328-6.223a4.092 4.092 0 1 1 8.183 0c0 2.985.64 4.964 1.327 6.223.063.114.125.222.187.324Z" clip-rule="evenodd"/><path fill="#fff" d="M8.294 15.956a.818.818 0 0 0-1.416.82 2.456 2.456 0 0 0 4.247 0 .818.818 0 0 0-1.416-.82.819.819 0 0 1-1.415 0Z"/></svg>