<svg width="24" height="24" viewBox="0 0 24 24" fill="none" xmlns="http://www.w3.org/2000/svg">
<path fill-rule="evenodd" clip-rule="evenodd" d="M6.80001 8C6.80001 6.67452 7.87452 5.6 9.20001 5.6C10.5255 5.6 11.6 6.67452 11.6 8C11.6 9.32548 10.5255 10.4 9.20001 10.4C7.87452 10.4 6.80001 9.32548 6.80001 8ZM9.20001 4C6.99087 4 5.20001 5.79086 5.20001 8C5.20001 10.2091 6.99087 12 9.20001 12C11.4091 12 13.2 10.2091 13.2 8C13.2 5.79086 11.4091 4 9.20001 4ZM6 13.6C4.93913 13.6 3.92172 14.0214 3.17157 14.7716C2.42143 15.5217 2 16.5391 2 17.6V19.2C2 19.6418 2.35817 20 2.8 20C3.24183 20 3.6 19.6418 3.6 19.2V17.6C3.6 16.9635 3.85286 16.353 4.30294 15.9029C4.75303 15.4528 5.36348 15.2 6 15.2H12.4C13.0365 15.2 13.647 15.4528 14.0971 15.9029C14.5471 16.353 14.8 16.9635 14.8 17.6V19.2C14.8 19.6418 15.1582 20 15.6 20C16.0418 20 16.4 19.6418 16.4 19.2V17.6C16.4 16.5391 15.9786 15.5217 15.2284 14.7716C14.4783 14.0214 13.4609 13.6 12.4 13.6H6ZM17.2254 14.304C17.3359 13.8762 17.7722 13.619 18.2 13.7294C19.0581 13.951 19.8184 14.4513 20.3614 15.1518C20.9044 15.8522 21.1993 16.7132 21.2 17.5994V19.2C21.2 19.6419 20.8418 20 20.4 20C19.9582 20 19.6 19.6419 19.6 19.2V17.6006C19.5995 17.069 19.4226 16.5522 19.0968 16.132C18.771 15.7117 18.3149 15.4116 17.8 15.2786C17.3722 15.1682 17.1149 14.7318 17.2254 14.304ZM14.9984 4.12897C14.5704 4.01938 14.1346 4.27751 14.025 4.70554C13.9154 5.13356 14.1735 5.56938 14.6016 5.67897C15.1178 5.81115 15.5754 6.11139 15.9022 6.53235C16.2289 6.95332 16.4063 7.47106 16.4063 8.00397C16.4063 8.53687 16.2289 9.05461 15.9022 9.47558C15.5754 9.89654 15.1178 10.1968 14.6016 10.329C14.1735 10.4386 13.9154 10.8744 14.025 11.3024C14.1346 11.7304 14.5704 11.9886 14.9984 11.879C15.8588 11.6587 16.6215 11.1583 17.1661 10.4567C17.7107 9.75505 18.0063 8.89214 18.0063 8.00397C18.0063 7.1158 17.7107 6.25289 17.1661 5.55128C16.6215 4.84967 15.8588 4.34927 14.9984 4.12897Z" fill="white"/>
</svg>
