<svg xmlns="http://www.w3.org/2000/svg" width="24" height="24" fill="none" viewBox="0 0 24 24"><path fill="#fff" fill-rule="evenodd" d="M6.8 8a2.4 2.4 0 1 1 4.8 0 2.4 2.4 0 0 1-4.8 0Zm2.4-4a4 4 0 1 0 0 8 4 4 0 0 0 0-8ZM6 13.6a4 4 0 0 0-4 4v1.6a.8.8 0 0 0 1.6 0v-1.6A2.4 2.4 0 0 1 6 15.2h6.4a2.4 2.4 0 0 1 2.4 2.4v1.6a.8.8 0 0 0 1.6 0v-1.6a4 4 0 0 0-4-4H6Zm11.225.704a.8.8 0 0 1 .975-.575 4 4 0 0 1 3 3.87V19.2a.8.8 0 1 1-1.6 0v-1.6a2.4 2.4 0 0 0-1.8-2.321.8.8 0 0 1-.575-.975ZM14.998 4.129a.8.8 0 1 0-.396 1.55 2.4 2.4 0 0 1 0 4.65.8.8 0 1 0 .396 1.55 4 4 0 0 0 0-7.75Z" clip-rule="evenodd"/></svg>