<svg xmlns="http://www.w3.org/2000/svg" width="24" height="24" fill="none" viewBox="0 0 24 24"><path fill="#fff" fill-rule="evenodd" d="M17.488 3.24a.818.818 0 0 0-1.157 1.157l3.272 3.272a.818.818 0 1 0 1.157-1.157L17.488 3.24Zm-2.455 2.454a.818.818 0 0 0-1.157 0l-9.41 9.41a.82.82 0 0 0-.21.363l-1.227 4.5a.818.818 0 0 0 1.004 1.004l4.5-1.227a.818.818 0 0 0 .364-.21l9.409-9.41a.818.818 0 0 0 0-1.157l-3.273-3.273ZM4.984 19.016l.794-2.91 8.677-8.676 2.115 2.115-8.677 8.677-2.909.794Z" clip-rule="evenodd"/></svg>