<svg width="24" height="24" viewBox="0 0 24 24" fill="none" xmlns="http://www.w3.org/2000/svg">
<path fill-rule="evenodd" clip-rule="evenodd" d="M12.2428 2.8125C10.9574 2.8125 9.72451 3.32316 8.81554 4.23213C7.90656 5.14111 7.3959 6.37395 7.3959 7.65943C7.3959 8.94492 7.90656 10.1778 8.81554 11.0867C9.72451 11.9957 10.9574 12.5064 12.2428 12.5064C13.5283 12.5064 14.7612 11.9957 15.6701 11.0867C16.5791 10.1778 17.0898 8.94492 17.0898 7.65943C17.0898 6.37395 16.5791 5.14111 15.6701 4.23213C14.7612 3.32316 13.5283 2.8125 12.2428 2.8125ZM9.91227 5.32887C10.5304 4.71077 11.3687 4.36352 12.2428 4.36352C13.117 4.36352 13.9553 4.71077 14.5734 5.32887C15.1915 5.94697 15.5388 6.7853 15.5388 7.65943C15.5388 8.53357 15.1915 9.3719 14.5734 9.99C13.9553 10.6081 13.117 10.9554 12.2428 10.9554C11.3687 10.9554 10.5304 10.6081 9.91227 9.99C9.29417 9.3719 8.94692 8.53357 8.94692 7.65943C8.94692 6.7853 9.29417 5.94697 9.91227 5.32887ZM8.11937 16.9135C9.21299 15.8199 10.6962 15.2055 12.2429 15.2055C13.7895 15.2055 15.2727 15.8199 16.3663 16.9135C17.46 18.0071 18.0743 19.4904 18.0743 21.037C18.0743 21.4653 18.4215 21.8125 18.8498 21.8125C19.2782 21.8125 19.6254 21.4653 19.6254 21.037C19.6254 19.079 18.8476 17.2013 17.4631 15.8168C16.0786 14.4323 14.2008 13.6545 12.2429 13.6545C10.2849 13.6545 8.40712 14.4323 7.02264 15.8168C5.63815 17.2013 4.86035 19.079 4.86035 21.037C4.86035 21.4653 5.20756 21.8125 5.63586 21.8125C6.06416 21.8125 6.41137 21.4653 6.41137 21.037C6.41137 19.4904 7.02576 18.0071 8.11937 16.9135Z" fill="white"/>
</svg>
