<svg width="24" height="24" viewBox="0 0 24 24" fill="none" xmlns="http://www.w3.org/2000/svg">
<path fill-rule="evenodd" clip-rule="evenodd" d="M5.49556 4.12056C5.61277 4.00335 5.77174 3.9375 5.9375 3.9375H19.4375C19.6033 3.9375 19.7622 4.00335 19.8794 4.12056C19.9967 4.23777 20.0625 4.39674 20.0625 4.5625V13.5625C20.0625 13.7283 19.9967 13.8872 19.8794 14.0044C19.7622 14.1217 19.6033 14.1875 19.4375 14.1875H16.0625H13.8125C13.5364 14.1875 13.3125 14.4114 13.3125 14.6875C13.3125 14.9636 13.5364 15.1875 13.8125 15.1875H15.5625V16.4375H14.9375C14.6614 16.4375 14.4375 16.6614 14.4375 16.9375C14.4375 17.2136 14.6614 17.4375 14.9375 17.4375H16.0625H17.75C18.0261 17.4375 18.25 17.2136 18.25 16.9375C18.25 16.6614 18.0261 16.4375 17.75 16.4375H16.5625V15.1875H19.4375C19.8685 15.1875 20.2818 15.0163 20.5865 14.7115C20.8913 14.4068 21.0625 13.9935 21.0625 13.5625V4.5625C21.0625 4.13152 20.8913 3.7182 20.5865 3.41345C20.2818 3.10871 19.8685 2.9375 19.4375 2.9375H5.9375C5.50652 2.9375 5.0932 3.1087 4.78845 3.41345C4.4837 3.7182 4.3125 4.13152 4.3125 4.5625V6.25C4.3125 6.52614 4.53636 6.75 4.8125 6.75C5.08864 6.75 5.3125 6.52614 5.3125 6.25V4.5625C5.3125 4.39674 5.37835 4.23777 5.49556 4.12056ZM12.8282 5.8282C13.2384 5.41797 13.7948 5.1875 14.375 5.1875C14.9552 5.1875 15.5116 5.41797 15.9218 5.8282C16.332 6.23844 16.5625 6.79484 16.5625 7.375C16.5625 7.95516 16.332 8.51156 15.9218 8.9218C15.7728 9.07075 15.6046 9.19601 15.423 9.29514C15.9062 9.4563 16.3503 9.72826 16.7173 10.0952C17.3385 10.7164 17.6875 11.559 17.6875 12.4375C17.6875 12.7136 17.4636 12.9375 17.1875 12.9375C16.9114 12.9375 16.6875 12.7136 16.6875 12.4375C16.6875 11.8242 16.4439 11.236 16.0102 10.8023C15.5765 10.3686 14.9883 10.125 14.375 10.125C14.0989 10.125 13.875 9.90114 13.875 9.625C13.875 9.58464 13.8798 9.54539 13.8888 9.50779C13.4903 9.41695 13.1218 9.21542 12.8282 8.9218C12.418 8.51156 12.1875 7.95516 12.1875 7.375C12.1875 6.79484 12.418 6.23844 12.8282 5.8282ZM14.375 6.1875C14.0601 6.1875 13.758 6.31261 13.5353 6.53531C13.3126 6.75801 13.1875 7.06006 13.1875 7.375C13.1875 7.68994 13.3126 7.99199 13.5353 8.21469C13.758 8.43739 14.0601 8.5625 14.375 8.5625C14.6899 8.5625 14.992 8.43739 15.2147 8.21469C15.4374 7.99199 15.5625 7.68994 15.5625 7.375C15.5625 7.06006 15.4374 6.75801 15.2147 6.53531C14.992 6.31261 14.6899 6.1875 14.375 6.1875ZM8.75 16C7.60625 16 6.50935 16.4544 5.7006 17.2631C4.89185 18.0719 4.4375 19.1688 4.4375 20.3125C4.4375 20.7267 4.10171 21.0625 3.6875 21.0625C3.27329 21.0625 2.9375 20.7267 2.9375 20.3125C2.9375 18.7709 3.54989 17.2925 4.63994 16.2024C5.41761 15.4248 6.39294 14.8902 7.44785 14.6477C6.92051 14.4578 6.43597 14.1531 6.03206 13.7492C5.31122 13.0283 4.90625 12.0507 4.90625 11.0312C4.90625 10.0118 5.31122 9.03415 6.03206 8.31331C6.7529 7.59247 7.73057 7.1875 8.75 7.1875C9.76943 7.1875 10.7471 7.59246 11.4679 8.31331C12.1888 9.03415 12.5938 10.0118 12.5938 11.0312C12.5938 12.0507 12.1888 13.0283 11.4679 13.7492C11.064 14.1531 10.5795 14.4578 10.0521 14.6477C11.1071 14.8902 12.0824 15.4248 12.8601 16.2024C13.9501 17.2925 14.5625 18.7709 14.5625 20.3125C14.5625 20.7267 14.2267 21.0625 13.8125 21.0625C13.3983 21.0625 13.0625 20.7267 13.0625 20.3125C13.0625 19.1688 12.6081 18.0719 11.7994 17.2631C10.9906 16.4544 9.89375 16 8.75 16ZM7.09272 9.37397C7.53226 8.93443 8.1284 8.6875 8.75 8.6875C9.3716 8.6875 9.96774 8.93443 10.4073 9.37397C10.8468 9.81351 11.0938 10.4096 11.0938 11.0312C11.0938 11.6529 10.8468 12.249 10.4073 12.6885C9.96774 13.1281 9.3716 13.375 8.75 13.375C8.1284 13.375 7.53226 13.1281 7.09272 12.6885C6.65318 12.249 6.40625 11.6529 6.40625 11.0312C6.40625 10.4096 6.65318 9.81351 7.09272 9.37397Z" fill="white"/>
</svg>
