<svg xmlns="http://www.w3.org/2000/svg" width="18" height="18" fill="none" viewBox="0 0 18 18"><path fill="#E0ECFF" fill-opacity=".8" fill-rule="evenodd" d="M1.7.195c.394-.07.8-.012 1.16.164l.007.004 14.26 7.245a1.314 1.314 0 0 1 .718 1.162v.01a1.313 1.313 0 0 1-.717 1.168L2.859 17.206a1.876 1.876 0 0 1-2.451-2.622l3.554-5.806L.408 2.982A1.875 1.875 0 0 1 1.7.195Zm13.623 7.832L2.193 1.703a.375.375 0 0 0-.496.511l3.74 5.813h9.886Zm-9.924 1.5h9.924l-13.13 6.335a.376.376 0 0 1-.496-.511L5.4 9.527Z" clip-rule="evenodd"/></svg>