<svg xmlns="http://www.w3.org/2000/svg" width="24" height="24" fill="none" viewBox="0 0 24 24"><path fill="#fff" fill-rule="evenodd" d="M10.566 5.09c.318.153.52.474.52.827v12.836a.917.917 0 0 1-1.49.716l-4.333-3.466H1.917A.917.917 0 0 1 1 15.086V9.584c0-.506.41-.916.917-.916h3.346L9.596 5.2a.917.917 0 0 1 .97-.11ZM9.252 7.825 6.157 10.3a.917.917 0 0 1-.573.201h-2.75v3.668h2.75c.209 0 .41.07.573.2l3.095 2.476v-9.02ZM21.82 8.936a.917.917 0 0 1 0 1.297l-2.103 2.102 2.103 2.102a.917.917 0 0 1-1.297 1.297l-2.102-2.102-2.103 2.102a.917.917 0 0 1-1.296-1.297l2.102-2.102-2.102-2.102a.917.917 0 1 1 1.296-1.297l2.103 2.102 2.102-2.102a.917.917 0 0 1 1.297 0Z" clip-rule="evenodd"/></svg>