<svg xmlns="http://www.w3.org/2000/svg" width="18" height="18" fill="none" viewBox="0 0 18 18"><path fill="#fff" fill-rule="evenodd" d="M9 0a.82.82 0 0 1 .734.456l2.338 4.737 5.228.764a.818.818 0 0 1 .453 1.395l-3.783 3.685.893 5.205a.818.818 0 0 1-1.188.862L9 14.645l-4.676 2.46a.818.818 0 0 1-1.187-.863l.893-5.205L.247 7.352A.818.818 0 0 1 .7 5.957l5.228-.764L8.266.456A.818.818 0 0 1 9 0Zm0 2.667L7.205 6.302a.818.818 0 0 1-.615.448l-4.014.586 2.904 2.829a.818.818 0 0 1 .236.724l-.686 3.995 3.59-1.887a.818.818 0 0 1 .76 0l3.59 1.887-.686-3.995a.818.818 0 0 1 .236-.724l2.904-2.829-4.014-.586a.818.818 0 0 1-.616-.448L9 2.667Z" clip-rule="evenodd"/></svg>