<svg xmlns="http://www.w3.org/2000/svg" width="24" height="24" fill="none" viewBox="0 0 24 24"><path fill="#fff" fill-rule="evenodd" d="M10.14 4.873a7.37 7.37 0 0 0-5.459 6.309h3.27c.183-2.261.94-4.431 2.188-6.309Zm3.72 0a13.337 13.337 0 0 1 2.19 6.309h3.269a7.37 7.37 0 0 0-5.458-6.309Zm.547 6.309A11.7 11.7 0 0 0 12 5.087a11.7 11.7 0 0 0-2.407 6.095h4.814Zm-4.814 1.636h4.814A11.7 11.7 0 0 1 12 18.913a11.7 11.7 0 0 1-2.407-6.095Zm-1.643 0H4.681a7.37 7.37 0 0 0 5.458 6.309 13.337 13.337 0 0 1-2.189-6.309Zm5.91 6.309a13.337 13.337 0 0 0 2.19-6.309h3.269a7.37 7.37 0 0 1-5.458 6.309ZM12.004 21a9 9 0 1 0 .005-18 9 9 0 0 0-.01 18h.005Z" clip-rule="evenodd"/></svg>