<svg width="18" height="18" viewBox="0 0 18 18" fill="none" xmlns="http://www.w3.org/2000/svg">
<path d="M9 4.90915C9.45187 4.90915 9.81819 5.27547 9.81819 5.72734V9.00006C9.81819 9.45193 9.45187 9.81824 9 9.81824C8.54813 9.81824 8.18182 9.45193 8.18182 9.00006V5.72734C8.18182 5.27547 8.54813 4.90915 9 4.90915Z" fill="white"/>
<path d="M9 11.4546C8.54813 11.4546 8.18182 11.8209 8.18182 12.2728C8.18182 12.7246 8.54813 13.0909 9 13.0909H9.00819C9.46005 13.0909 9.82637 12.7246 9.82637 12.2728C9.82637 11.8209 9.46005 11.4546 9.00819 11.4546H9Z" fill="white"/>
<path fill-rule="evenodd" clip-rule="evenodd" d="M5.03419 0.23964C5.18762 0.086201 5.39573 0 5.61273 0H12.3873C12.6043 0 12.8124 0.086201 12.9658 0.23964L17.7604 5.03419C17.9138 5.18762 18 5.39573 18 5.61273V12.3873C18 12.6043 17.9138 12.8124 17.7604 12.9658L12.9658 17.7604C12.8124 17.9138 12.6043 18 12.3873 18H5.61273C5.39573 18 5.18762 17.9138 5.03419 17.7604L0.23964 12.9658C0.086201 12.8124 0 12.6043 0 12.3873V5.61273C0 5.39573 0.086201 5.18762 0.23964 5.03419L5.03419 0.23964ZM5.95163 1.63636L1.63636 5.95163V12.0484L5.95163 16.3636H12.0484L16.3636 12.0484V5.95163L12.0484 1.63636H5.95163Z" fill="white"/>
</svg>
