<svg width="12" height="10" viewBox="0 0 12 10" fill="none" xmlns="http://www.w3.org/2000/svg">
<path fill-rule="evenodd" clip-rule="evenodd" d="M1.28722 5.18702C1.19747 5.04806 1.12502 4.92772 1.07038 4.83328C1.12502 4.73885 1.19747 4.61851 1.28722 4.47954C1.51773 4.12262 1.8591 3.64798 2.30229 3.17524C3.19778 2.22005 4.44979 1.33326 6.00004 1.33326C7.5503 1.33326 8.8023 2.22005 9.6978 3.17524C10.141 3.64798 10.4824 4.12262 10.7129 4.47954C10.8026 4.61851 10.8751 4.73885 10.9297 4.83328C10.8751 4.92772 10.8026 5.04806 10.7129 5.18702C10.4824 5.54395 10.141 6.01859 9.6978 6.49133C8.8023 7.44652 7.5503 8.33331 6.00004 8.33331C4.44979 8.33331 3.19778 7.44652 2.30229 6.49133C1.8591 6.01859 1.51773 5.54395 1.28722 5.18702ZM11.5001 4.83328C11.9473 4.60968 11.9472 4.60951 11.9471 4.60932L11.5001 4.83328ZM11.9471 4.60932C12.0175 4.75009 12.0177 4.91613 11.9473 5.05689L11.5001 4.83328C11.9473 5.05689 11.947 5.0575 11.9469 5.05769L11.9463 5.05885L11.9446 5.06227L11.9389 5.07337C11.9341 5.08265 11.9274 5.09563 11.9187 5.11207C11.9013 5.14494 11.8761 5.19167 11.8431 5.25029C11.7772 5.36747 11.6802 5.53253 11.5529 5.72955C11.299 6.12264 10.9217 6.648 10.4273 7.17527C9.44783 8.22009 7.94981 9.33332 6.00004 9.33332C4.05028 9.33332 2.55226 8.22009 1.57274 7.17527C1.07843 6.648 0.701038 6.12264 0.447171 5.72955C0.319927 5.53253 0.222898 5.36747 0.156987 5.25029C0.124013 5.19167 0.0987708 5.14494 0.0813773 5.11207C0.0726789 5.09563 0.0659381 5.08265 0.0611694 5.07337L0.0554954 5.06227L0.0537699 5.05885L0.0527868 5.05689L0.500004 4.83328C0.0527868 5.05689 0.0526949 5.05671 0.0527868 5.05689C-0.0175956 4.91613 -0.0175956 4.75044 0.0527868 4.60968L0.499169 4.83287C0.0527872 4.60968 0.0530936 4.60906 0.0531854 4.60888L0.0537699 4.60772L0.0554954 4.6043L0.0611694 4.59319C0.0659381 4.58392 0.0726789 4.57094 0.0813773 4.5545C0.0987708 4.52163 0.124013 4.4749 0.156987 4.41628C0.222898 4.2991 0.319927 4.13404 0.447171 3.93702C0.701038 3.54393 1.07843 3.01857 1.57274 2.4913C2.55226 1.44648 4.05028 0.333252 6.00004 0.333252C7.94981 0.333252 9.44783 1.44648 10.4273 2.4913C10.9217 3.01857 11.299 3.54393 11.5529 3.93702C11.6802 4.13404 11.7772 4.2991 11.8431 4.41628C11.8761 4.4749 11.9013 4.52163 11.9187 4.5545C11.9274 4.57094 11.9341 4.58392 11.9389 4.59319L11.9446 4.6043L11.9463 4.60772L11.9471 4.60932ZM5.00011 4.83333C5.00011 4.28104 5.44783 3.83332 6.00012 3.83332C6.55241 3.83332 7.00012 4.28104 7.00012 4.83333C7.00012 5.38562 6.55241 5.83334 6.00012 5.83334C5.44783 5.83334 5.00011 5.38562 5.00011 4.83333ZM6.00012 2.83332C4.89554 2.83332 4.0001 3.72875 4.0001 4.83333C4.0001 5.93791 4.89554 6.83335 6.00012 6.83335C7.10469 6.83335 8.00013 5.93791 8.00013 4.83333C8.00013 3.72875 7.10469 2.83332 6.00012 2.83332Z" fill="#E0ECFF" fill-opacity="0.8"/>
</svg>
