<svg xmlns="http://www.w3.org/2000/svg" width="24" height="24" fill="none" viewBox="0 0 24 24"><path fill="#fff" fill-rule="evenodd" d="M7.67 3.24a.818.818 0 0 0-1.158 1.157L7.57 5.455H5.455A2.455 2.455 0 0 0 3 7.909v8.182a2.454 2.454 0 0 0 2.455 2.454h5.727a.818.818 0 0 0 0-1.636H5.455a.818.818 0 0 1-.819-.818V7.909a.818.818 0 0 1 .819-.818H7.57L6.512 8.149A.818.818 0 1 0 7.67 9.306l2.452-2.451a.802.802 0 0 0 .173-.25.815.815 0 0 0-.173-.913L7.67 3.24ZM12 6.273c0-.452.366-.818.818-.818h5.728A2.455 2.455 0 0 1 21 7.909v8.182a2.454 2.454 0 0 1-2.454 2.454H16.43l1.058 1.058a.818.818 0 0 1-1.157 1.157l-2.455-2.454a.815.815 0 0 1 0-1.157l2.455-2.455a.818.818 0 0 1 1.157 1.157L16.43 16.91h2.116a.818.818 0 0 0 .818-.818V7.909a.818.818 0 0 0-.819-.818h-5.727A.818.818 0 0 1 12 6.273ZM10.364 12a1.636 1.636 0 1 1 3.272 0 1.636 1.636 0 0 1-3.272 0ZM12 8.727a3.273 3.273 0 1 0 0 6.546 3.273 3.273 0 0 0 0-6.546Z" clip-rule="evenodd"/></svg>