<svg width="48" height="48" viewBox="0 0 48 48" fill="none" xmlns="http://www.w3.org/2000/svg">
<rect x="4" y="4" width="40" height="40" rx="20" fill="#272A31"/>
<path fill-rule="evenodd" clip-rule="evenodd" d="M30.7071 18.7071C31.0976 18.3166 31.0976 17.6834 30.7071 17.2929C30.3166 16.9024 29.6834 16.9024 29.2929 17.2929L24 22.5858L18.7071 17.2929C18.3166 16.9024 17.6834 16.9024 17.2929 17.2929C16.9024 17.6834 16.9024 18.3166 17.2929 18.7071L22.5858 24L17.2929 29.2929C16.9024 29.6834 16.9024 30.3166 17.2929 30.7071C17.6834 31.0976 18.3166 31.0976 18.7071 30.7071L24 25.4142L29.2929 30.7071C29.6834 31.0976 30.3166 31.0976 30.7071 30.7071C31.0976 30.3166 31.0976 29.6834 30.7071 29.2929L25.4142 24L30.7071 18.7071Z" fill="#EFF0FA"/>
</svg>
