<svg xmlns="http://www.w3.org/2000/svg" width="14" height="18" fill="none" viewBox="0 0 14 18"><path fill="#fff" d="M1.077 11.535c.74 3.544 2.375 5.638 5.576 5.638 2.398 0 3.955-.975 5.025-2.933.763-1.219 1.297-2.894 1.738-4.34.236-.748.558-1.692.582-2.108.031-.472-.275-.81-.747-.842-.543-.04-.881.275-1.22.983l-1.1 2.367c-.102.236-.212.315-.338.315-.142 0-.244-.079-.244-.338l.362-8.307a.903.903 0 0 0-.912-.912.901.901 0 0 0-.904.912l-.363 6.042a5.27 5.27 0 0 0-.652-.181L7.689.912A.903.903 0 0 0 6.776 0a.901.901 0 0 0-.904.912l.191 6.832a9.77 9.77 0 0 0-.692.095l-.8-6.339a.9.9 0 0 0-.905-.904.901.901 0 0 0-.912.904l.734 6.854c-.236.11-.54.276-.745.41l-.926-4.81a.9.9 0 0 0-.905-.904.901.901 0 0 0-.912.904l1.077 7.58Z"/></svg>