<svg xmlns="http://www.w3.org/2000/svg" width="24" height="24" fill="none" viewBox="0 0 24 24"><path fill="#fff" fill-rule="evenodd" d="M6.793 6.397A.818.818 0 1 0 5.636 5.24a9.002 9.002 0 0 0 0 12.728.818.818 0 1 0 1.157-1.157 7.365 7.365 0 0 1 0-10.414ZM18.364 5.24a.818.818 0 0 0-1.157 1.157 7.365 7.365 0 0 1 0 10.414.818.818 0 0 0 1.157 1.157 9.001 9.001 0 0 0 0-12.728ZM9.11 8.705a.818.818 0 1 0-1.157-1.158 5.728 5.728 0 0 0 0 8.106.818.818 0 1 0 1.157-1.158 4.092 4.092 0 0 1 0-5.79Zm6.94-1.15a.818.818 0 0 0-1.158 1.158 4.09 4.09 0 0 1 0 5.79.818.818 0 0 0 1.157 1.158 5.729 5.729 0 0 0 0-8.106Zm-4.867 4.049a.818.818 0 1 1 1.636 0 .818.818 0 0 1-1.636 0ZM12 9.149a2.455 2.455 0 1 0 0 4.91 2.455 2.455 0 0 0 0-4.91Z" clip-rule="evenodd"/></svg>