<?xml version="1.0" standalone="no"?>
<!DOCTYPE svg PUBLIC "-//W3C//DTD SVG 20010904//EN"
 "http://www.w3.org/TR/2001/REC-SVG-20010904/DTD/svg10.dtd">
<svg version="1.0" xmlns="http://www.w3.org/2000/svg"
 width="500.000000pt" height="500.000000pt" viewBox="0 0 500.000000 500.000000"
 preserveAspectRatio="xMidYMid meet">

<g transform="translate(0.000000,500.000000) scale(0.100000,-0.100000)"
fill="#000000" stroke="none">
<path d="M1310 3283 c-14 -2 -49 -9 -79 -14 l-53 -11 6 -51 c4 -29 16 -81 28
-116 l20 -63 52 8 c78 13 232 9 313 -9 179 -39 411 -185 611 -383 72 -72 132
-136 132 -142 0 -24 -218 -237 -320 -314 -223 -167 -441 -247 -635 -234 -178
13 -156 18 -178 -44 -10 -30 -21 -80 -24 -111 l-6 -56 49 -12 c76 -20 225 -25
311 -12 110 17 276 67 356 108 174 87 376 240 540 407 l67 70 98 -96 c246
-243 452 -378 679 -446 182 -55 361 -66 496 -31 l49 12 -7 46 c-9 64 -31 142
-48 165 -12 17 -19 17 -66 7 -110 -24 -283 -5 -406 44 -98 39 -216 109 -324
190 -95 72 -311 283 -311 305 0 6 60 71 133 143 194 195 420 339 603 384 64
15 211 20 338 11 l39 -3 20 55 c10 30 21 80 24 111 l6 57 -54 11 c-90 20 -211
24 -299 12 -314 -46 -569 -190 -878 -494 l-92 -91 -103 100 c-56 55 -131 125
-167 156 -82 70 -251 180 -344 224 -176 83 -431 131 -576 107z"/>
<path d="M848 3050 c-80 -81 -100 -109 -141 -193 -69 -144 -81 -198 -81 -357
0 -159 12 -213 82 -357 39 -82 61 -113 132 -185 47 -49 90 -88 96 -88 7 0 14
17 18 39 3 21 19 72 36 112 16 41 30 77 30 80 0 3 -17 26 -39 50 -41 47 -93
156 -110 230 -35 151 14 357 111 468 21 24 38 49 38 55 0 6 -10 31 -21 56 -11
25 -29 77 -39 115 l-18 70 -94 -95z"/>
<path d="M4046 3088 c-4 -23 -20 -74 -36 -112 -17 -39 -30 -75 -30 -81 0 -6
15 -26 34 -44 71 -69 126 -223 126 -351 0 -127 -52 -272 -128 -359 l-39 -45
25 -55 c14 -30 33 -84 42 -120 l17 -66 95 95 c81 82 100 109 140 191 70 144
82 200 82 359 0 159 -12 213 -82 357 -39 82 -61 113 -132 186 -47 48 -90 87
-96 87 -7 0 -14 -19 -18 -42z"/>
</g>
</svg>
