<svg width="16" height="16" viewBox="0 0 16 16" fill="none" xmlns="http://www.w3.org/2000/svg">
<path fill-rule="evenodd" clip-rule="evenodd" d="M8 1.86364C4.61098 1.86364 1.86364 4.61098 1.86364 8C1.86364 11.389 4.61098 14.1364 8 14.1364C11.389 14.1364 14.1364 11.389 14.1364 8C14.1364 4.61098 11.389 1.86364 8 1.86364ZM0.5 8C0.5 3.85786 3.85786 0.5 8 0.5C12.1421 0.5 15.5 3.85786 15.5 8C15.5 12.1421 12.1421 15.5 8 15.5C3.85786 15.5 0.5 12.1421 0.5 8ZM7.99999 7.31822C8.37655 7.31822 8.68181 7.62348 8.68181 8.00004V10.7273C8.68181 11.1039 8.37655 11.4091 7.99999 11.4091C7.62343 11.4091 7.31817 11.1039 7.31817 10.7273V8.00004C7.31817 7.62348 7.62343 7.31822 7.99999 7.31822ZM7.99999 4.59096C7.62343 4.59096 7.31817 4.89622 7.31817 5.27278C7.31817 5.64934 7.62343 5.9546 7.99999 5.9546H8.00681C8.38337 5.9546 8.68863 5.64934 8.68863 5.27278C8.68863 4.89622 8.38337 4.59096 8.00681 4.59096H7.99999Z" fill="#E0ECFF" fill-opacity="0.8"/>
</svg>
