<svg xmlns="http://www.w3.org/2000/svg" width="24" height="24" fill="none" viewBox="0 0 24 24"><path fill="#fff" fill-rule="evenodd" d="M9.31 2.976A3.333 3.333 0 0 1 15 5.333V12a3.333 3.333 0 1 1-6.667 0V5.333c0-.884.351-1.732.977-2.357Zm2.357.69A1.667 1.667 0 0 0 10 5.334V12a1.667 1.667 0 0 0 3.333 0V5.333a1.667 1.667 0 0 0-1.666-1.666Z" clip-rule="evenodd"/><path fill="#fff" fill-rule="evenodd" d="M5.833 9.5c.46 0 .834.373.834.833V12a5 5 0 1 0 10 0v-1.667a.833.833 0 0 1 1.666 0V12A6.666 6.666 0 1 1 5 12v-1.667c0-.46.373-.833.833-.833Z" clip-rule="evenodd"/><path fill="#fff" fill-rule="evenodd" d="M11.667 17c.46 0 .833.373.833.833v3.334a.833.833 0 0 1-1.667 0v-3.334c0-.46.373-.833.834-.833Z" clip-rule="evenodd"/><path fill="#fff" fill-rule="evenodd" d="M7.5 21.167c0-.46.373-.834.833-.834H15A.833.833 0 1 1 15 22H8.333a.833.833 0 0 1-.833-.833Z" clip-rule="evenodd"/></svg>