<svg xmlns="http://www.w3.org/2000/svg" width="24" height="24" fill="none" viewBox="0 0 24 24"><path fill="#A4B0C1" fill-opacity=".5" d="M11.875 7c2.549.035 4.679.902 6.445 2.648.366.362.45.796.215 1.096-.238.306-.713.34-1.14.072h-.001a2.18 2.18 0 0 1-.34-.271c-2.814-2.683-7.13-2.77-10.062-.199-.284.25-.594.42-.983.393-.272-.019-.49-.135-.613-.388-.125-.26-.05-.498.114-.713.073-.092.156-.177.245-.254C7.516 7.804 9.591 7.039 11.875 7Z"/><path fill="#A4B0C1" fill-opacity=".5" d="M12.056 9.964c1.756.035 3.208.7 4.5 1.763.161.134.276.315.353.512.098.25.114.503-.075.72-.193.222-.452.259-.725.198-.293-.066-.519-.247-.738-.443-1.75-1.567-4.348-1.675-6.198-.26-.166.127-.318.271-.475.409-.242.211-.513.343-.843.317-.43-.034-.68-.397-.561-.81.062-.21.181-.4.345-.546 1.265-1.162 2.733-1.836 4.417-1.86Z"/><path fill="#A4B0C1" fill-opacity=".5" d="M12.384 13.052a3.394 3.394 0 0 1 2.4 1.056c.22.231.373.492.286.833-.11.436-.635.64-1 .302-1.135-1.052-2.714-1.06-3.918-.06-.336.28-.552.302-.82.087-.269-.215-.334-.58-.155-.912.096-.179.237-.32.393-.447.69-.562 1.58-.861 2.814-.86Z"/><path fill="#636B77" d="M13.214 16.94a1.099 1.099 0 0 1-1.11 1.1 1.1 1.1 0 0 1-1.111-1.128c.01-.653.506-1.146 1.14-1.133.611.012 1.087.522 1.081 1.162Z"/><path stroke="#ED4C5A" stroke-linecap="round" d="m6.701 6.091 9.39 12.208"/></svg>