<svg width="24" height="24" viewBox="0 0 24 24" fill="none" xmlns="http://www.w3.org/2000/svg">
<path fill-rule="evenodd" clip-rule="evenodd" d="M18.8789 8.60103C18.9032 8.60398 18.9273 8.60811 18.9512 8.61342C19.9961 8.84556 20.9305 9.42709 21.6003 10.262C22.27 11.0969 22.635 12.1352 22.635 13.2056V13.9875C22.635 14.536 22.4171 15.062 22.0293 15.4498C21.6414 15.8377 21.1154 16.0555 20.567 16.0555H17.272C16.7235 16.0555 16.1975 15.8377 15.8097 15.4498C15.4219 15.062 15.204 14.536 15.204 13.9875C15.204 13.8369 15.1441 13.6924 15.0376 13.5859C14.9311 13.4794 14.7866 13.4196 14.636 13.4196H9.36401C9.21337 13.4196 9.06889 13.4794 8.96237 13.5859C8.85585 13.6924 8.79601 13.8369 8.79601 13.9875C8.79601 14.536 8.57814 15.062 8.19031 15.4498C7.80249 15.8377 7.27648 16.0555 6.72802 16.0555H3.43303C2.88456 16.0555 2.35856 15.8377 1.97073 15.4498C1.58291 15.062 1.36503 14.536 1.36503 13.9875V13.2058M18.8789 8.60103C14.3348 7.7265 9.66573 7.72559 5.12129 8.59837C5.09695 8.60131 5.07275 8.60546 5.04878 8.61078C4.0034 8.84304 3.06855 9.42503 2.39875 10.2606C1.72906 11.096 1.36441 12.1351 1.36503 13.2058M5.22111 9.34293V9.38643L5.28576 9.67745L5.22111 9.34293ZM5.3631 10.0775C4.65551 10.2374 4.02298 10.6326 3.56912 11.1988C3.1129 11.7679 2.86452 12.4756 2.86503 13.205L2.86503 13.9875C2.86503 14.1382 2.92487 14.2827 3.03139 14.3892C3.13791 14.4957 3.28238 14.5555 3.43303 14.5555H6.72802C6.87866 14.5555 7.02313 14.4957 7.12965 14.3892C7.23617 14.2827 7.29601 14.1382 7.29601 13.9875C7.29601 13.4391 7.51389 12.9131 7.90171 12.5253C8.28954 12.1374 8.81554 11.9196 9.36401 11.9196H14.636C15.1845 11.9196 15.7105 12.1374 16.0983 12.5253C16.4861 12.9131 16.704 13.4391 16.704 13.9875C16.704 14.1382 16.7638 14.2827 16.8704 14.3892C16.9769 14.4957 17.1213 14.5555 17.272 14.5555H20.567C20.7176 14.5555 20.8621 14.4957 20.9686 14.3892C21.0751 14.2827 21.135 14.1382 21.135 13.9875V13.2055C21.135 12.4765 20.8864 11.7693 20.4302 11.2006C19.9829 10.643 19.3623 10.2514 18.6675 10.0872C18.657 10.0857 18.6466 10.0839 18.6363 10.0819C14.2528 9.23285 9.74723 9.23198 5.36344 10.0793L5.3631 10.0775Z" fill="white" fill-opacity="0.98"/>
</svg>
