<svg xmlns="http://www.w3.org/2000/svg" width="24" height="24" fill="none" viewBox="0 0 24 24"><path fill="#fff" fill-rule="evenodd" d="M4.28 3.22a.75.75 0 0 0-1.06 1.06l3.206 3.207a14.587 14.587 0 0 0-3.337 4.159.75.75 0 0 0-.01.69L3.75 12c-.67.335-.67.337-.67.337v.001l.003.006.009.016a6.234 6.234 0 0 0 .143.266 15.508 15.508 0 0 0 2.124 2.887C6.83 17.08 9.075 18.75 12 18.75h.012a8.303 8.303 0 0 0 4.358-1.32l3.35 3.35a.75.75 0 1 0 1.06-1.06L4.28 3.22Zm7.718 3.53a6.09 6.09 0 0 0-1.402.16.75.75 0 0 1-.342-1.46A7.59 7.59 0 0 1 12 5.25c2.924 0 5.17 1.67 6.64 3.237a15.505 15.505 0 0 1 2.123 2.887l.157.29a.75.75 0 0 1-.01.69 14.629 14.629 0 0 1-1.707 2.521.75.75 0 1 1-1.148-.965c.502-.597.95-1.236 1.337-1.912a14.009 14.009 0 0 0-1.847-2.485C16.204 8.08 14.327 6.75 12 6.75h-.002Zm-7.391 5.252a14.006 14.006 0 0 0 1.846 2.485c1.342 1.432 3.218 2.76 5.54 2.763a6.803 6.803 0 0 0 3.286-.91l-1.742-1.742a3.016 3.016 0 0 1-1.54.458 2.998 2.998 0 0 1-2.595-4.593L7.49 8.55a13.087 13.087 0 0 0-2.883 3.451Zm5.914-.42a1.501 1.501 0 0 0 1.897 1.897l-1.897-1.897Z" clip-rule="evenodd"/></svg>