<svg xmlns="http://www.w3.org/2000/svg" width="24" height="24" fill="none" viewBox="0 0 24 24"><path fill="#fff" fill-rule="evenodd" d="M5.496 4.12a.625.625 0 0 1 .441-.183h13.5a.625.625 0 0 1 .625.626v9a.624.624 0 0 1-.625.624h-5.625a.5.5 0 0 0 0 1h1.75v1.25h-.624a.5.5 0 0 0 0 1h2.812a.5.5 0 0 0 0-1h-1.188v-1.25h2.875a1.625 1.625 0 0 0 1.625-1.624v-9a1.625 1.625 0 0 0-1.625-1.625h-13.5a1.625 1.625 0 0 0-1.625 1.624V6.25a.5.5 0 0 0 1 0V4.562c0-.165.066-.324.184-.441Zm7.332 1.708a2.187 2.187 0 1 1 2.595 3.467 3.313 3.313 0 0 1 2.264 3.143.5.5 0 0 1-1 0 2.312 2.312 0 0 0-2.312-2.313.5.5 0 0 1-.486-.617 2.187 2.187 0 0 1-1.06-3.68Zm1.547.36a1.188 1.188 0 1 0 0 2.375 1.188 1.188 0 0 0 0-2.376ZM8.75 16a4.313 4.313 0 0 0-4.313 4.313.75.75 0 0 1-1.5 0 5.813 5.813 0 0 1 4.51-5.665 3.843 3.843 0 1 1 2.605 0 5.813 5.813 0 0 1 4.51 5.665.75.75 0 0 1-1.5 0A4.313 4.313 0 0 0 8.75 16ZM7.093 9.374a2.344 2.344 0 1 1 3.314 3.315 2.344 2.344 0 0 1-3.314-3.315Z" clip-rule="evenodd"/></svg>