<svg xmlns="http://www.w3.org/2000/svg" width="24" height="24" fill="none" viewBox="0 0 24 24"><path fill="#fff" fill-rule="evenodd" d="M12.022 21h.36c.654 0 1.268-.254 1.742-.72a2.43 2.43 0 0 0 .72-1.735v-.155c0-.147.033-.286.107-.41a.826.826 0 0 1 .303-.302l.351-.204a.82.82 0 0 1 .843.016l.098.05a2.503 2.503 0 0 0 1.858.245 2.423 2.423 0 0 0 1.497-1.146l.172-.31a2.419 2.419 0 0 0 .245-1.858 2.493 2.493 0 0 0-1.17-1.505l-.098-.05a.826.826 0 0 1-.303-.302.928.928 0 0 1-.106-.418v-.409a.73.73 0 0 1 .106-.409.85.85 0 0 1 .311-.303l.123-.081a2.46 2.46 0 0 0 1.137-1.49 2.419 2.419 0 0 0-.245-1.857l-.18-.31a2.453 2.453 0 0 0-1.49-1.138 2.432 2.432 0 0 0-1.84.23l-.147.081a.854.854 0 0 1-.819 0l-.351-.205a.75.75 0 0 1-.303-.294.896.896 0 0 1-.107-.41v-.146a2.43 2.43 0 0 0-.72-1.735A2.432 2.432 0 0 0 12.382 3h-.36a2.42 2.42 0 0 0-1.735.72 2.432 2.432 0 0 0-.72 1.735v.147a.89.89 0 0 1-.106.409.893.893 0 0 1-.303.303l-.352.196a.815.815 0 0 1-.85-.008l-.099-.05A2.419 2.419 0 0 0 6 6.208a2.457 2.457 0 0 0-1.49 1.138l-.18.31a2.455 2.455 0 0 0-.245 1.858 2.423 2.423 0 0 0 1.105 1.473l.164.106a.69.69 0 0 1 .286.286.863.863 0 0 1 .106.401v.425c0 .14-.032.287-.106.41a.81.81 0 0 1-.31.31l-.107.066c-.565.327-.966.86-1.138 1.49a2.439 2.439 0 0 0 .246 1.864l.188.303c.32.565.867.974 1.49 1.146.63.172 1.292.082 1.832-.23l.147-.081a.854.854 0 0 1 .818 0l.352.204c.131.074.23.18.303.303.065.123.106.27.106.41v.146c0 .655.254 1.269.72 1.735.467.466 1.08.72 1.735.72Zm-2.397-4.934a2.482 2.482 0 0 0-1.228-.327 2.32 2.32 0 0 0-1.194.32l-.148.081a.823.823 0 0 1-1.12-.303l-.18-.31a.824.824 0 0 1 .31-1.13l.107-.065c.376-.213.687-.524.9-.9a2.42 2.42 0 0 0 .327-1.228v-.425c0-.425-.123-.843-.335-1.219a2.341 2.341 0 0 0-.851-.867l-.164-.107a.8.8 0 0 1-.384-.49.863.863 0 0 1 .081-.622l.189-.311a.782.782 0 0 1 .49-.377.83.83 0 0 1 .647.09l.098.05a2.478 2.478 0 0 0 2.455 0l.351-.197c.377-.22.688-.532.9-.9a2.48 2.48 0 0 0 .328-1.227v-.147a.86.86 0 0 1 .237-.581.86.86 0 0 1 .58-.238h.36a.86.86 0 0 1 .582.238.86.86 0 0 1 .237.58v.156c0 .425.115.85.327 1.227.213.368.524.68.892.892l.352.205c.744.433 1.735.425 2.43.016l.147-.082a.828.828 0 0 1 1.121.295l.18.31c.107.189.14.418.082.622a.832.832 0 0 1-.385.5l-.114.065a2.377 2.377 0 0 0-.9.9 2.483 2.483 0 0 0-.328 1.227v.41c0 .425.115.85.328 1.227.212.376.523.687.924.916l.099.05a.84.84 0 0 1 .384.498.853.853 0 0 1-.09.63l-.172.311a.827.827 0 0 1-.499.377.825.825 0 0 1-.646-.09l-.098-.05a2.478 2.478 0 0 0-2.455 0l-.352.205c-.376.22-.687.523-.9.9a2.505 2.505 0 0 0-.327 1.227v.148a.81.81 0 0 1-.818.818h-.36a.843.843 0 0 1-.59-.238.81.81 0 0 1-.237-.58v-.156c0-.434-.114-.85-.327-1.227a2.453 2.453 0 0 0-.892-.892l-.351-.205ZM8.929 12a3.272 3.272 0 1 0 6.546 0 3.272 3.272 0 1 0-6.546 0Zm1.636 0c0-.9.737-1.636 1.637-1.636s1.636.736 1.636 1.636c0 .9-.736 1.636-1.636 1.636A1.64 1.64 0 0 1 10.566 12Z" clip-rule="evenodd"/></svg>