<svg xmlns="http://www.w3.org/2000/svg" width="16" height="16" fill="none" viewBox="0 0 16 16"><path fill="#fff" d="M2.4 0A2.4 2.4 0 0 0 0 2.4v2.4a.8.8 0 1 0 1.6 0V2.4a.8.8 0 0 1 .8-.8h11.2a.8.8 0 0 1 .8.8v2.4a.8.8 0 0 0 1.6 0V2.4A2.4 2.4 0 0 0 13.6 0H2.4Zm-.8 11.2a.8.8 0 0 0-1.6 0v2.4A2.4 2.4 0 0 0 2.4 16h11.2a2.4 2.4 0 0 0 2.4-2.4v-2.4a.8.8 0 0 0-1.6 0v2.4a.8.8 0 0 1-.8.8H2.4a.8.8 0 0 1-.8-.8v-2.4Zm5.269-4.331A1.6 1.6 0 1 1 9.13 9.13a1.6 1.6 0 0 1-2.26-2.26Z"/><path fill="#fff" fill-rule="evenodd" d="m14.313 7.636-.002-.002-.002-.004-.006-.013a5.167 5.167 0 0 0-.103-.187 10.675 10.675 0 0 0-1.485-1.983C11.69 4.376 10.095 3.2 8 3.2c-2.096 0-3.691 1.175-4.715 2.248A10.659 10.659 0 0 0 1.8 7.43a6.455 6.455 0 0 0-.103.187l-.006.012-.003.004v.002s-.001.001.712.364l-.713-.363a.8.8 0 0 0 0 .726L2.4 8l-.713.363v.001l.001.002.003.004.006.012a4.02 4.02 0 0 0 .103.187 10.656 10.656 0 0 0 1.485 1.983C4.309 11.625 5.904 12.8 8 12.8c2.096 0 3.691-1.175 4.715-2.248A10.679 10.679 0 0 0 14.2 8.57a6.695 6.695 0 0 0 .103-.186l.006-.013.003-.004v-.002L13.6 8l.713.363a.801.801 0 0 0 0-.727ZM3.323 8c.036.057.075.119.12.185.227.346.563.806 1 1.263C5.326 10.375 6.531 11.2 8 11.2s2.672-.825 3.557-1.752A9.073 9.073 0 0 0 12.677 8a9.073 9.073 0 0 0-1.119-1.448C10.671 5.625 9.467 4.8 8 4.8s-2.673.825-3.558 1.752A9.061 9.061 0 0 0 3.324 8ZM13.6 8l.713-.364L13.6 8Z" clip-rule="evenodd"/></svg>