<svg width="48" height="48" viewBox="0 0 48 48" fill="none" xmlns="http://www.w3.org/2000/svg">
<path d="M38.211 14.289L35.711 11.789L38.5 9L41 11.5L38.211 14.289Z" fill="#F5BC00"/>
<path d="M27 4H21V10H27V4Z" fill="#F5BC00"/>
<path d="M42.993 25.993C42.993 36.482 34.489 44.986 24 44.986C13.511 44.986 5.00702 36.482 5.00702 25.993C5.00702 15.504 13.511 7 24 7C34.489 7 42.993 15.504 42.993 25.993Z" fill="url(#paint0_linear_4720_175586)"/>
<path d="M27 7.236C26.023 7.081 25.021 7 24 7C22.979 7 21.977 7.081 21 7.236V11H27V7.236Z" fill="#D8E7FF"/>
<path d="M31.5354 14.6355L21.6361 24.5352L24.4646 27.3635L34.3639 17.4639L31.5354 14.6355Z" fill="#D8E7FF"/>
<path d="M30 5H18V1H30V5Z" fill="#F5BC00"/>
<path d="M27.993 24.993C27.993 27.198 26.205 28.986 24 28.986C21.795 28.986 20.007 27.198 20.007 24.993C20.007 22.788 21.795 21 24 21C26.205 21 27.993 22.788 27.993 24.993Z" fill="#D8E7FF"/>
<defs>
<linearGradient id="paint0_linear_4720_175586" x1="6.50493" y1="7.83474" x2="28.858" y2="49.0793" gradientUnits="userSpaceOnUse">
<stop stop-color="#2AA4F4"/>
<stop offset="1" stop-color="#007AD9"/>
</linearGradient>
</defs>
</svg>
