<svg xmlns="http://www.w3.org/2000/svg" width="18" height="18" fill="none" viewBox="0 0 18 18"><path fill="#fff" d="M9 4.91c.452 0 .818.365.818.817V9a.818.818 0 0 1-1.636 0V5.727c0-.452.366-.818.818-.818Zm0 6.545a.818.818 0 1 0 0 1.636h.008a.818.818 0 1 0 0-1.636H9Z"/><path fill="#fff" fill-rule="evenodd" d="M5.034.24A.818.818 0 0 1 5.613 0h6.774c.217 0 .425.086.579.24l4.794 4.794c.154.154.24.362.24.579v6.774a.818.818 0 0 1-.24.579l-4.794 4.794a.818.818 0 0 1-.579.24H5.613a.818.818 0 0 1-.579-.24L.24 12.966a.818.818 0 0 1-.24-.579V5.613c0-.217.086-.425.24-.579L5.034.24Zm.918 1.396L1.636 5.952v6.096l4.316 4.316h6.096l4.316-4.316V5.952l-4.316-4.316H5.952Z" clip-rule="evenodd"/></svg>